<mxfile host="app.diagrams.net" modified="2020-04-11T16:32:25.001Z" agent="5.0 (Windows NT 6.3; Win64; x64) AppleWebKit/537.36 (KHTML, like Gecko) Chrome/74.0.3729.131 Safari/537.36" etag="cisanCXyU7A7Q_Z21jLU" version="12.9.10" type="github">
  <diagram id="AFJVqKKvl4aYMtwjLNLi" name="Page-1">
    <mxGraphModel dx="868" dy="433" grid="1" gridSize="10" guides="1" tooltips="1" connect="1" arrows="1" fold="1" page="1" pageScale="1" pageWidth="827" pageHeight="1169" math="0" shadow="0">
      <root>
        <mxCell id="0" />
        <mxCell id="1" parent="0" />
        <mxCell id="T5g8Ms6Cscu1RrhLAaRR-1" value="" style="shape=image;verticalLabelPosition=bottom;labelBackgroundColor=#ffffff;verticalAlign=top;aspect=fixed;imageAspect=0;image=data:image/png,iVBORw0KGgoAAAANSUhEUgAAAggAAAEGCAYAAAAAHm2OAAAgAElEQVR4XuxdB5gURRN9M7O7l0FyzpJzBgURUZGcM5JBkJxzzpKjCMIPIogklSiiIFlAQUCQIEjO8fLG+b/quYZhnE13exH2E+9uZ6anQ3X1q1fV1YLVapWRSB+r1Qr6J4oiZDlhqyEIwvNW0/v533o/1fdqr1Mhet/R91FRUYiIiIDRaERQUBAMBgNrJ92vbi//XfuTynB2jb5XX9N7Nr6HldrhcDggSRJrI/VjSvhQmywWC2ubWjZ5H6vlwdftdSV/3sqmtp70N/2z2WwIDQ2F3W6Hv78/k031va7kkMukJ3Kpvjeh5je9h48Z/U5ySf/4vPP1eCVUebz/SCbNZjMbLz7/4lMe1e3j79TqQ1e6U60feVm8HL1r0dHRiIyMZG0LDg5mY6f+eKsjtTpULYfUl+rr8TmWXP7UY2YymZjuTMqyKVgsloRdmVWjQJ1FSopAQkINlN6CriewaqH3FiCQ4PEyaaEhYMCVllp58a5wBxCcgYmEBgjqevA+ofaQoGtBT3xOtvgum7eFxo7kk7c1ISayWha1suoLgMBBDwdBfn5+z8dO3U7tfNTKoCcAQU8+E2Ls+PyjxYUUsBrI8kUhvuvh6/LV84v6lUCC2tiIb5DgCgT4EiBQv9G8ow/JphZYxgUg6AECtaHl6zFzVh7pTG5Qqccwod7vzXsSFSDwinJlFd9Crkaw7tBsbAGCGilqF1S9hV6LcJ0pZk9BREJaagR86B+vc0KNnzcCHpt71ZOWrG01SIhNed48o1W2zgAt/94VeNWOh7psV3ISVwbBnUx70x/e3svHjuRSa50lBMDztr6e3s/HhI8hySTJZkK2yZls+hogqHWzLwGCFgzoybmn4+HtffxdHBxwwKf+6W2ZCXF/kgAIXKEQk8DRf3w23huBdmXRaQGHNwukM1bAU4CgVcIJJez8PaR8SQl70+b4HNP4KpvaSzLJWa74ZhPcsQRawOApQHCmiKh9WhdfXACCnvzGt5WmBeJad1dCLqLxJYdqEK4FsFrLOL7mpFoXegtk1f2iV46n/ebOUHIHTtXPx6fOVI+Ruq9INuNrfDztQ2/uSzIAgVea+37jsxNdKWFXClfPmnP2nbtB8BQg8HL0JkZCCbu2Dpy6ddfGlHKd+pksNvqn/sTHwuOJbMZFRj0ZE08AgidyqVbW8U3t87HQUreetDe53kNywJkEtWEVH3LJ9ZxWPtVxR3pyqdWPvG56AMOTcfAEIHgim2rQqmUpPKmHJ/dw8E1jxNnW+FzXPKmTt/ckGYCgFur4BgneKGGOdrkQeYKcPRkETwCC2lrlytYZKIhPNKy2XvSoW0/am5zv4bLJ3Q161oGv2uepbGoVjaegwZN6OpMlV8BBTy4TEiDQu3gsjFpePWlvcr1HrR+I4eKusKQGEDhDpWax4gMgqOVN/Xti6kx6Nw9G1Orz5CB3QmLuYnDWQdSp3N0QH53oqRJWo2btpHOnkN3V2xVAUCs4NdLVCn1CMgjUXhJ0muzcGkxuaNjdmOhdVwNDPhYkm/FldbiTTVcAldffk3u0gFfd9uQEEKiu5O4i2dR+4muhjI0c+foZvbYRgCXZjK95qeca8IRBSEiA4AwYuDOw4mt8OGiNrzHxdb215SUZBkFvcqtpXV92sKvF3ZWC5oDhP52o2jIZmwHTLjbu2AVvaLbY1Ic/w99DE5yUcErZxhiXPqFnCSCpA8R8uRDpMQNqxayWQT1ZVbctrnNGDwTpyZ5WXt2B37j2v7p8LpfqRSiu5Sfn59VBta5AYFzayOXRmfy5k0tnetSbOnkqm54YVd6815N7ed042+rJM0n1niQNEEjQ4iOK3FcAIa4KWM9qUwu0MzSckACB2sj3IvuyvUl1QrirFwcDapDAFZ4vgIIzgOAJMHDldnDXLmfXnYFXPfbKmbxqZTq2ddECVx4oG9fyUtLzNC4km2RccXn0hVxqF3U9NsEdYEgM8OoKIPhaLtXt4wHcardKcpSzJA0QeIdygfdVB7tCuN4wCL5cMPWsLncAwZVC9kVfUfu4oPtKyfiiXoldhlrxEoD15c4bb2XTFXDwZT85A6Xc7aJdvJ0p5rjWifc9Zw58OQfjWrek9LyW5fJF3fRAgTfANa5jpWVE1PPQE3DqSoZ90T9UBjFZ/F98MTi+qqsn5SRZgMAHnAuVXhS5Jw3Uu8dbJeyKcYhtHfSe0wqwNwCB36tHvXlbRyqDhPw1ONDvOTVYot9JNn0Vpe+OntVe524fPRnV1p4DGa1i9YSeVz/risFSJ2KicvnODw4keH3VTIzWR+1MXnl56m2M2rGI6yLk7VxJyvf7UmdyIKB1dyUmQNCCUncAQI8N0wLc2I4n15kcuKYUuRTMZnOiZVL0ZjDcuRtioxg8BQra+7ypd2zvdSXsnLZypahj815e3ut4A897j8ZCTemqFaa3rIv2fq6M9WSbvqOANEqVrFZ87uYBV2RUT20qaVet5vdev34dmTNnZm4nvn2L0uPy6/x7NTjg5XIgwO+l5zhLxRNuaYGWVqm/Bq2eyyY3Gri7QS2b3pSitYTdBSa6A7nevNvTe9Vy4kovqq9p73M3d1wZdTxOi+tmT+ud1O9LNgBBjRa1+9Fj08l6i74zdOxOcNxd96Z+eiiXT3R1OWrkq8c8ePNOdd/qIeDYlPWqPKO2xjmbEFtFrGeNab/jY03goE+fPihcuDA+/fRTBhTU46iVSb4o37lzByNHjkT9+vXRqFGjl7JEupJjem9YWBg6derE3jV//ny2uKdKlQqLFi3C8ePHMXnyZOTIkQNXr15l4CVfvnzPGQRSoN999x3OnDmDwYMHM0DRtm1bVv/PPvuMfb9nzx40bNiQARCtrNPf6rTQpAP4jhpfzr+UILda65X+pv72FrBq+8IbnelsDvhyrLS6Ui3/Wp2ppyN9pTepTTxrZ1zmflKUvWQFELj1Qz/J9xuXjyu3gXoi8EmlJ9haZB2X+jh71pkQc4AQFyFXL270/tfMQdxHUC2b2gyFnpaulU3+tyL/dNAXsHLlSmzYsAGlS5dC585dXjovImvWLAgMDHppQeCWzdGjRzF8+HDMmjWLLc6uLB5O5dM9dOgYAYsrV65gyJAhuHHjBlav/gpjxozFP//8g/Xr16Nv3344depP/PTTT0yWVq1ahdSpUz/3yf7vf/9j93344Qfo3r0HPv64LXLkyIn58+eha9duuH//HhYtWoxMmTKxBY2zCVQWHeDz/fff4+7duyhUqBDq1avHQAg/iMnTvn0V71OzXFrg5e2CrccOaMvQAxIJ1e+u9KGzsxhiUzf1uqBONx+bspLyM0k6BsFVx3FrLbYBYnpb9tSCrQcgEmMg3TEKepSZN/Xkgs4Da7xVGN6861W4l1trcbHY+BioAQZnt2hH7bZtWzFv3jwEBPjDarXBZqMkOcrJk2nTpsGyZV/ijTfS0DmjL7kf6Prnn3+OLVu2IDAw8PlhOHoggQA4sQW1atViYLxdu3Z49OgRYwXSpk2LGzeuscU6TZo0KFWqFPbt28fKK1CgAEqVKg1BEFGhQgXkyZOHvfP06dMMjFy7dg2Bgf5Ily4dbt26xeqcLVs2BjIITGTIkAGyLKBGjRpo0qTJ811M3bt3x+PHj5EzZ05cvnwZ77//PmMiEvKcjOQuv2qdyS1db1gFd/rRGVBIyH7TYxW0oCGuOpOzE1qDKiXqzmQLEDgqVlsa3giiMyvNGY3mTdm+vFcPILgSeG/fTWXpJZnxtpzX9ys9wBWu3s4bT5SxWi45Y/ZCJoGdO3dgzpw5bFGeOXMme6coGjBixDAcPnwYixcvZhY2gQP6x6l4DgL69u3LXABdu3Z9zhjpgWw6qrxgwYIoUqQIu+/jjz9mroWMGTMiODgIGTNmYN/v3LmTfXfx4kWUK1cORYsWxfXrN7Bz549o3rw5c39Qncj6p0VfaQttwXtxTDqPV+DbFnft2s3AAQEUup/AxaBBg9CxY0e0adMGU6ZMwaFDhxjQef3xrgc4SOAMJAcKnpTijHV1xhgk1oLpyqjSYxj0QIWr/qB28VNCPem35HxPsgUIaqUWm5gEZ8LOBzMxaTI9gdIDBWrB9lbI+WLG6TG9dybWBE/OE0rtttFzA3nap5wxoDJojIhOnzVrBn755RcEBwejYsWKz5UUyT9Z8GR9ly5dOsbqdqBfv/7Pgxj5fOnRowezxL/99luXflN6L72TJ3vp378/ixNQskgS/a8cg01gpF+/fiD3wdOnT2PKBIoUKcoWeKrrmDFj2II+adIkTJgwAbKsnGmh7guqX/ny5dG//wB06dIVderUQZcuXRjAIabh0qVLKFu2LCuPYi/+/fdfbNu27T/lJGfZie+6qwEq33njiTyqn3NlQCUHncn1nt5PT/pCAeTif7JVevpsfI+xr8tPVjEIrhrvCUjQE3R1mc4oNF93elzLUy88anpYCyL0hFb93evMiHEdCffPa0GC+yeUO7TKlsrZsGE9jh79jVH7dL1KlSoMDOzatQvp06dnFjx9T0xCWFg4Nm3a/DzJFZVpNpuZZU6LPNH5/D1aoEmggHz75MYgdwLJyezZs9l7iNYPCgpksRBLlixhgIBAAgUp0v1Zs2bDuXPnsHz5CkyfPv35Tgcqg9wLvXr1QnR0FHjyUf5uAggUV0CLP6Bk7qT60k/uRqA6LViwgLERdB/d76vtpZ6OS0q6j/qe5IeDUT150NOPWnCX1ICBdoz0DCk9JsGZkcTnMLVTb1txSpIJbVtSDECgwVNv59EbNA4QXC2cSV3YOfJ1xh64og75M9RGWgRiwzqk5MkQn23jMQmevEOf3SLQALbwf/JJNxbIN3bsOEREhIPcBtmzZ8eoUaMhihLGjRuDa9euY/36jTCZjM9fSfPj559/1j2mm+rHI7E3b96MBw8eYNOmTc9ZhBkzZuDXX39lgY2SRMlgBJw/f57V46233mLBhxRv8Pfff7N4iFy5crNFvHjx4s8XcdoF8fvvf0AQHKAD2YhxoAWKGIL79+8zQFCmTBl07Nj5OTvCZZTqRgGWo0ePRs2aNZnLQZ1jwZN+fX3Pix7gMsZdDlyvuLKE9eRSD8wmtX6OC0DgbeEgSp3HI6m1Mz7qk2xdDM5QIhd4bwVdDQyS8sKpxxjwya3+qScsfBF41VBwfEwcT8pUM1YcIGgtXmdKV6uYANqqZkdkZBS6deuK0NDQ57kH1PkF6DlaTMkK37hx03OAoN4SqK6Xth3ELvTs2ZPtWiA3BHczEEAg9wYFKVJdCCRQTgRiLqpXr852LJQoUYJtnyxatDhWrFjBvqfv6N3EHBCDoMQZKAwBxTnQNYpt4PvIzWYLqlSpit69e7+0M4PqSTs3duzYgY0bN3qV+8GTsXqV7tHqN0/Aq1afOnM1JEXdqQZDerrSXZ05OOA/Xc2flCZHKYZB0KJEV4PuDglrn02q/iUtTeaNoKc0QU7K7eEKRc3u6IE5d8yWIMh49iyUBevlzp2bbVekBbxfP4VBGDZsOAtMnDJlEq5c+RcbNhCDoJxyuHz5chw8eJD9rqbt1awSLRQUjEhBkGT5EyjgQY5Tp05lcQ60myAqKhKHDx9iwY60q4B2K6xZs4aBAXJ7XLhwiTEV9De5GahdFFBI+RJCQkJYDALtoiAQQnWhHQ0cONGuiKlTpzPAoJZnYhoofoFcHuTmoHa/zoMQN6lXL3RcNp3pEFeAIKnrR3X91DrTmbGl7lU1OIhbbyfPp1MMQNAKKQkCR8Z6iE/rd0uOw+cJQFBTtLHdl58c+yYp1VmtiDgw0NsGqQWuarlVygAePnyAli1bIigoCCEhgYzOJzaBxlZZfGW28NK9FIPAj+jev38/y2GgZib4oqCuH+1CoKBCilXo1q0bcwGQO2rYsGFseyExA1arBT17fsrcC82aNWPvpa2M5DYgQPHw4WMWcEisQUBAAMuZQC4Eep4AgCjKrH6UOIkWetpCSc8SoxAVFY2KFSuxBEyUMEmddZHup7o0bdqUtZfqpk5Qk5TGPDnURT3u/He1zqQ26Lu7aCfKi09SBQh6Y+CJzuTP8a3femA+OYyvL+qYYgCCtjNIaF1tgUwJAIG32Z3QU1tfByT6Yrr4rgwum+7YLPV1ZeGX2W4CZWFUTuzjljT9rrgXSLGLKFasOFuwKfJfG3mtBge0SFMiIvqQn58yG3bu3BktWrRg39GztIuBYg4WLlwISpE8atQItGrVCk2bNsOYMaMZm7Bq1VcsgJIW/AoVKoJYB4ovGDp06PNgRVrgRVFhMehenruBAAP9TnEI0dEWtouBmBK++4J2XhBooeeJneDfu2PNfDdiKbckNQXviklIada0XuIkNYBWu2JfVTlLsQDB2eKZXJGvO/WkFWA1dfwaHLjrvYS5rkfpOnuz1iojC7t9+/ZssVdAAB2hohyjoseQkashOtrMrhP9T9a2WkbUwIKABwUUEkgIDw9nlju5Bii+gO6jhZy2LFaqVAljx47Fo0cP0aNHd7Zrgtwcy5YtZWzFzJkzUKhQYUyePJW5M6gMclVQcCIHqcQo/PPPRWzfvh3EatAOiBkzZsJiMbN7wsMjmJuEki5RbIKaQSA3Be1koHTM+m1OmHF8Fd6ijpXRMlkpqf1al4MCrhWGJDkxI/E1JikmSNFVB3FUzIVezR7EV8cmRrm8nVy41cDgtbAnxoi4fqfaWlMDOj3lRLL7559/erXzhMs55UbQ+6jdTxT8RwwBgQPKUkjggH+OHTuG3bt3g3IoUAwAARQCHbRrgfIxUJIkYgqUPAUhLEaBrjdu3JjFF6jBOskkAZFhw4YyNwmxDUWLFnsOdHjb+aKkB3TVlt9rufa9XKsXTa3OTGnATAsQUhKz7AvJeCUAAu8ovi0qJSsVvui8Kpm+fDEJEqsM9SKoVsTOlLC3cqv2K7t7luSFW+t8bzz1ixpkqhdmvk2WyxuPCeBZEfkZCXquALVvlzMgiTUGr9/73x5QyyX9rk5K506Oklt/qlm1lOZC8cVYvFIAgQt7SkPBWkHgfmhfCMjrMuKvB7QuB18m/eFlq0GCK1eTti4cHPCgNR7nwANd1TsheLwP/46DBP7zRVyEEgujfVdKW3TiT2ISp2SuNxPn7fH/Vi5/r12x/+3rVwog+FIBx7/Yev8GNR2bUt0o3vdK0n9C7RryVW21FD2POXBXvtbVwSl/vt1RvbjzvBr8mruyeVnqnykdrHvSJ0ntHrVVzRkePblIavX2tj7adr52yb7CACE+lLC3ApmQ978GCAnZ27F/l9oHGvtSkteTry21pD1eWheDurYpCdBpQY+WyXrNbAEpfheDdipqUWPSnqqxq91rwY5dvyX2UyldNl/LZWJLmPfvT+kyqe6R1/KpwyCYzWZlr1QK/2gp15TcXPW+5tdCn3xGOqUr49eymDxkUcsSpHS5pFHRymZKYkriInWvDIOgF4Slpc7430lZkWmjbrWDr6673kRPym2LiyAnl2dd+XL1FLG78Y5tu7Xv8qVc6LVDb/uYs/b6si6x7Z9X8TlnsqkeJ2djmxz6y5XM68lcfM6R5NBfDDhZLJZXhkHgg5JS0aGzdr1WuEljOmoV8KtgmVHPO1t4Xstl0pBLrWGkF68VX0A1MXvAFVjngFbdF6+ivKY4BsHVIOoJfmIKaHy9Wy3czuiz+Hr363Kd94Az2eSKKqUDBk+CwFJ6HyTl+aFHs6sBXko0rHib1G131g9Jeeziq24phkHQDrQzRZPStzqSoOhFiVN/8O85UHoVEXF8TSRPyqX+duVGSOmLI5c3PbnTusZSOtvnibzE9z2eLPju3AvxXceEKN+VXHIDK6XPTWf9nKwBgpYiUgfnOWtwSmcR1L5evT7Q9pErmi0hJmdKfodaAXsimykZvHqihNWgICXLRVJqmzNgpq1jSmS5XMmkq7XFE2CVlMY4LnVJ9gCBD7LWOnYFEOLSYcnhWWcWmpZleZ3TPv5HUw3YXIHTV8lCccUg8GspGSzFv9R59gatbDoDaK9lU3i+y4H6Qp162rOeTr53JWuAwOkfT3xGKREBO6WFYk4jU193hpadLVqvEkr21fTVY2O07h6tsk3pjJYrFssdkNWeKMjnu6/G61UqR88i5i4vretLT0Zfpb7S6kptP2ndLinZVZtsgxRpkNQHErlDuXFRxNqyE0og4rpIu3M3qBUuP8hKbUUkVDtTivJRK2ECBlq3grMYhFfNWtYDq+q+on7kZzaoWa7XACH2M4XLJpdLtSw6k8u46MzY1zRxntS6A9W6T9tXVEPOJMRVRydOaz1/a7IFCNREPSXszrXgDkh43nVJ9053/l5ec63/8VVbqOJrBNVy6Yy2Vb/7VVLE6kXeFQBVK+VXrX/iSy65weApcH2VWFe1TnQnl+o5ndJlM1m6GJxZxu4Wf3fX42tielOuuo5xseDdPevs+muQ4M1o/fdedycmagGDM+stbrXw/dO+ZNG0wFRrrenVnivilG6x+X7kXpToqWxqwWtc6uRLuYlLPbx5Vu1SUD+n1Zn8vpQMEpINQOCKgZ8l7wzdOgMByQEceCPEnt6rBwT0BF2Lil+lQBxP+5LuU1O1WplyxRy8lsv/9rIzkOpMPvnR096M16t4rxpEcXeNq1iY17LpmWy6ArJcNumelKQ7kzxAcObXdUbdvhb2l4XdW4DAF0HuY1NTwq+istW2WU++1H5dZ/cnN7lMCMvPW9nkdVLHy7hjyl5VmeV9pY7TcsUM6Mnnq2pUOdN57pguAgYkm84Y7uQoi0k+BoEjYBJ0rYBrqUq1hedKsadkwXfFDvA+cRWjoPZPkrCn5L6K64TlioADBHcgwJ0STsl97QkY0CpmPVcEt9C0QbVxHcuU+DzpTPrnjAJXy5sr2UzJcunMheBKXl0xXzab7TWDkFCTiVNlBoPhP69UCy1XGs5YBVfAIaHakljvcQUYeKS4GjioGRv6nhRxSqLMfDEOXC617i41uNIDqO4Agi/qlpzK8EYJa+8lmXwdL+N8tDlzoHU3uGO41DExrwow0OtFZ7LpSmZ5X6ck2UwyLgbtwsQ7Oy4UmRYYxJfAqyehOwWtnoDu7o3LdW+YBC2zoH2vHpPgTZvj0o7EftZZO6l/vdmtoJU9rfWWUHKR2P3pjsXyNC5B627Q6o+k0s6ErEdsdaZW9pwxDgnZlsR+lzM3gadMmNrdQL+7ChBN7La6en+SAQjaSjpTwN6yBK4Uc1IemLjULTbggN7nTDlzhfEqWmxaC4zLpbMJ7wqEekrpxmXsk/KznihXTwGCWg+oLTZnzyflfvFF3Ui2SCa5S0GvH2Ijm/FlVPmizb4sQ83+eQMOXOlNNUjwZV0TsqwkCRA4deuqI5wJriff+1rok5L1F1tw4ErQ1cr4VfT9cpDgDrRSP3mqhPWArq/lMiEViSfvii/ZfJUBrJqRUeK0ZMiyPtj3RjZfJXeYJ8DVlX50BcboWnKO5UpUgODMOuMBid4ItFrh6tHCCaF81e9ISpaMJ4rZ2QRQU7ccCFEgjraPU4rLQY+q5taZOhbGEyCqXTRfJaUbG8DgrRJWv4Nkk1tsnrw7ud0jCy9qLMgERAWIMaeDiqIAURLZDQo40G/dy/LHb6KfDpenjNJ1QGTvBASwJwX6To75p7w7uX1c6SxPQYMrmeV6g34m11iuRAUIWoHiFJk7S8zVdW5NaAc4IQCCGqSkFICgVcJqay0h+zSxlI+aulWP6WuAEPcR8YUSVlvQXDa5xZaU5mBce4sDBAIHaj1jkCSIogTEXFDkUosQlIWcXWIfZaFXlfQfgPCyfCsA4cVzHBgkb4DgakziQzb1DKu4ykV8P58kAILar6tlFZx1gCsFnVgMgrauetZofA+oXvlxYRC0AIH/zf2+KRUkcBnSyia3GJI7QNDWPzEWU18rYS6b3FpLKawWM4i0Szo7i0YJlOUy+cJw+i8AUACCtpQXIEErD/8FCFS6ming4ED7fWJoON+/05eyqdYZyc3dkCQAArkU+JY7T/35SRkgcMWkBQiJBRh8BRDUioh+5yCBBy8mxiLje9XwcrZET3fRqK06b0BtYgGslAYQtECWZJIstpQik1qZonADQVBiDtSfF3+pFnMGDF4s6DxG4QWj8F+J5fKh6DLOPiiAgrswXgAw5XtX7g1XcyIpjpEvAILaxZBcQUKSAAg0GJ7u23WniJOCi0E9GahdiR1l7SuAoKXY1e1KKdaath1cLj11Wbla8PWuJSRAULeNb9HUo+MTaix9oYS1wIDPf57RLiH7Nz7A6vMy/+M54NtsFUhATgAWHaAECLwch8CwgQyHQ7lXidewP9/x8BLAiEENJB8cYAmCyHzoEotzILCguBzItWGxmGEy+bF30vfKlj51Uju61/1HLXMU60N/0/v5J6FBhC9kkwME9ZqlTheeHGQzUQCCs8FW715w13lJmUEggdCm3+WKOKGUr1Zxuvrb00nIx03tXtAmW3I3bu5VReLewcdHzWRxuUzuMQi8beqspNQmrWx6yuLFdaR8oYS1ssvdC3whVCzbl63suNY7MZ4XiAGgQASRFn+CArSAOyAZCBTQ0eKKBU+LNAUvvggzkCE7BIYgGDBgizuxAvQMdzu83CK6jxZnWqjZguZQAIccw0LQfLDbqQyJlUHXXpxF8OKYc6VU7wCCmrFTB50md4DgLHlSUpfNJAMQuPLSSz6jNyGTKkCgenGXCVdOXOHSNW7ZJKSS8RWDwNujPphE246kLvCe9LtCob4c6EUqWTK8sIxcyZ+zdyQ2g8AWlpgET3qymdB5LnwNELT+Xa5T4k8m9QICPZEw7+95DhDY4k/jKMJssTHQIEmUA4F8DsCFC5dQtEhBxaXAF3UCFnYZFy9dRr438zGmgd2uEnE+9gxKyWBsgdKfAixmK0wmIyuPQh4YEyEDkZFmBAQEsABJWbYjNPQZ3kidBkJMXIQ3AIHLJdeVaucaqwgAACAASURBVJ2Z0HKpBpdxMazULgZXB43Fn3x6L2faJxIVIKg7Rq0stClskzpAUCsibQ4H3i7e1ridSEczXoQsmJUukY0QZBmy4IAgGSHbAJFoPlGEKDgg2kW6BTbZCqNM6aqtIAPCLkqg6GfZTvierBAJdjshfRsEkZSOUdnWRPfDxCwSIhftsh12hwyTXYBFMsMIf8g2kW15EmCB3eAHSRTgsERClmywOYJgFKPgsAsQRKIhff8hhUYGEt9+RcHckkB1J8OKFClZQHSPCGV5d8BOv1tjrJ6YvpJt0bD5BUAS7HAgGkarH90JmyRCsBpA2MAWs53MwLSoXaFVIcNOdGtM00TSnQ4BMlVEsBGseN7ohAQI/F168ypmDVAgUAzt7BCscDiMZKDCDgtkO1mi/iCS108CLA4bJEdMK6lpBloplD6g9kearUwWg/2MkEWim2WIAtHa9pg+4PT3C4sytgDBmd7gC5pdsEAWDDDBAIdMtZMQLjmQyuqA2UDCIEFigmMFBCssZIXDHwE2OrdAgEW2QpYEGGghZvUXIDusEMUAZsTLsMEiGah0GCHBRnPNYoWN5EpywEbyQtOCBM9gRLgIBFnNkAUjqJ8ZPS8LEGS6yRZjmUv/3XsQw3ywxZOqSHM9BrsKohHNOk5A2jT+OHXuBjYsH4u/zv2LAUOWokGragg0Ag0/qoSSRXJDkI24/CQc40ZPRLvWzXHywjU8vGPB/ft3ce3qdfTs1AyNG1SAKFthFiTs33seG3b9iIWT+8ImS6jbdAA2fDkRaVMFwWK0QLILsNqMqNWoC7ZsXoHAAODpIxnjxy/ArHl9FKLDZofBYVdkQXgRD6FlULlBxWVBz5Vnl22QBMXtIFsB0SjA7rDBITpglyWIsh0mUmY2f/oPVgcQYBMAE2C1k1wa2Ww1QYZFjALEQPjZFGbEIZC+BIySBIsjAiINmRBEahYWwQo/h8j0JXW8XbCCpMFEupTaGFO2xWBRZM0hwSFaIDqMbCwtogA/0gc2C2wGC+AIYu+TKK5DowqTKkhIUIDgDU2ktnb0zgJIigyCGgW7Wgpjn6s7BiCI0UpEsd3IKL4noU8wY+4STJowEjeu3cHPB4/AKBoh2gWYZRve/6AicmTKgPAwG6KjomCRHeg9YCqWzB0BQbahas3uOLhrKSTJgAD/AAQHmKCsawQ+RJz56yp27T6GQf2aK4FIpCIFG80+2AQTLFYzQowGXLh6B0uWrsPcaYNgdVgRGSUg2J8miwJi4utDk1rZl+1gC7NdNmH3niP4dsNuGIzBgAF4JjpgiBYRIkqwGqNgsYZj6tgRyJrBD7JdgtFgwaV/n2HGjJVYMH8IbDYLnj2JQLpMqeAviHDYgD7DxsMipoaRfLKyHWZbAPwNdqY8zOYwtGv9Aaq9XZFVRWkvAYQX54gkJEDQ9rXWfce6TJDZQkUjaoMDoWFWdOgyAnPnDoOfQYRgFHHstzO48u8d9OrRnNHTkt0KUfJDu27DMWVcXzx68hgPnliwfddhpAr2R/UqpWGzRuO9dypDlq1s7BWQxFbMGGD1cuS9N1aa3gLDFo6YxZQWeFm04MadRzjzx3lIZPnCD9ZUAfAPjYDFTvdaUa1SOQSHBDEgfTfCilYth+K7dVNw6tItLJ7/Jb79ejpbkKnmVgLEsOLwb3/iyZMnCA+34u4TKx7du47Ht8IhB4lYPmcobBYrBEKPogzRQWDBgM5dh6FN9454r1QBWilgJ2ubALXDHwLJa0wPyQIBGf0EBkxvCiJEuwyHQIuuA5LghzofD8eIId2xZtOP+LTV++jSaypKlKmMjm3fwZgJC/H92pnwlyQYRRF9R6xAzXfLYuuOn1G1RiXkyfYGlvxvNRZ+Nh4mkwESZWG0C3gcbcaChWuxZc8pNKpZFnduPMa/95+iasUC6NSyFtJlCAIcRuw/fRFzF36D1rVL4l6oHVF2P2zb8SuaNHoLkllGuZKFUK58IQaSXsDnFyOtduU5Y42jzVZMnLUUjRrXxaYNvyA4nR2ftG2F4cNnYOz4AUif1o8BeQbECSyIRqxefxDZcwSiVJG8aN9+HDZunAKTYGLjKNjssJlMGPzZl2hYtQqqVi5CUA937oWjV/cZ2PTDFMh2C5vfB45ewtfrdyJYAqKsfqhYoQhMgTKOnzwNf7uA1BlCMLRXZ/zyy28Il6OZvhWsEmQjARUZoiTBGuAPPHuCtyqURKpMARDtgQwgKgbGC9CkZkviS0fGttwEAwhqhOgKLamvqQVHD1k6Yxa0SoQtdfHsh+R+XU9BENUnVmwCU4CKFSI4jMxCckgCvvp2O2zRVjSs/z5Onr8AP7I6ZBFW2Y5ixfMjc6pUOHjyCs6cvQW7QcbcxeswsGd7+PvZ0GvgPMyf0R9WsxUVy+VHwbyZMH/uSoSFWiGbHLj1IBT/XLyFD6oWhj3KjkiLDa3a1kHZom/i2Nnb2LZ1B8YN7YzzV25izqJ1+HLuMNx98BB9+s1gitZhNzOf6X/3Z8dWbDXPOZRFWCDQAhtkQUJohBmh4VGMihVFGRO/2Io3M72Btg2qIdpBAMeKnGnSw8/PCqvDCJtkhZ/sj+GjVqFw4WxIky09vvh8JbatnwfZZoMki7hx/x6sLIDKjsdhIsZPWYNFU9vResB8v6lTByB1sD/IJCFWg5S+xJgb5ZOQAIG/y1n8BNVPWbyV/0dEmzFkzOdInzE30mdIB2u0jOw5g7BpzQ5UrlkRBTK/AYccjQ/frYBIi4Tu/adg9KBuCIsKxb837uGXA3/BaLKjSoUySBsI1Kz+NmRiGAQ7BAZCFKZJYV74eP13QXQ2f9RMnPr359R4zBY+gcxB0YHL1+/i1InLgNEAQbCgw8A5WDdvBCzRArMUP3yvPIJTmRh4+fzrn3Dxn5v4bGxntGw/ERkyZkO+/IFscZWjotG2TROERzzFoWN/IyzKjOAQPyxZvRvtWr6H/Dlywpg6GKkd0XgzbzYYTP6AwQGDgxYJI06cvoLBo2di6+rZCAogi5XYLep16gsDZGLqYpIOaXuDG0mK7IjMunUQ4yDaIQomNOs6Gnlz5Ua5ysVQvnAuWG3AtLkbse/wSUwa1w0fvl0SqfwD8Tg8EsUrf4yvV47F5q2/olHdmsiTOS1GzliAL2aOYRbuGyEmNjaPHkehddcJ+HzhMJgtZgaOyUjoNWIB5k3ui4LZ0sLukFCzwyhkz5EHwzq9g/BIG5p0mQUQIGpXFXXfLo/MmVMjfeaMbN6IbMz/+3FnUIVHROHzld8hME0G7P/1DKLs9zBt5AD07z0f8+b3gckgI13qEKTy94dFsuH2gzC0bDEcP25bgOBgA/oN+wJ5CmZF3471iDuAweGPv/+9h/pthqBBjbKo8m5pFHgzL27cfIShw1Zg1Yr+CA4KQM5s6bHuh0O48zgUXZvXwMm/b2Pzd1th8AtG1aql8WaWNOjSdwSO716HvftPItQRhQCQTSXBToyELODmrYeYv/p7fDaoPcqULI43MgRCdJggCGZIbBwZZInRW3wXiH5MiI+0ZKyK8SlA0EP3aiHX0u2e1lh71LOrBZ9bE54CCk/r4Oo+bdCXp2VqQYIesNEFQbQQ0sIjKwlSLA47LBR1HG3DxnVbIPiFQCIKjFmygMnPjpb1a+LytVtYv2EH/FKlw/W7j5E3cwaQaXzx5j3kz54BEdZQNG9cEwXy5MCtG3dhlwXYReCvCzewa89JDO5Rj1nLDpuM9JnTwd9fwOmzYfj+h90YO6oVzv1zHfMWb8KXs/rj7qOn6Np9ArZumA2b1cxof0/Bk6f9x+SAHCGSEu1skCW2BtEEJEcBU0CShO27/0K/wfOw88fZQFgU8hXIAptdhskmMovvmSUaxkB/jBg0E6NH9gT8DGj7yUT07dEGlcq+iWCDTDofEQ4RH9Tpg6o1yiDCYsPew+fR+IOyuH7lOsqWLYoenevBAAsEOwE3cqtwWj1hAIJafrj/U30Utbr/ua+ZjHqHKOP63fuYMH0NwqPsSJM+HR48uoGOrRth0vjVGDG2NQb2mYk5U/qhXNnCWLpyIzZvP4rqbxVDk+Y18evB0/jtxB0Y/KwI9vdHp+ZVUa1CkZgMfWRB0jgpAIFAkxADmrxxMXCZUFtb/53rjM+FQ7TCIftBEoywC0BUeCSyl2mEiH92wyaT1U7eEQsg2XH3ZjTeqd0bw8f1hCPqEQ79eRX/nLuC5bP7wMqAIZAnf3b8uOcwbtwzw+Ygn7sZazbtQ+33KiFdUCrI/gKCLWFoUrcSUmVMj2u3nyBXptRYtW4bPqjxFmPdsmdKj/sPHyE4VWr4+RkhyuSiI+qaaGkerf8yRFCf90F1FsklSAyEaGdta9BuOHMZ/HLoCPJmSYdT5+6gfMXy+OvsBeTNmQb/XLyAWZP6Y+jYRQiVAtGuSSVs2HIEQrQD2dO9gU17D6NhzcrwF6zo1b01TCEGPHsQjY8aDUbfrnUgGfwhW0OZZb5i4zYsmzsaBXOkx+GDf2PO1/uRNnMQlk3uim+3HMOJk48QFn0PVy+extrlExESRAyJsuCxeaACyWp2WAv81CD6aVgU/rf+d0yYtgR5ixVDg4/KIyIiCrcvX0XRwlmx7aefsHDGEBQukBvhkRZ06D0Zn7RrgLrvlofNYYfDLqNppxkoXSwn+vZtyoyUdu3GoXGblsiX0x8BJgN69VmAJk2qYcnyHRjQqzG2/bATWzbMxPqdx7Hqm20oWzI9bt2zIF2wPwS/dKhfuxIK5kyHZu164dCOtQz67DhwEj//9AtMkgFmqx0tm9VB6uDU+GToTBzYOAt2mwyHqLiqCDBz1k6r55IikxBvAEFNIcV1sfYGZCQkQFALujeLmvpeDhL03Ci64IC+ZACB4g/IWrJj45ad+G77b0j7xhto3OB93H3mh6VLv8CoIf3hkC3wN9lRuWx+7P7lN5w4fQoFi5XH8b8uIlAkv5g/omFByYIF8M/f51CxfHF8WL0sIiLM+HLFD3gYakG4xYZLF67i7Uol2II8sncLmMkCEoHrVx5j3JS5SJ8uGI8jgT/PXMSHlcsgyhYO0RCImZN7wcgsbLvO/unY9tqL55QdXAo5S/EGFFjhoDgNkXJrCPhp73Gs+HofIqzhmDn1UwwdOAVt2rZCs3qVIJGPWBBRsVpzbFy/GI1bDcAvW5fg2x0HceLk3yhZIC/+OP03ls4ZDBajIJtQulx3LPtyBCItdsz9fCPGDmmFA/tPwGqxYMiAFpDISWqlUBGJBWuxWASVctS22JfMlhogaK2z/4BPFvLOHOqQRRlRFjOWrfoR0ZKIWzefwmSywd8WhBNnruCH9cNR8f1PcWjrXEgm8tca0abXdPTsUA+Xr13Djbth+O3EZRgCDZBsDoQgGjMm9cMbqVNBlsnN8oJBiC1A0BoXTgPXZJEtuA7ZyKhc6v+IiEjkLNEaode2wGa3wgEDcy3Y7SI6th+Hx3YDPqpXBX7WB2jUrAGatxqFj94vB7s9AtkypEbblg1YPMW+Yxcxdc4qlCxVHDt+OYXKZQshlZ8dv5/5A/u//4LFbVDMSpXqvbD56/Fo2mEA5k4filKl80GEEWs37cIvPx/FF0vGQ7JTTAcBEBNkiv9gLMLLzMrLgM4OgWJbyEoVZWoBmnYYjYkjumPE9MXo2q4pDhw8iSibgF179qFerYoomic72reqy+JDFn25DRWL58emHXvQrnVdVCj5Jjr0nIbPJvZB+tQBLBYlGnZER9px8vJdWMMicPD4eVQumxch/gGIttlQrvSbYDGJZhEnzt/EqvXb0bNDA3ToNQFbvvscEyctQY0aVbF9y15MH98V6VNTe0j+yc3z4sNlk6kyVaTkCzeRMmeuXL+DqXNWoHadRth5+DekEiz4ec9J9P20KWp/8B6mz1uGz8b2gCUqEr0Hz4NFCkGWzEEQomX4mwIhS5F4aJFgfxKOAERh6vR+uH3vCYZOXoJs6QPQtmVDjJ64Al8uGIJ6bUbi0M+L0bDBJ9ixaSHWbfsDV67dQMcW7+L0hfv4adsOGEOyo0Gd8iiYKy0ate2Hwz+uYjFckxesR+ECefBOxUJYsHQjChfMg9KFC6Dn0DnYs3kWi5uwS3Y23Shai0AnCzqN+eitj77UC3HRsj4FCFqUGJsT75wpUL4Yu7NCEwIgcGXr6Y4LdwPE6+yJUCgpV4mjIhVBYmaBLBnxx7kbWPXlWiyYPRQDxixGkybvIVPaNFi2Yh0mjOwNf9GCsEgBVocFc7/YhtwF8yJTOqK9jHgcacZvB45iwaTuLKCPTB47ZISGWtC3/3QMGdkHWbOmwQ/bj+De7WsY0qcuIFBsgYQDB/5E4VJFkSF1AM5dvoa5i9di2azhoBih439eQomC2RDkZ1Ti2VQ0u7txdNdnL1ZdcvlSwBdZp/QPsAkGRERb8dW6XTh05CRmTR+AgcPnY/a0XvATjWjTdgqaNa6MTu1r48zFuxg3fgm+WTMW79TphPGjR2DWZ0uxduV4BPkZ0L7rVLxfozi6dWqAaLuAouVaYXDf1jBbRGzaehBtWlTFn3+eR97cuTC4dwtIsDJFToQjC0VKQICgVjhqUK0PNG0QHAZG/xNAOHPhAvoNWYasuYOQKVNBHDh4Bg1rFMOFy3cxZXYftGk9Cr9smI6wqDB88/0eLPriBzSo9RYaN/oI3276CX+evQtTkInFnPTrVgeli+Rli3CMSlToVCa7JAjexyDw7bR68TsvyZIsQRYIIChBhDIczLrMUaw9wm5shN0eyVxQirz44Y/jl7Dvzwvw8w9G73bVEWa2oXGz4Vg0fwSstkiYJCBvzszMhbTvyAWMm7oMpcoXxU/7/kaFMvmQyiDj8PGzOLF3Cew2iuQQka9UG1z8/St80ORTzJo8AOWK54IdJpgdArp9Mga1alZDi2bvwGAXIRBAEC0xSYbIHaZ/rgHNSAYQBAqKZKHDaNZ5FMoWK44zl/5GtvQ5UbJkHmTNmQFTpm/E5FHNmYunVPEi8PcTMHXBFlQsXQDfbd+N6h+8A6MtAqfO3EeZkjlQ852yEA0OWOwCWrUbi0VLx2LmnKV46+3S2L/vOGaO743Va7bh0vl7GD6qHYJMAk6du4ZJM9fh0d37aPdJS0REmvHDD7+gRcvqeHQnGubwOxg+uANj85S8DAqLoNaZrhhTunbr/lP8fOgiVq7ajvadmsBhewoDjPj14EE0qN8AD29eQ6dW77NdFX9fuIUMOTLh5Ll/MXDQLKxcMh4moxV12kzHHz9NQxr/QBj9BOz4+RAWrt2N9BnToWalClj5zRYM7dsc/cauxOr5fTFi3GJs/fYzxiB8s+Z7lCmVHY/DDXivYhEcOHkVjepURKHcmdC47UAc+nE57LBjxqLtyJk9IyqVyYMvV+9C0SI5UabIm+g5dB72bP4MsMqwMY8CBTmamPtJrRec6UK+LnisC+PhxngBCFRP9YFLeq6H2LbFreKLCViKK2vhrn6+BAda2tTVu3laFFqc2aEtsMIhGfH7mRtY/b9v0bpVA3TpMx0dO7ZAdFQodv54EO3a1Eb3th+yRdocbcZ3Px7D7+eu0B4EyDDCLjlQrGABNP6oBPPBUdSwA2bIoj/++vM6i1do174OFi7biHUrJ0CQo2CUKW4XaNx6DIaP7oVShTLi4r+3MHvhGiybOxIWwYEePaZgBlkoaYIhxyRn8QQEuet79XVlFwP7PwMs5IMmn+k367/Hzbv30LdnF9BS0ebTiZg3vT+ypgnA06hojBo3A4tmjMW2nYchBxlRo2JplH+vO4LSp8aaRUORN2taREZaYXY4cPvOXRgkf+z+7QymT9uOEaMaISrSgh9+OIRWrWri9MnLePzwIT56rxiaNqiKVMF+LKCPdn8k9C4GtXXmqh/tghmC7KcABEa/yOg7+CvUalQGe34+g7v3I7B8Vnsc/v0clmw4guZ1KqPBe8Xx9Ek49p84g1VrfsL8qb1w52EUHjx4jOv3Q3Hm7BVUfaskgiUz6taoxIIBFecC+drVAOFl36u6ns6UJX3PwYFTcMkssxigCD+2s4bWp8hIG7IV74SIa99CtjjgkMxK/A7bdQDMXPYtAgOC0b1VbUTb7GjUbBgGDWvHWCKy9Ku/UxQm+OOPszcwd/EmZMiaGj/+ehaVyhZDapMNz6IisGJ2P8gOGVv3/oZN245j9Zy+qFq/M+ZMGohyRYswoGKXZTx+Eo3wiHDkyhUCkcCMI4AxHsR+SSz5ED90SSdDIgOe5PZzsEC6xu0HYPKYfsibPxeOHP4LF6/cRLTNjDVfb0XnDo0hmyPwcauGCPRzYMqCLShXtgjWrN2Nv/69jWZNS6NutaoYM24pOrSuiQfhj/DOW+XxSa/pWL9qEiZOWINpk9rjSVg0rFYzDh+7iJs3b6BI4Xyo9V4F/H72Epav3YnZY3rg7r37uP4gDJ8v/QEDe9VF8QL5EeRvgtVuhsh2MCjuRS34cbYu8O+fhUdi/Y6j+PmXMxjwyYfo3H8E/vh5PT4ZNBfXHz7D7JHdUKpoVthtDoUtEkUcOXONgZv1K6fAKBqQq1wbnNyzFCGBASxeK/RZFKbOXYeCRbKjQqni6N53DurULYOlX29Hn85t8fPPv2Lb2ilYu/0IosIopuEjfNxlLJbMHIhpizegab2qyJXxDbToPAxHd69kO34+W7QTJ/84iTy50uP4H1fQpWt9lChYED2GLsD+TZMpLIq5aiFEM31Lu4HUzKLeWqXOL5MY2zyfGxsWi8VnWUTUljXDjTGnjTljBbxZCNTWp6vFOb4ZBE8VsLdt4/fzwEV9dE2UMG2HsjFfFi26VoeBZTP7av0v2Pb9TsyfPRrPIqKRN18WtndZsNtw7fItFCyQlXZ34dCBMxg//Rs0bV4thta0s+CaX/acQJsWH6JerQoQ5GgYZD+YrQJuP3iMKXO+w/49ezB+Un/UqFQUqUICaK8RRIOMtu1HoHevjsifJxOuXr+NpcvXY9qEfkwhjhy1GlMndUbaNH4xiuLFiXsv+VdZOlf9CG5P+pEUs2CkxdwPQRYJNqOD+T0dohmCWYJZktDxk2lYOK0vgjIYEWgn+p8yXMoItUZi8/YDWP/VEfz29zkc27ccmVKZ8DTUjDYdxmLtyonIlikYYREWhEbbUPPDAdix8zOYJCOMInkTbPh+53HcuHYDfTs3QcZ0wRAl2klhgRHGmMWX4AsFpyn7x9kOyOfJb2M3/fTkQ5uX3zXQJL+3srWOw6uRY5bj/uNIyKIffj10DL16Nma0aZ16/bB+3Ry8XS4XA2AGo4TW3YZj4pg+mLt4O249fIqChXIhdYA/Gn9Unm0VzZ0zKxw2yqpHbp+YNsYsFjx5jt6Y632npp5dx+nIEBw2WGwCHj4NfR4EFh4eicrVu+Ds72vhiJE12pKZLv0bMBgEzPzfRgQHpMWnLT5ElNWKOi36YXCvToDFCqs1CtVrVUSQyR+zFm/Bo2grJCkYW7fsRfWq5ZEmlR02i4xq7xTCO5VLwRJhxdOocOTIkBZVa3bGZxMGonjZQpAcArr3Ho/JkwYhQ3p/tkVOEkxw0Moh2ljeASWQ10kwK7FjMS4hB9t2LKLLJ70xYsQQ5MqVAxJja0Q8C41A/8GjsOyLOSwOCXYrA2qzP9+OMiXzwxppRfmKRfH5/77DB1VK4WFoFGYv+gYrvxyPAEHGw4ePkSdPNrTvPBXps6ZngZaRDx+heYuaeL96SQa4yJVy7vw1fLtpF8aP6cFinR4+DsPceQsxacKwGDaEdmtY2VZrJVDY+xgkkpqjpy5i+YbD+PHHg3ivckEsmNEfK77ZicVLN2HPDwuQPUMAs+IJ8F279QgtO4/D6mWT8GauYERYJLxfuw/2bJ8DP6OdsaOi5I8x01fi4rWbaFS7OprXq4w7t56iebsh+HXvl7BbbPAXRSz9Zi/2HzgNPz8BUQQDLM+QM2sh1K5eClNmLkTDeu+iZ6embPfHr3uPIleu3MiTNyPuPQllu1fu3AtD/0HT8dMPc5T3suEJB2Ta7v0yS+RuHrwciOuJRvTdPYLZbI6dhtIBAFq/p1Nhj8WOAj2woccmxAdA8LVLwd3wuU7NLDI/O9vfTy4GwYhxk+fCFBiEWrVqYtioOZBMDgSnCmFuCGs0pT+NwJzPhiJXlow4duRPfNJ3LoqXKQoH5TlgvnoDLly6iUkDm+KD96vAYbdh8uQlOH32FjJmzYDefZuiQM4s+OrbPfhm3R4YBBHdP6mHRvUrYPqMNTh59jbbN85yNFgFSAE22PEUf59+hF9+moc0tMVMJWXUn7RnXU2Jx4VZoNwNdrsBFtGAYLsNVpEiiQ3MpWu0yYi0iejaYxwWfDYQIZlSw2hlAddwOIBrD5/ii7WbMaJbSwyZthJHjpxFoMGBaLOAd6oWwdwJnyq+ZVhhdxhRvnxbHDvyFQxGGUZSSnceYtTEz1G8RAEM6tVS2TDI8kIIyn5oxc0f4+5/ARB422N2trsTCafX9UC5R4U9j1JkUB420F5zEVEWO4aPnYNnkSHIlcmEA6dv4Lv/jUejlr1QpkwhTB3RAys37sTX3+5Dm5Y1cXDfr5g2cSg+HTgT9x88QL48GUBRLfNmTICf0cAsJSViX3mPsn9W+dudYlTLhKfyQbkqzpy9ionTlgBCCNvBIgqBkMRUiBRuQ5ACIFmj4bCYsWTOQLZjY8YX65AmIBiftquHSIsZtVt0xN7v18DmoHEUYRGt+H79Tly5dhuQ/Bi43LHjFN6ukg9BqQj8GhD+zIp+XZozt51NFGE0iOjQayKuXHyMkAwmOKKVRea7jZ/DKNlhZOkHJRZESyCK5MAlQGBHMnMQTXkmBAZubIS/qJ4U6yGSe0ViORisDmWOmSTisCiwUWJBe6JIAMqAKTPWoXnjajj85wl0aFqbAWrRZoMoUs4AM0SDP9Zt3oMc+TKjSskisDqiIco2iLTA0bZfWCCKQhBCBwAAIABJREFU/iwYl3KoEACgXCFWSi0hKtlBaNypb5y5TdzJaWRUNFas3owf91/ApHFdYQ+3Yfr8b5A3TxbU+rAKBg2dimULR6Bo8dxYu2kPZs/+CvPnDUOlUgVw+sIDDBs8FZUqlMCYkV0hSVGQ4AebXUDnXlNQvFgxDO5ZHxabHVdvP0Pzdv3x2/4v4c/aI2LOinXwFwPQqVVtGPz9cPyvS1i5divaN66JKhWKMUeZ7KD4GpEFPNPcoX4jpnHr1l+xcftPLP/Cyi/GgVQd2zUuRLFsDApAcB6DoDc3uM50DZDd9ahn119a7+ICENSv06YWfq4AdcCAp5PdpQXELYGY7HDq9+l1YlzfGd/Mgbr+HAzpZ11UBIslSJLZFIRkEJnPnwQxQFLUr9kus6RGLO0qEVvkD7A7EG1RvMCBMbvvjAYl6Yci8BTbIMJKB92IMsKiaUuODakCAnHvbiiy5kgLA91DcQ802WBlPn0lCI2fD88TA8m4cT0aWTKbIFEErxRDM8c0NPa5IHSkgqV8BcIFEaZIG4yBEqJtVuw7dAofvVOOtS882oxAo4HRvCYWQMhtZ5riAmS7jAdREQgJ8EegUQmqooQ70XYzbl4PYxZexqyZcOXf60xBBRAIkC2w2Ew4d+UJMmZJC39KmEM5IuiUPUFEkMGAABMPR3px3C5T8zH6IbYAQS3jsbHOFGqDBImNPMvrQAsWJYWJtloQYjLi4ZNwHDh8Fg3rVmYqLTzCgiB/I5MLk9EAc6QFwcEBOHP2H0Y9k8lqM5thlx0wGkwwGUQlUdLzOAwlyI4DBk8Aglfzltw6lHvBQJF0fDFl8Cxmm6WAf67eQe6sGRgLApsV9x+H4mmkFTkypUGAyYRoO3D2ym2UeDMzIs0O3Lh1G7nyZsW/1x4gyOCHzJnSKAwRSQ2Bj5jkRST9tBAbRBFRDhmS3YG/L91CvhzZ4B9kgGgTYJcASaQ62pm80VZFkW03UnYxuAIITGRUulQBC3JMIiiRXaOEZywQzkHWuzLfKSEasSa0tZdtr2M5TICPu8zAvBkDsHLDj8ifOSNaNKwIOmqBUijz8xymL1yHosXzom618oqsUIoHgdwiAgQpGoLkgMNK1D0xIMqZMwoYiNFRLDM07V6JHTtoszrw+GkYMmZIDZtshiPagHDYWY6OQIMBZpsNfgYDrtx+gvP/3MCHVYuy+om2KNgkP5jNdgQFGBFtl3Hu1N8ICvBHgYLZWfI3GjuHLZrJbKTNhPCISKQPCYBJkvD7X/+iYJHc8IvJUkGzmnJphT+NQoDRD4ZA0pWk06h+dty4extGKRAF8mWAJBvx8P4TRMl2ZM6Ynm29JpaBETxsG7afsrNDlRfGk3mgXhM8W+ZjdxfXK/Q+lvbaG4Cg5zPiBal9JlyQfeliUJfJJwvvWDWTEB8MgjfUbeyG5b9PaWnV5wCC+dqJRVByB7LdDywsljLbyZDIr0m5AJgCUzLDkUKmbbdrN+7EsPFLUKFiKYRHP8XVf+6gVYOGOHXpL1jNTxFgSofli0bC398IURLRq9901PrgbVSuXAGt2w7Gyq9moGHTj3Ho1w0w2+3wY2XbYxSmkhmOstbZZAsEifK+Uya7aJgoHwACVBaQEqzEQYJ2B4cnKJn7pKkX/r58F917j0Kx8qUQ4nDg5sMHsMl2nDnzAOVLvAkJZowd2wuBJgkf1umAcWOG4ouv1iLIYMLTMAvGT+iHd8oXwpDx8/Fu1Sqo+W5p3L4fgWeRdrbv/P4NM1at/AYjRnYmHoFZC3mzBcFPECkkEfVbDUSZMu+yoDgDKSbBgWehTxAkWTFtXEfGrJAl67DznRwvb/vyVGa0/RJn0EqrCGX2I5Ag+6F//1moWbs6zl64gIv/XoXBmgbbDhxBg5qlYLU+RdlyxdCpeWPcfRKK7zbtRWhUNBwBErZvO4gcWbKgZOncMFjsqFapNCpWKg5S8CrnClsonmdecLJo8DnN57F23rvrK1q4GVQlmRMsTD6JSXOIgfAXgfIf9sWezdNhCvYHkb2jZnyLam+VxgdvF2BJJel9o6bMxd59J3Hrxm2MGtoLrdrUw1vv9EDd2uWQK3Mm5MyeCTVrlcGyFVvx9dptiIiKRvr0aWFzPECbZm3xVpUKyJElA5q0GIjlS0YjXUYTRJsxJi5LiU1hCxlZ9Ww55Ts9XuyH12vnc4DA1l9yo4mM7VP6TDnZkSVcou8pkyUxeg4BBpMBOQvXxFsVq8FheASDHIgTf95BgaKZYDKGICRYxJxp/XDzxnX0+HQgpMCMiHQYcOr0Nch2E0oXzwp/gw0OiwUL5gxB4YIFGXMgSpFKqmcHgX8FDChzWXErEKjmLh1346Z/ndhPAiOCMndiWtm2xxRUe7s8ylcohmUrv8XdB2E4cfA0GtR6H34Z/DBqcHuEUHCJgean0jMfNBmPKWPaonxJ2lHC3WqUTNOm7GgRKCA1GGvW7sGIiSswf+Eo1K1WmMXoOGx2llz26u1wOOQARFkjkDdrIFIFBuDUhevYvmsv7t2NQM9ujZA7WwYmd3QfmV2KmPOsqzEJw9gsiH1GUTong4MxT3e/uet/tW5Rn4cRJ4DAFZQaHGgromcBeGUVuGuZiqpUKxdP6uFB0bHynXlSrqf3UF+pg1QYZcutv5jtMjzRigLylUCmGPNQydseg+iJ7vu42xTMnj4Al27fwXebfkKD96vg6Pl/0aNVDbxVvw8ObJmPAEMA7j8Nx6fdp+Pbb8cgWjaiSeu+2LxmFv48dgZF8udHmvQhzMcowQbR5qdQ6KKS1pS2XpKfVAm7IouJKqrkkFd/1IFnWjrZVUwCXzyY3LEE0hIatRwPh7+E71ePRp/B82GTBRz9/QrerZgPIcESpoz+hI1ldKQFNx6Fo3PPkRg/vDdOnbuN0iWK4Yv505Arf1FUq14JNasWR8du41CrVg28kTEVU4L+/jKu/fuIxXZ8seA79Pq0DiqXLQ2rKKNB6+F476PaMFG6aTqFThARER6FqEf3MW10R+aTpRTYFAn/4pwH7m/2LsOkGuHHlrrl1iBTXMxVRWliRRw/eQaHDp9A42ZNcezsE0RFmzFtxmJMHj8MsD9GlXLZkSFVAE6cu4XFyzZj0uiOWPi/71D7oxrIlj4Yo6auwbABbZE9rQnBAQYFwNIpgMyqVIIUabyeS6cOSNACBE/nyXMAzaxskgvaIaBY9bQj5+bdJ5g9fxMu3b6LymVyokKFEjh2/DQ2bj+Ej96tCqP4BKVKFkGTuu/DZrPjWWgkGrUfib0/zEfXnjORt3BJ1GlQDssXbUb1t/OhXp232NJz9cYDtGg5FFu2Lcb33+9Dr061UfX9zti8aR7adxmBZYvHIX36N2CkQ4/IgnTIMBiMjMrnhs6LiHYvAAJz3aj9djExLuqMpTEJqgxGA0q83QHbN86AIzAAGYMC0LPXAgwY0ByXrl6FJfIxmtSrC5udwAVFDwET52zCvkNnIVv9MXJQY9Somp/FklDgp8TcI/5KUjLGfvDtjDFah2IOWLwJZ6m8HcWYcsh9Qvu0JLLhKRBRcanQbouf9x/FI7MJD+7eReO61SFTwgsB6NxrGLaungXBbMPAobMRmM6Es5eeIiLKgqKF8sAIC0ySnQU2pkuTBuNHdIbdboPdaMBXGw5gw9rvsOHr6ejebxIqVaqI7h3qwCA6EGkz48DRP7Fk+S7Uer8SShTKjdlzliLK5ofrt++gSJE8CDBaMX/aSMYaigKdXUHwRElARf9k2T9m9wIZeS8+7hgErc4kHUAgwRNDytue5+cIPTe0vWEQtBXVpm91iXpVF30NEKhod0FusXknZybcle3tIHh7vzrjomKBKVBA0Q8xdN5zdUFXFYaBhJIx6YyNFOEwiKjZbhQKZE+PRxFPkTldOnRtUQ9frN2EmaP7oXWPWfh60UD4GyT0GDkfly/exK5N03H9fgRadBiED997D1evXsGjmw+waf1UmIi5cJhAxzGQRWMgP7ZsZCqZZYljeRYozamylU4duaseM84keDNGdC9ZYnSExOiJi9GiXTN07TUHI/q2xu9nLzMlsmX7YbRq/B7s1mjUrv4mnj55gs2b92LEmP7o0OczBMkRqFW/DkqUKI4ln89ClpxF8ME7FVGnWgH8c+UeNu/4E4ePHceUyf1w8MBBpEkTjMWfb0SHNm3RuH4ZhD6OxNfrtiJMTsfy8RsQwRbDKLsdRoM//B0OpA95hk4d2zPqkvL5K7IUM0aMNo4dQIiVW0EteIz9oTMLaOSMCIuIxOPQMKQKCcb+I6exZ/8f6NS6NroOWYT1iwZj1KRlmDqhJ3JlDMIfFx5g/optSAUr9h87h2L5CyDQT8RPf5xC5fKF0bRmKTSp+wEsZjOMRqPiunq+i8G1Ynx5ofdypjDATHCAzlAwKYG8DgfsBis7q6Rn/zlo2bIl/j7zB2q9VxH7/jiPJat34ZO2H7JDiAIDA1C/RllMmjYf96OCsePHo2jZoBg6t2+GZzYTOnSZiDaN38Xgng0ZaPzz7DX06j8bffu3R6C/BT0HfIk503ti8ZKtWLd6GDp2GoqVi8chY5p0lL0ANol8/BILYmNLH7l1VLLgqu3MUcLPZnjeLWQsKH8wV9VzwMVtZEVHSEYj8ldshs5tm+LX3//Cx82q4e9zj1C8ZG58ueJrfD59OPJkzcIOcLLDimcRNtRvOBE16xVD7py5sGH1VqxcMRohIf4s/wKdJaAE1khsB5FDIvBLtDnFOCgHSfkkayp7jUOZW7Ql12HHues3cf7cDZQrXQib9p7E/ZvXUb5MXjJT6IAQBiQa1ajI4qooH0q0ORr1mozEuq8nYPGSdXi/WiW8/VbR53GzNrMNB46dxeCJXyJd2kyYNK41/CWRuWjnr/oZ+3/dg3YNa2Bgr1ZIGxKEYRNWo1vnBkibPgh/nriMgDcCsGXbHozs/zFOnb2K4gVzwU+KMcro3AcH7eAiIE6Hv/i/cCc9jydxH4ujBxBIj6hPLvVyprx0O5crOr1Tu4vGKwZBXSoVpl04PWULvFkIXDVcj350tph7+051BjpPAEhcBshdG7mrhjEJ7IAXUgeKb1UBCwQIuAURc0CQ4oRkvi7lHokdFduy2xQM7t0J1+/fw4Ejv2HCgI6o3XYk+nZpigdPw9C9zYfYtHUflm48iKDgEHxUMR/u3wrHL78fRbcu7VGlVFakfSMdAkxkOdBhTmRJUI545S2UzZAdQCMbWKISUtS0zU2971evP2l8tKfxOeuXl1xY1ErJhMdPwlCwWEsc27cYX6zZypIn2Q2ULM+CjBkyo2vLD5DmjRD88utx5ClcCN36zEA6v0hU/bAOipUohlWfz0GW7KVRo1o5fFA9Ny5duo/LV66hWPHCGDR4FiKeShg3vg3y5s2Ko8fP4aP3y8NqjsKde48xf9UvsDn8IDqsCA2NROq0qeCwmpE9Yxq0blwBGbNmYe6HFxYf/cYPPvIcIHCLIc7gQMFzSuSIaGUHG/119jL+t+oHpE6TDm9VLYU5C7YhY8Z0+OnQEbRtWhtHjxzBmhXjkSV9ME78dQMbNv+IsYO6oM+4lciXJwuypDHg81W7sXXDVKQyOlgAHe3bZ6cMxqRBfslscgHqufUS63nHQBfJoYXNC7tkwN3HUShdthPadKmLM6dPo2erurjyKAx/X7iDXm3egYXy5xtFlCqej7kCJs/bjq07j2POhNb4Zu1e3HgYin+u3cCmVSOQJ2cGSDYBp85fwW+nzuDM+asIkALQsPF7ePzgEWbPXYON30zDxx3HYvnnI5A+Ax0OZGIHXNECygISY2I/lJzcBBjIAibXYAzLEhNjwOMnaKFUBymyWc9tBAJFbPoRa8Ij5JU4BHrOZDCidOWmOLRnDWYt3YZSRbPDzz8EvQYuQrt272HYp42ZFU1jRWmTq9f8FOvWTcHajT+gSNFCSGVKhaVL1mPBnP5MJgR2YhLVlbZa00uIDZHZQW2KbuLRFLwxCoRRttQqHJISQcH1l36MAssaSTwk7VKykcEh4PLda1i2di+K5smGkyeuYt/vF5C/RCHYo6MRevcB8ubLhRaNK6JyxSJ4EhqJ+s2HI8oqoGTZPDh94jyyZcqJdOmNCH0aiq8WjEJgiIAvV29EsZIVceb3Cwg0RmHmkq3o2LYOAlMZUbzgmwi78wTVPqiIuUs3YP32cyicPw1mTumCbp1GYeTYQRg3ZgXq1i2Ky+evY/rkfjAaKD6J9G0kZEeqGFBAskixMcQqUDe9fBaDVtc5W8fUbnvOwKoDvmOzDvEwAf7sS+/whkFgVhsd6kHBCxp60NkC7CloiE3DXD3jaf14GWq6xicK2NcNiimPBSDF7IdWAhEoq6IyJYnSZweXMOFTJp3AFgBaCYxsAtdtPwk1a1TAg0ehiIx4jM9GdsWHLcfj0dNwbP96FLKkDcDdR1F48DQcI+d8hR+WjGDlr9tyBCfOX8W0oS0gRllBIcu0a4D62UQno5FLgQKwYtgK5fUxW+mYRfHfzTJqOpkLJQk7D850x9woYybij7+uYOzEVUibMwvmj26LSvWHYGj3FgygRIYbsHvvUWz7ZgwDTOcv3cMPu0/h5wM/4/HdO+jZtStyFyiE5cvmIEu2kvigWgW8+3YuPLwbjq82/ozTZ6+jX89GeCPdG1i4+HvcufUEDRuWQLVKpZA9YybQJuHqjXqjSvkqbLvploPH0bRONUQ+eoQnEZFYu3CAsmOD7TyJcbOwrQ3uAYJaJvncU8fbxEnEKOqdnUpHueBIdhw4fvw8s5pHjerAqPMOXT5DVKABJXP6o3+vziiRPwdFZ2Hv0fPM6ipbLDOOnLiDBxFPWQbFIDkI9RuVR6Vy+SGSz1ikRYH80Iq+IEuKFD5tldS2w1sA77TtbBsphZ0qDAnLqgjy9Rtx8eINRNskrNj4M0b2rI9fD57B3mOXkC1zEI4cPo2Rg9qjSvmCOPvPbfQaugiCGIDUIdEY2PsT7N61HzefPEbuPFmxa/vvWLd0OJ6E38euPYdw7NRDBNuAIsUzo2mzmvi463h8v3oaWncch2VfDEOmDCEIIIBgUi+EPGg1xunCgL8Fdlp4HX5srzydIaEEIvoxIGewKm4bOpGSpMdA4SOUGIwCBhlPR7sKaAu08jcFxFE+jquPIzG4/wTMmTIQA0Z/gYG9m+PatVsYNmIVftwxC08iw/Bmxjdw5+EzdOg1CYMG9cOePdtx6uJ1pA7OiII5s6B40TxY/81mzJg6BKVL5mbTm1Kxi+yQKWISKFckYI0hyIxUDRYLQqegKhImOSRYJUq1LbIkUZRdUBknZ8mhYoAFpS8nA0g2wCoK+G7Hbzh59l+cOHkc/obsSJMuLcKir+Pq5QeoULYSPm5aDflyBaBm0wHoP6wPTuw7h+kTWmHM5MX44L2qqFCuBLr3noovZg9BYDCdx+HAjdt3GYtGIKZ9z+mYMbEH0qUNYbtNCuSn9tph/T975wFeVbW04XeXU9KA0EF6FRAURIQriIKKomLFrvzYUbFXbOi1Xrui2EUFFe+1I9iwIIIFQQWk914SElJO2+V/Zq1zIERKAglgOT48QrLPLmuvNeubb76Z8Q1uHzqScwb2pVWzWjgRh179higHpW2bqrz00LWq66QldWSUOFOnnupPyeDalrO3vCGGkt9OhaDFxmwv1F/6OyXBQCqsoO4yKf7f5IRFo1FluVMGems3WzLuua2mRHsbQCjtfZTFAJU0WjvanHbJOO/0l3VlOF8KbQgaV5tOKl0wtQmnEL0Lpoi0xIMT2l8UxhYnXnIPA888jhm/z+a9j7/kjivPZdL0FXzy2QS++/hJgraUorVYuXIj1/77ed4fPkRtcGs3FNHv7Gv5+pOX1GYQCBg4YsCkPapiMLRQcstx09TyZlp96wuj9Ea4owyHLY+H1//7MUcf2ZPLb32JFx+4iO6n3cF15/dVrSqk896X307no1dvIe56XDDofm66YSB5eFxz2X1cf9kZ9DnuEO574ClcM4vePQ6mdaNaDB/2FlX3acG0mTPocXBrPGkfHLR55tn/ct1VZ1KrSojj+vyLmGcx9JE3qZ5ZlUg0yn8/n8yA03rhFkp/h0yuv+AoFS/U4m55X2LIN28UZc1iqOi5qWsyaI/ON4pV29wfpyzg089+4uBubXj8ubd44t4bGXD1Q3z08u0MHPwod9x8Lgcf0IzX3hyPY6XTvX093n7ne5yMDLof3JShdw5n1Cv3sU/d6qo0sfRFULHoJGBVVKtMGNnAk9lHZVmXZV0uyt80JdYr5WyTGo+kTHLO/BU8/uQLxP00Zq/K58aBfWlUvyZt2jZn+Avvk2amMfjSfqo98GVX38Pgay9h8LV38umHz/PG/z5X6XFLl6+mYe16rM9dy61XnEFeQREr1q7lf19OIeQFOf6I/WnYoB5nnT+UES/cwXkX3Mnzw26hXp3qqty4Rs+bPyWf3VCVdDx8S+oWSEMwmSdaQCrFdRzDwnIFEMeJWkphQci1cKUxmOVj++KhBvX3hPZPhjBEgDfw2gc46sjexPI3MmPxaooLI0p02Pvwf/H48BH4XnX+fcOZNG9WnQ0bo7Rs2kj59nc9PIK2bVpz0jEHEghY5OYUqh4LaUEBvKJbEUpanEZJoxTfxMFLZlKoCopJZ0EKlxky91VrerFFwn6I46L/XXI9bDE+KZY06fT4XoC44fPBmO/5fMI0zjzrcF568RMOPrgDOQWr+W7ir/TueTg9D96Xzh0asi53IwUJn+efGsN/7j+XW+99hp6HdaNHlwMZeMn9PP/k1YTCup39V998z6JlOQSCVXnwiRFcfP6pVMsIYPkuZ59xlEoEloyvm24dTusOTdivdWMefvQNjjvtBOYumMOy+evod0RXlfqt2DmFB7bOjJSez7sCEFLnEptZXiahJHOwLYdaVVJMUXrb2xRTeoPyUvh7ikEoiZBSyGh7hkaea5dEX2W1Yrt0nMw8bWBVtEF5CzrdURW9UUZRTIMOQyilrGL9tKr4tbfH8OYnkzjusB6E0zP4YeYMjjikC08/N5Kz+5/M119O5P6hg6hbpxqrVuZw/dDneOf5W6WzDa5p8+Z7nzPm4wmccPzxrFq+iCuvPFr4fSBDb36qYppUCRNtv3YlBHnrWgCbuxqWfjelhyQ1Z2Rj3dpnyzllYNk2K1bncNRJg5ny1St07nMNVwzsi2EFydlYzKQfZvDJyNv5YNzX/O/9Sbzw1I0MvOZhLh54Bv8Zei+X3XAZvf7VniF3DufIPj3oc2hHldb0wZdT+fTTyZx7+mEqnUyKsQwa/ADfff084aAYbIN5y9Yy4p3PSLNt1Ur7nc++57xTDsWLu0g+1FXnH0tausqL0jrNZBaZAuSp2PF25kRqI61owKp1IinFf5RY1OK5Fz/n/XGfcNRRvTjq8C7Uq5XOXY+9yX9uG6DS5Io2RmhSrwZnnH8Td9wxmHZNGpKTW8C5lw4jP76RKy89mWMPb08oICI8S+XFe9LwKNm5Tl1zk1dVNuNZ3uWiwGNqyxGJjCjUMYhGHdavX0fMD/LuR5O49cqTGf32F7zzwQQcz+TV128lLKywJ6WvgkQLI5xy6rV8+smzFEWjrMuJcPd9bxIMuvzngYuoGjCY+PNCZi9YweeTfqWosIBGNcO0b9GYM886Cdc06X/mtbz54lBq166jAFMpfLBF2qIMi6TEqb4MsvmqIlvyQ9lYZd7YmH5UtYl2VUzbRECFb4m3GpC+U8mMFPlVQKWX6j4YQUaO/phTTjmajJDJb7MWM2f2Ck7q1x3Pcvnxh9l8NmkKN11+LhmGreL9AWEdsfjoswnUq1+XTh1akXAFqGhAYBPRjeIIYEhupKx5L64yqHQupNyvlIROhhLUM0g3SikKlaqbJeBAHBhhRbbFIMgKkdCcztwS4CQpuNfc+CgFUZ+j+3Zl2dJCeh2+P8WxIjbkxZk8cSZn9T+EDq0bqiyOucuWMGrEWO4cOoib7xlGj+7dGPPBR+QX+Ix69g6VZRFLOArc6wUKfftfwytP306tWtlq7IOBIBkZYR578lXmL1zPob27EhR2zISGzerx/rvjuema87ni0tu5847LaNqsrrr2toBPZQAEOWdZQELJMOXWmiCm7m0Tg+B5np9Km9gWi5BCGlvEJvbyEENZDEtJZqTCqNuyXHgXjknF7XRVNWlMJD+RFSkKI5m0MSkXpiv3ySQ1izGlHoInJZQNVRNc0rumT5/Da++PJyOQxZAbz1MTfvT7E2jbah/a7NuU1Ws28O9HhvHcw0PUond9yd+F98ZN4KnhI3nuibtp01S6QUoZUWmhKLZMp245xJRIUQyCIS3oFEjYsmFLaYZna4tGJvy21LqpuSipVPkFEc467wauu/5ijujRkXMG3c0Lj91CWjjI0AeGUSW7EVdddDQzZs2nWtWaSBvZV17/kPvuGczGnCImT51FdobJsGff4r4HbqRh7WyVyvjZtz/y0bhvOezQA3RTZC/Aa69/xMjXRaBpEDItnnz2ZVw7C1tEUcK05G2kbo0qmJ4rbeGpkgZnn3VGkj3QhOOmrTGp6i+5KEuHXSor3KWZC13QSf42a9Zyxnw2mQEXnMgnYyfy68+/sX5DLoW2g1+QjhvPp17ddO6//zZGjBzLwZ3aMvrtjzBtkwM7daJm7epMnDyZ1cuWE7QNhj12F66imVMsgoLpGKoo0NY3hF1YFvqrsjfJ3qlaKieRmNLrSk0QR9UJWL5uHe+MmcyV/3eyIuEjCZdHn3uVRk3rcO7xfXVvE8MmWhTnnvue5fahV3LGuZdTt0Er+p/Qm8O776/TEhMmX/w0neXz17Bv65Y0aVaPKtVDBBPC3Hn0/78baNywEQ/fMxjLFsFkqhXT1hkEdfsSazdkw3JZunyVWtNqnqvNXtIKDapVy6RaVQGcUmQgwJTfZjNxws8MOPt4LMugsKCI10d+zCUe9n8vAAAgAElEQVSXnInnxamSlUV6yCbmSetx8fwtZs9fSiLhiKZPdWYNBQO0aNoIy/Fx0gzi0Tj/G/0lZ53dF1PsiSMFnYQxSFXGlNx+KQJmk1sc5b7HhnP/rVept6rbpgk7oFlOtYsm6fXCgmKGPT2CW26+XLkxynkoEYsvbRNSQclNlUR8g6XLVvLzr7M49rjejBo9hh9+mEVeTh4xJx9HCk9hs9++Dbj3zmtU7QlHBKryoIbP/Y+N4NCunel6UHvFePgqRdTk24k/MXbcF1iBdAW2okpkLLUPXCIbi/lX1/05vf8xxCIu4XTp1KqbgDmOxznnXc/5/3c2fY44ENNI4HvB5KoSWPrHsOrW5nhFMAipvaw0SCjJtqauLcAgVbei5Jhvoe1KCWKFPpBflIz9ljRYqZOlvPA/G4OwLQ809RyV5aHtsrHbxgmUf7SpVK+vqr3l5RUzZeqv9OjRlXDQ5Mmn36RZy2Z0PKC1SviSYiLZVbIwrAQJw8R2xJu1eferH3ESxZzSpycBARqitJcKaarLYQjDsnDdGIuX5vDDtIWceeK/iJkeIWxiboyQ0JvixUhYwnBZs6KQ/707liuvOg9JgRdjLboHCYMItV4W5Jw6JvV+BCCULBhVcsKnVLdKlyHpWaLMj/uYQQ/flQLSkoZlKgGlTjXUXTB9VfdUqsZI7FSsWlxVRRSjFpM0LsdS3pBngyO6G+FnlCGT4iiiHk4ogZgpIRYrTYGx5Pan/r+Z3NZbsBpOYXpU0SCNCrRIa9ti74oOKfxxOomQSmpn6AwT0SC4ho+02B1y+4s89tCVZAaSpZgN+OjTb+nUZX/qZQVJJCQ0YXDFbcN54K6LSA9YLFuxnllz1rNg8TKWzp/FIw9et2lz00r75BNvEZet6FUiFxKEoN6UmsPvfvgZderW5ZAuHVi5toBRIz9jyPWn4HsxZC8XluP1t79mXb6HlXDwg0Lxm7gJg1bNa3P80V10Fk4ye37MR7/SrkN9Gu1Tk6ff/pALTzmGTN9W2oEYFkH1sCJ4lA3U4JEnRnDOaceTXTuDkCnQfOsAQQUKZf5K2eK8XJ595V3mL15Pfu5GunXZl4Qb4NXXPmD4MzdyeNcDFbswa+Eyrrj6MVXVs0p2Fh32b0FxYZQFC1axZPEKDj6oOVcNHsgzT7zEmohJRiCdIw7tzKPPPsdJx/fjjf9+wMXnnsDI195j/HvPk1UtxLpInIFX3EWanUGdGlL4Z6PkJimAL6vj2sHn0Gifenz6+WTGfjmRgmgWEydN5Zij2uJEbPodeQjHHnOASveVURv57gS++vZHMrOq4HoWP3w3hR49DiLqGxTnLec/d1xBnVo1Ng3KH/eXVG6sZk8dCcVsqiKr5M8aGMph8ie1sQmYkU1cUi43MRsyvh5+wsWX0tYy98V5sqX7a/IW1OV0dojcizC1Yr8EbOGH8SQzQaClq3UXqhiYMDuJMIYpvT9SoKjsc7siAEJqo09FA1IZDqXPvTW9wbb2SHVOYRBS3lhJkCBIRFKU5ISlhQvbO2Hp3+3pEMP2AMKfDRxoG6LVwBLPk1ksm2I05jLsmRGsy8mn77F9GHLbE1TNrkX1mmksWbiI3j27cdvNFynEXBSNbCpqMm7CNNau3sCA/ocnMyZ9QumSygSTf5xOsSPRT4+5S3L47NvpXHHeYThuAN+N065tU+rWrsXvM1Yw9pMvuO6mc1kwZzlPPTOKYU/erGqz33Lz/bz43P2b0zJLvYzt0eYlfydzKJEQw70ZkQeDkl+c/HgeCTOC5YUU7eraMUw3TTEnri1eawI/HkKVkhOqV05jxXAciT/qlDPhXCQtSkRQOHFET+aZkrjpYZk+bkx6EIjpkJ+prQDfkRx/eQ9apKk8Pt35KJn7LL+TeLLUsnDVZrRZiV5SvPTHWVpZzEHqStLkS7UMF4QkpamJKDHc3Q++zszZK7DSLR69+1LWrllBo+bNeP6lD+l7ci/2r1+Liy4ZyrJ1HhtixaRbFv86oBFpoWwat2jJ0X1aE7bDpKfJ2MrVxPvVAEFtnanxL7v9LNeRvoA+E777cSaz569g7fpi5s1dxiHdOzB69Acc3O1gGjauTat9anJE9/Yq/nziuTdz000X0axGDSKWj28bLJq3kREvv8krL9yoqHoRWkbiCY476SZGvXw7dWvVoPdptzD27Xuw4z7fzphB705tldI+YEisXPfiOOaU6xn28HU0bVYLU2UrbAMgqBoJmmVQNUQMm1HvjSdgBjjjxJ7MXryS6296mg/fuBfTk9Cbz833DKffCX0Unb1kaS7vfvgRp5xyDL277ceIkeO48LxjqZaVqTz/q+58njNOP5Z9G9Xk7Mvu5IpBZ/Pwk+8x9MbTuPv+l3lnxD0U5OVz3uD7SKtSn6bN62OZQQKuBoPrVq3iqkuO4qBOrYV2IOG7RByT514dS0Z6Fc449VAm/7SYhbNnccXFxxMpLiY9PcTt971MpwNasX/7ttw49HlefvwqciMJLhn8BKOfv56sjDRdUClZhXFLm6DXuwZnwjm4+I6NKepMz8NTVVyFhdDoQOaWhJQE0En5Z2nWlJDS0wJWfIO44aiAhoBiVxWn0pldOg1Xj7vKtFA8iGQbCKAXXYc095JvBjDMSDKFVp9D9cUQm6zYC83vaq1N2VM9KxogpGZYSZuZigKUtis70g5uAgjqRZRgEgQclPSydyQm2tGFtrUwyrX6K/DgkpqDrdEwFXipCj2VqvOfROcylR0pFGcIve3x5cSfqFmjGgd2aEOfU2/irHNOpk3zGjRpmE21KuksnLeam+56HiOYTlGhwTeTf8dwCzjxmJ7E/CK8wjzuvf8aWjaqyY9T5xBNyMbpM3/JSj6dNIPB5x2Nm/Bw4xHadWhBzZrZzJixjo8//pxbhvwfi+Yu55GnRvHckzerLIlLB93Ku28/mQx9/HEYdhRXL0m3yzsSNkF+JsxB6qMocmFOlYOqN2tP2AojjunZKqQiQMFKuDiq1HKUkJuOI+VyDZ+AH8fxLYKeeIFx4lJTXpa31KNVfHVSiewKVNLd2AxLDLSon1OaAgEIGjzoAmkpfkBTmHp+JVXratNMgggBeslE9tT6KbmAdzQ+uzKxpJZ+6hlUG1oHhr/wMfMWrueBf5/H8rV5nD/wPg7o3ILBV/Rn3Hvj6XNCH7WxFjk+t9z7DA/ccSkDLriVt165nweeeJNOB3bk0E6NlUlPT5NKclKjXkCsQmRqHBRA2JUb3953FWbWKcAFUWmuJayIyeTvZ/Lrb79y2aVnKtWF4STICoVJz7KxjRAnXngXVevWp26aietIkS+pWWHS9cDWHNurI1kZuujukHtfY03uSl565BbRX3LkGTfywVv3M+yx//LL8qW89cSNuFJaV1LyBJhi0Of02/jP0Eto2rCmunMBTekZaSm4pCudqk0pmXqqRIlCvQXVWm3bqhnnnNaL086/k/yojR9zGPv2EKxAiP27nU+HzgeQFk5XzxkOpRGLFyvNUJAA/3tzBHkrvlWpuLc+MpIT+/Wlc+uaXDD4Xq6+ciAPPP4G9948gJvuf5m3XxpKjXSfiGdz/sUPUHOfuqoSq2k4OLbNtO+ncdf1Z9CnV1d8x1CK/5fe/oIxY77k4/8+wvyli1mfG+Cn73+jd49WDHv2RV59/mFuufe/ZGQFmPrrbKb8uoBjeh2oyr1/OWEGhx1Un3tv/T8aNqi7eT1vEbrWTJ/WL8n6UYXlFWDTa0r3OtGMnFRuFSohmQou42pK63cPy5BNPYS7CcBLbYW46kgroScF8DeVpRcUL4yjaEbEbRAHQxgEydiSpSv6i4BOYxTWzYrhuiFsAQrSDU/pQ8Q+6IBLWT4VCRBK77OpEG3JSEBqr9/evreJiVHxheRna5t8SSO93bW5jQZMeyODsPeLEbc10uJZ6NRGSRlStQ8MVMnbS66+j5NPOJ4Obevz73tfoluPbixetJQFc+cxcEB/enbfl8x0A8sQmtPi2ZfH892vi8nJ20D/4w5kYP/D1UVdCZwbEWIJk59/W4Ib9Jk3fzlffDqRwYNPI2xk0aldQ1UBwfCLmf77Rq6+/t+02rcBucUJfp87n14dO1JUnGBp7iI+G/0MtvRiUBHfLYVpO9oAtzf3SjMMO1qI25qHpRfJ9oHw5qjojq5X3t8rg5Rs9bujcSnvubd2fEpEKkBKBHG/zlzA/Y+MYt7CDYSyoxTmRXn72Xt57LU3uPmSc/nfh1/R7+QjqRm0GTD4FnJzoaBYDLBPh9ZhWrY9hCnfzmdD4XqqZ8d4adi/qVuzmqqiKUp6Sc1VAEHpZcpe+6Hcz6pi9ZBfEOM/T/8PN1CbD8Z+wVGHHUjVNNloLGLORq6/+ERqZ1dRwrQzzr+DJi0a0bJFHS2Yk/Rd02X98gKKNhYx5PYBvP/hZB4ZPoZDOjXk0XsuI+H69DxzCA1q70Pr2jX499CzMLxUPRABflJVM8BhJ95A7oYIYdVN0KVF09q89uI9quOlSBFFEyAhDVMc1gBETWmKZBLwA5w64AHy4g6vPnUZDWrXVMW7br//GV5+4TYCrs1XX08jUK0Kt971Mi1b1lWt32VXzFmfy3FHHUrLZtkcflAnRrwxjhf+9x0HHNiWC0/pznVX/ZtD+vTk3c9+4OxjezDmw/F8+N4T1MqS95PO2RfeT70W+5ARMgjIqwqEmTJpCoMvOZEevbpQkO9y6pl3cXL/ozj7zK7M/H0tjz79Gk89fBW33vMWfjzCHdf3p2Xjulx/70scfWgHDujQlmPOuJbundsSiRusyd3Aey/cWaLj76YKEJsB9KaqEOWeBeX6wp5sp6zche1UFC39IGVlXbe2p5f+7vZs3VYBws4AgO2BixRSKX3eHbER5Xq75Ty4ZGy3nF/dKw5XpUVE/SsIVhVHgl9nzuOn6SsoiBTx0ojRnHbicaSl+XjBDKKuRZWAzTknHkKNKkFFFy5esY6Lrv0Pgy4+mfXr83nwgRH8NnkUGcFiRalJl7Zix2DRkjyuv/ZpHnzwOtKz4LfpK3h/9Lu89tJNSqhjWy7L1uURyswkw4IFi1by6LOjePbBG5UjneNAzYBNWPoib2rYs3kYd7QR7uj3O5p7pdH01uZh+QBCxU+BTQsxmfZX1meumDsRwBZTNTClC+CcOct5ZeTn3Hf3QG574FnOO6kPw0e9xzXnn827H3/CsccfR9vGNZi5YAWekcbgm4fx4NALqZYZ5JV3PueEQw/h828ncdRRB3NQm6baK1NFgeSPDq8onUiJOvQV8xwl5pQvG2QB191wN044nSLPYsJ3v3DMEYfguOvwHYt0L0SVcIL7H7yFzMwMJdibs3gNS9fk0qNTC9XW+70xPzPwlINJSwvjWz7Tpi7CD1iMfP1jnnjwcqbOWcmx0p/k0evp0/0AMGJJwZ0IErWwUHJb+/W/iUcfuprmjeul3DCFj9R4JFkl3fFSNCpaTOfiMeH7mXzw0XiuHnQW511+B+P+9zS9j7uWd955gDqZAYJxHyPsMXH6es6/Yiid29RTbZ19P414cZyz+h/PScd3w0yIDN/g6tsfpv8Z/em2XyPi0RgbHLjg+ld487GBBMX7DQQISvMx16bQcWnQqi8XDboE3ELS0jKolV6FQf93JGlpEdbnxnnmlQ8gJHF3WLOygJ9++Z0+vQ8klJZBcVEhh3dpzZGHHcwVQ57nuN5dePudD0mEMkkzhcVLI7+ggOH3XEjt2lWTUr4UQEiB8K3XTqmo+VJy3aX+vqf2pX8AQqm3uidfxO41wBU1nUucRwKsQmEJ/S1iKlXVOMA7H3/L7/PWcebpvRk39ju6HNyJ6jXSuObKe3j8oetp3KgGUtNw+epczr7oZl59+WG+/2Um61cWcNIJXTms9yV8Ne456tXMwHKl26GvCpmM/ewnPv16CkNuPJ8zB97Ce6Mfo1pQBEDS+s3g7IFDuXrIxey/byMWzlvCo8Nf44VHbydheFx8zaM8eNuF1MiuqkIVZa2kl3rasr6rssynimEQKvZ9psDJngCt2gxrgCDsjoir5s9byUsjxtC9VwfuuncEH41+nHseGc51g87l7fc+4aT+x9G8bk3e/PBLcvMSjHxrDGeecSRN69fgy0m/csUFp/Pfd8ZxZK8udO7QMskcJAu4JK8n3rKKCVXSJ1W0UTb9wqjDiefcyuWXD6J1qwaKLvftAF7hRvZrlk3Eshly20MUFfosXV/EmlXrObh9Y4odl2+/+5Xeh3fEjeTy7JN3k5mexszZi3n+lQ/JL8jHDmQxa2kOX/73btJTzdJU2WoJGYiIVbdi73fadTzy4LU0b1pbU+EC7KVvgAAnS2CBoAVHUeEiZ7HcEDlFMU67+BZefOJ2mtatwfgZizjx2EsYOvQmBp/fm6B0XEyAG3SZ+MsKBl35AO3b1tdFkvygAiBN9qnOPXddrMoiS6jg6iHDcF2L/Vo14MefviduZPDdz/Po1a0lfjyf/9x7K9lV0nlj9Fhee/9r0rMb0rfvIfTv1Y5Bt73AGcf34PjD98e2JGxmUxQxOOeSIZzWvy8d2+/PE0+8xPWDT+Kaqx/mqWH30KRhNdXx8txLh3L/3VdTNSPINXc/y4AzT2L+ovXMXTyXe649UxeEUk6PTIikeHjT3EzN0YqfLCUBQklHtiy2pKLvpjIBwvbu9R8GocTolDTCfybNwZYvWKucRXUv6gAd43JwjQDvjJlIQX4x5/U/nAate/PN+NFKYPj6q+9ywfln0LBRTb7+/hduuu4xbrltEG++O45VKx0i7kZq107jpsuuZPCNd/DYfVfRq9sBOpYbSOD4Qa687TXG/Hc8r755K4d1bql+JxXaRB189oB7ufXOC2nToi7zFi/n4adf44WHblXe0aDrn+XeIWeSXS0jGWIo9TRlKCRSFpBQlkW9NwCE0kZJmb9S7cor2vhs+3ya3lYNdyT/3Yc585bx+pvjGXjJcaqDnRd1mb1oNj27HsQrr35Mv5OOYN8GtbjnkdfJqJbNxO9/pFWrfWlWryb/fec9Pnn3Ge55bDR9D+9E5/2b6UsnRegqIq/2Rd3uuXJoXa0/8E2b+QvWc+nge7j6hgswgz65OXFGjxzHjVeejG0aHNylnaL5NxYWqboDN9/9Cqf0O4yDDmhMzoYCzrpwCJ+9O0x1S6xRtSqm5fHzvEW89vp73HndpWRkZnD0GUP5cPRQ0i2TbydPp3XDetRTWgNd3lye+bizruKJB2+meYN6m7uoJFtE66LLuiSyCGSNhE80luCUs27h0itPJ2wavDH6c9XW+IYbLuCNt95jwpdz6X9iD64adDLBdJ8JUxdx173v0/fYg1VmhgCEeCTC+C8+4pMPn1E94K++YSihqvU476wTqJYeVu2gi2MON9/5LMMevFLdQzjdJDsznXU5xcR9nyWrVzP09uEUbojTvl0Hzh/Qk4YNqpORlU5OXgGXXPxvhtx6BT17tmPS1IWMHPkhLzx+DYuXrmXQ5fdy/bXnULVaVZ4a/gavPXsXa3ML+Pb7Gdxy81OkZ2Ty+JNX0bR+VaqnZ5JdvZqaGyLkTUbZSkzbssXxK2rdqDDYNsLlFXWN0uf5SwCEkihrawO1rUHd0xqEkkLLynrBu/O8UqY2VUBFNUvxfTYUbmTG3GV8/9M8Jkycxn23XYAZCvLcq28za+ZCTu93JOedezw5efl40Sj71K6lBDujP/qKNTl5XDzwJNL8CPkFCdJFkOWZjBkznp+nrmRt7moOPfQA2u7bipHvfc6qxTk0rVuXo/t1pech7bjq+kfIyY+RlWFTGDNZvCKXjs0a4viFTJ66hK/HPEDVrEyl9i9dGqe88bRtjXNZFvTeABBKrqEUMCgLAKqc+ZWsF5/020STuWxFDgMuvJ1TTu1BPJLgf29O4LtJLzJnzgJuu/15HnrkRmpWCzFixBj2P3Bf/v3Ii4x87j7Gjf2JKb9O49lHb+CuB0dx7JFd6HxAU3Xbm5mKEt5gCQNclndX9ueXSopRlq+McuttT3HamcdRXLhGhc1yCjzeeecrrhh4hGqmVb1aGn179eCbSVMZPuIr2rZtwk1Xn6owd97afPqeejk/T3gDqSsqXQRl0/951kJefvEdhj98syJBuvUdRJ8juxEMBBj9zte88uxN/PTbDMaNnUhaoDpxM51Jv0xnvzYNyQrZqtiRm9hI1y6tufaKc9RjCbOmMpJUpUFTMW8rV+aRETb45Isf6dy5Pc2b7KN0PKIVWbp0LT9Mm86J/Q5VhZHmL8xlwrdS7bO5rv3gi4Lf56effmHgeScqYB6LxwmmC7PgqbDFsrV5CpBEvARhK6wqIO7bZh96HtyZW4c8Sf2G9WncrJYSO1evXoulq1bxy6+LmTt/Dl27d6Bnt84U5xdRv0Z1oq7DoKvu5dLLzqZzu6aqCmthcYSgBWvW55NIRPlpynSWLFnPfge058AOzYhEIuoZ5s9cRPeu7Tm81yEaTqlK5KV1PpVTUGtHnnXFzsvtz+C/BEDY0YDtjQBhz3lnZTdp5T5S1SmNq4IcWrqfYNXadXw47ltatGhJt877EQ6FMM2EUkyvXFfIvAXL6XFgO0VnelLH3ZHUHJsZCxYRi8Xo1HZfXEO8DyH7pBSqww/TppJdrR5NGtYjLaA9TVFK522IsHzZMuo2qE7NajWIx30STqpaomRUmNgiUDB8xk2cyrE9OpKeJrHKPy70HW2OO/p9aux2NDe3BW5T3kJ5BY/lfmelviDXrew0xh3fY4pB0Ed6xJSoTjzA3MJclX3QsM4+1K4VYs3ajfzww+8cffSh2LakioX44rspEDA5vHMnvvthKnUb1qF5/bqqBO6+LRrQuEHtzQAhWftBpZeWqv9QsUyCLr4jczDhwKp161kwZyG+E1adTL2Aj+mIkM8nIxyia5dOLFiwmOKIw37tm6uiTrbvECk2mTDxB4455l/4qgSy1tBIEaxFC+bT5cD91Ga+YkMh61euxPCDBLIyaNOkDvlFMWIR6YUg9TckCihlhnXLc6U08D1CIZsqVSSTQXQZ+vymrC9fog+yxUrbdOn/KJohH8uTe5YeFroEs3jZCSlhkazPYcszy8WkEZAv6b+6lqTriS4iqDZd10iovgIiGohLKqZcRc7tSrgwqcj3XAJWMAnqpDmU4BYDw4qrO1T1JXy5U1nfCZUyaKEzPMRpMVydAeJJA3ZXsn10xUdVaTHZXk73Z5HCbfJsqaijpAGnAELKTqQ0CGUrNrTj+V6+I3anLqGiAIKC4GVgZXfk7G/hyEgdhPIN3daP3tsAwl8jpLC1sVZV1lUtdBW7E7rflGphgWSMU+KQ0vlMRE+SVqU9dzEQoo72HWnPKobGICCNbKTIkBiilEZAvqO+qNvHqsWvRFU6Xip5v5LxmzASurSqLsKO7crvJL3LwXSlGl0aCQtsTxqxSorQH6nCsk7mypqflQ0QtiaA3BZzsLvDXir2rbr/JcVhCiBKtUsx3LqwlVTZs1Szr2TNCbVjaLl9qnW36ntgiYGPYhgh5UFq6Wzp9lzJ4jOSOFZqLlQYSFBZrha+8rYTmGZQ1wxRNf99talKiM6WDCDZQFUKnAgp40o8iTyn9A83pHKgPIEUx5ExMXBN2fQkjU3Kb8l6kJLMNmFJufOkiZCPnSzrLMOkCo+ZCZXlYbthBShcYdFUOEGneqr5rzpPSh69iZssTWxI3YVktodkK6lCX6qUrqtCHfJ7VWZZqpvK2Ku1HdjUKXBTXSojju/Ku5PMDEOXYxZtkQQoFfDRRczEIZAHFlCi3k0yU0qve0v16ZB5IB0VBShIoTHdB0anrsqgSnqnpPqpaoamrSRSOstPzzSVfiyFwpQSSq4sdQySRcM2FTjSzdf05EmhhwrZnnbKhOyucENFAoSdetCtfGlTOPSvCBD+kszBdt+8LKLtUXFJgy32fYv4mqYkt/rVHZ3yD/ejv7AZwCbb2m5q1vTHB/irA4StvbK9N8V2Wy+8LBNh19M/K9sYJ0mM5FTfvFb0HPzj/f9xbpY+RjMCauve6hoqubFtfW2Wx6na7NX98V5Td1KCnykx9cpG0Wt6vySIL33/O5oH25gDm76263Okoja/8p6n8udm2dnV3WUz/7IA4e8HDso33f+Ok31blFplMwipN5NiB/6Zm3+cqyWZk8qcm9syrOX9eflW2/aP3jmAUJF3sJmS3l0bT8Xe/e45W2WHG/5hEEq9x7LEjHfm1acM8O6ma3fmXvfEd1LjUpkTfm+c7HsKIGxC4XukxsGemGG7fs3KAgnlBQK7Y8PcWwDC7njWXZ8Ze/YMfzeb+ZdgEEoa4L2Xut2zE3t7V68MY/x3BwilQdjurI6498608t9ZhekSkpfeGwHC9oDr1kZsVx2rkt/flham/G/q7/WNv4vN3LS3upITswuf1MIrDxre1YmeWlipa/9D3e78C6zoCb8zAKEi5sP2RkAJLLeS21xZIYaSDFbJObrzb+nv9c3U+FUkSCgvQNiTI14eW1qe+yzNrP5jN8szevrYymASymszK9telhwVY1cBgpxsWwa4vAi5/K9Lqpnu3kIaO3OPf4bvVJQx3hsn++4ECCkj/I/x3fVZX5Hg9R+AsPl9/ANa9/65ubeEfSoEIOyIxi79+4pCQP9oDnZtopf0KCrKGJcHIOza3Zf927sbIOz5GgdlH5u9/cjKnJcp52ZvG4PKYhBKPu/esgHtbWNf1vupqHm5rTm4t7yfPxVA+Ef0Vdbpu3PHVcSk3xsBwrZGozJCDP94Zzs398riZOyKY/F3ZhBKslp7Kyiq+Fmz+864q3Zzb7aZfxqAsCNwsCvGY/dNpb37SilPe2sbZ1nvfG+e7FtjskrHZXdlHpUOK+zKuco63n+H40rqnHZ2TP/OACEFCnakF/s7zKWKesbS82lXQrR7s838UwGEkiGF0i96b6FkKmoC7unzVKQh3lvfTUUzCHvrc+7pudTfR+cAACAASURBVFQR19/Z+Zi69t8dIPzDHFTELNx8jtLh2dRvSjqyZb3iXg0QHEf6uO3ez84s9n+M7+59R3K1v+N7+js+8+6fWbt2xb/rO/q7PveuzZbd++2/2jsy/gEIu3cC/Zmu9leb7GUZ+7/jM5dlXPaWY1KeW3nf01/BwSjvM//DGuz+WftXe0d/CoDwV1jcu3+qVswVyzvh/+zvaleet7SeoWLewD9nKTkC26J2dzRKf/Z5WV5G76/wvDt6p3vz78tjR/bmd1W5AMGXNqDSxc3EcH18O4ZhpOkOX6ornI3rGdjSQFS1OZM2xB6eaigq7dQsLEvqHMTxk81FfT+R7Lwmv5ejpE2qdAs0MD0f15LOZvbePHf+dPemJ7vuHOlLS1l5N6qbpHyk5Zt0hJPGNWaZ243urYOw5cJWPfSSbbVTc0p3r5NnTbarwzccvOQ8l46ZyphL28Bk49299Vl3+r5Um3H5I+9edyNUY6F+bur/Ie38dEs/tf598KQLYMoebLe52PbvrGSct6yGuCKM8OZYrKG6YOpOmHosVMdF1TlVfpd6fumApHon6o6Nu/DMJQFCWYBoRTxv6i2oTq/qufR7LDm/9bvWrZmlQ6Pq7pqcG/p3228jt9NzsNK/KPNankd385T3qBtsix201LPKGtdjo7uDpsZGm8ryRe4r8n1V5NAYiUSifE9Sxqur7cI1iduy78cgmo+fWEJ04TRMbymmnUs0Vp3M5odAoCpY+2KHqqpWpr5nEYutw/YXkTP3S6oF1mH46Wx0s8hueRCO14RguCFGIIRJFN8Iqb7qtguJYDGWG/6zzsoyju7uP0z1rfddPKtI9Zw3PGlhK+vCTW6Guge9MgjbqFy4++96V6+4yTRq865a2+rlosBQ0hhKu21PWiRjY6pWwrJXikGRb/0FC3ltsvwC5JNgQTYP9fqT7cZVy+CE2jBUK2LVllyAlIepDGzFjEtZQw4VouCXttFJIKS2QV+AorQ5N8W30cBRAQdpvRwDL4BvyhiFpGF06f7XOz05twcQKmOjUQ2bfQtTvXcNkPXmmOpCKGtCAwTVMhoNptVKSbab3+mH3WNf1ADfV86mAAT5t6xx/XNZ5+IUeKYGCNJWXP4qM6Rkc8/yAoU99rjbuHDlAQTfx/IMNibiRN3luBtzWD3nHerFp1OL+XjBNURjDSkIH8Ravw51Wp1OZvX6GH4YK+qycuWPuOs+o1b0Z6rYC3F8iw1eQ6LpHciPt6Zlh6Mw0vYhnBUkriZqgKBr4QpL4YWSL3RvG+4/7/2IYdR+hGwAmu0xzJjynn0/XW0ERtJr/vM+5R/vXJk9Q54+afzFGKj5ppvsplgE7U1v9ig1tNh1r3FvHEsfV230hmKRhE0SUKgNqIyD2iCRjSLJLqh9RDMO8l31nV30plPjsrMhh50ZV0OxngaeaSmHRLV6RgCybBQuAUd+JgyorT1OBRTk/2KPkmzUzly4DN+pDGCQuqzcuprPSY9ZgaEkOya/s3ztJCjwpN6rbKopAFgp/mcZRmTXDtGrV96nhjqbGzILIyTzWkBvklFRvxSwqMGBZho2A+A/M0ioNICghtf3WLdoJutmPETT9t1xq7Vj5fJfaWivIXfJPOyGbcms2RczZFCU/x35GxJkp3cgkvMB6c0OIjPUmrULJxMKLyZatIGo2YamLXuzoXgp/oblrN3YhHbdjichxshwCcpaFMPlhfFNMVb/fCpqBLR5MxToM8Ub9MVQumAVg5umjf5fEiBoIGBiJrc12QD0z5QvYTkYbkjZf8OM4/syDppy1a7En9NAbm/eyCbvGyaGJwDBxzDiYMizB/H8EIbhKI9K0c3idSc3D02/O8nxqaiZqc9TViZhV64qIUz5z7U0/FNMSDLcov7tGeqRS75xw0ioY9TmWYlzoTIBgg4byDt39TPIHBdwmGIUkoMqa0KFWcQuKACVssEVwxbtyrsr73f1G9aPq1a6ChuIkyTAF1w7gukFMD1bMQfClgmTtLUw0j8AYauj7+NYHgUrpmJPH0w1J098T9bG0khr3J9qB13Kym/+j/SNc6nixyAYo6jhWYQy22HOvg7TClAUC5Hn7Ee8Xn8aNG3Hkkm3UT+wiLSASbFhk1P9ahrvfwmeb+JaDkEvro2Flw7/AITyrokdHO+C52JaJq4TwzCziJk+llms465OOOlRVfBl9/DpJNwl1LllxsETaxHEUaFJocsj+MSw3BrYrolhiz5GYvAGhifGUTxITUn+pT7JTVFtewoHuVpxIBoDU7aF9QTJwEhkaYNpOriGqWhZM6U3qqQBqVRj7Iln7ONbMR1KkHCSYlFMHMPDDUQxiAmdgh/PwDIDmL6jWTeCm3QpFfnolQoM9BaZZAaE+fHxk+yhgF9DAEPAJW4UYRLGj4exLXGhBSAKUJbnVii6Ih9595xL4QMfU55BTB8hXMPHNYuJkcOi1b/QoNZ+VLUbYjliIIRZkPmhQbNmEbb8VOrcrKRRqVQGQeJvG5bPJjTz/6hiLlQDLGssFm9E+JCX8SacTtCIaA8EKGowACvrQKxZVyuWShB5YSCbWWtb0engU4jNeZJMZxm+HcS1IqyocQcNDrgWXAPP8ggI0BDc6of15P3nU2Ej4CtDF8BLGHhhh2LWMmH2u6xZN5N6mR04Yv9zCEio4S/20VxAAlOMgx8ggU3cKmLS7NEszvmBGmlN6dvxKtLcNKWHcY2QEuNZ4in7wUr1GvfYUMvmoLYNodxNEn4Q13bZ6C7n65lvkluwnHppHenbaQBWQoxnAtcQ3YqJKUzDFqGZynkKMcZlEfOV6+qeMJXyyHEliBYGQYCBZyfY6K1lwvzRrFm1mMbZLenZ/kKCXhXFtglAEHalspyWygYJruLPJHQk01n0FuL8FeH7eUycP4YF66aRZTbkhC5XEiKog5F+OAmIFO9YrmHeGw6W51SSIwmhGiAYIE4hk+b/lzlrP0HGpHH6YRzf6WIsR5yChNKaaOZEWLLNQYnU8/wDEEq9WVF056yaSuD388iylikv0zcDFLtZhHu/iTO+D0GhpCxDnAyKGp1NIPMA7OlD8EMevuvjmGnM2dCBZgf1Jb5oONmJZRhmQDlzS2veQ8NOA9ViFRWx7WkaPGG72F4qHrY3TLc//z0I5eYJKLYd5uVN4Is571FgryJgRKhjHMgpHa8lza3253/QLZ5A0+Ni4CTbxrRjLNk4jc9njKIwuIaYGaW+2ZxT9r+bDL+qAgieH8Y1XWw/humlJUVMf7FhUXyBbAIBRSmLV/Xb2glMmvc+0bS1SmfQ0O7Gie2vJN1JV+EHzwjpjAYjlvRIK492ThniigYIKU2FVvNrkVrCzmde3g+Mn/UuReFcQq5HPas5J3e8nYCTpeln0epUotNS2QBBh1NEfCkhBIOEFWVx4a+M//0N8o2leFaMavEWnNfl36QRxpYQpJeGa2lR358RICimyBc2zMC04qwqnMHns94g11hCxC4k4Jq0y+pH71bnk+YG8cwYHhJykEw8meMldRh6/f8pAYIbc3wRHEk8WSa9CI9SYiOJt8gisHwPU+kudFqi7OYi1cK18K0ECREGuhkqvigkoppEZhQbi7zlM8j87TxC1no8Fav0iPnNCfQYRWTSoWR5ydQn1yPS4DzM7I7Yv12PYVsqxun6GczOaUezQ44gvvAFqsTWYNhRBTaW1biP+l3+Dysh927jBsQQ6XQ8K6U+/avZ5u09j5YNbxaAKWYmKZxLputoEY1Qf6msAzlGDL3EDYUekwNkA5BYm3g/IgG18TybiJ3Pd8tHMX3leBWHjZtRAqRTy+rAaR0uJ30PAARF5kmKq59SGFsomkplUyi4mPRek2l5plCB8pEZLFoKma8iK0tgOkE8S+jihJqnlnjKEleW39oxJq98k2nLP8Y1I4rhShg2dcw6nNr+P2QkqmFbRWojdA1RfIuXGcJXC2f3f1IiOtmQVehb9AFqT5b4iJ0UncmYieBU1nEkmdKVjLn6KUpcy7WSCXx6XOXfgtAxiVgFjF/wJnNzJ+DbRSRkHG2Xhua/OHm/a0h30xFxn2uEtehLzcmS4s6KG5sdGWAVO1ZzxcTyhaFMiu9MT0hInaooEkNl72SwLLW9qTCREuPKjwx8CbVhETU2MnHFe/y86lMIOsRMgzTHoYGxLycdcAshN1uxLHq+JQWLFfe4W5xJZ4UIoNXvK/VRs140MfK8m1J2ZaPXRygdgWTgKHZAi0dlP0idR96ZBJCCko3ieSTsCJNXfcqPy8YRt9fjWHEsI42qkX34vy53EaaK2i88gooxFjZhV9M7tzVk2rLpTBLFbCiblQx9kMAxREhoqbconr1vxpPCWk9phRzLx/YjWG5IrXFHBsFMYAnTJTPBMIiZLr/nfM33C9+k2M9VYXPfEhsToVXaMRzbZjBpsg8aUXU9GUMJo2mRYlLiWM6Ux0qaIjt1WsONJfzN6RoyCTR9mNpGZCOQITY8ST/0FNXqK1gMlhdUCykaiJEwgmQ4etElDBPL83BtyFs+mfDMi0kL5qp9x3RdiuyGhHq8hPVlL2wzjYSl08Ti1U/Hqn0Ixq83ELTjGJZHzEtjfu6B7NvnNDZOeYSq/gZ8ioiYGazOvpHGB11CICaI3iAeimN4ASxZ7daeMcw79RYq7Esl8nKVsEgEZEl5oaphIAtDp15pMCibZFTRgQIQZYlp8V1SfOVJPNXFNQ2K3FzGzxvJgoKfSNhxTNPCMlxMx6Baog1ndb2RsFe1wp6krCfarDaW+9d5957aAFVkWNF9Sjwka1/V2BDjJws8qAyXVuSLodBzWhkZEaF5CQIyVkCxWcAXc19lTv7XGMGE4hsNK4xjFJMdb8BZBz1Elifx9gieEcA1RbgkY7znNAgqLRVZrwIQbC0gNAX4OBheUCuxTUfpAnz5tx3B9yQdT8ZN5kEqVVMAt469q7RFMXwCwCyPvMRCPp3zGoujs/AsV2CkAp82QaoUtuW8HkMIJQIYlmgQhH4VPYcAhMph93YIEJLZFupVp4BbUomuoEEyXdFKesuyi6r6LOrZHfVkMufxYhT7BYyb8zrzir/HCrhYnkU04BCKQt1YW07vPgTbFVZJxkzOULkAQeVUyKtS97oZI6j6E4asZ5n/skEm57isAQUa5Hs6HVWn7cpfdWaGPpWJq9I5TWJ+PhMWjmBmznc4IVk5cWVfTNcivaABF/a4mzQzG/yEGjdXPOotMgDKuqrLdpwOVQkIEfCmgbxyfEQ3IKJBJYq1lV2Que1ZYuskNV4DBkeYPtnvfAGOko4RwHPjBGVsJGU+EGHi0g/5edWHeMECvTJcG99ysBIButQ5i26NTiagNAiRJEDQupOSIYYdzcuyPe2eOcpIxGMiO1WISqtOtfeo/0jOskw5MZpxfCNGfn4O2Vn1MGXCuy6OqZWdlmz+ZkKisBhWCMtzhZilMGcVROZTXPALxropVI1+R9xuQPqhL+B8cRq5dgNCjbuB0YKsfbpDKA1zwxLy1k3DK5xEIm8e6zfUo/1pg1g29h6q1WqCk9GScGZ7jDqH4qcFCfli0CR84WE5YuQS+GblGKE985rKdlUpMCXxb5V+llQZp9J0dBqezlFXyvJN6WkCqoT+FTARxTUtPD+ALcbBdXEtj9XuIj6Z/QLrYzOw1QYYIGrYBIxiMopD9Gl7Kc2qHoLpBct2oxV51CbPR+dmK6FcyjsSUZyKl4un7Kg16ykvSRC//DyVtw6OmczKEIOiDKfWEGwgh7GznmJ5dCohUwBDjKgpJ0on7Noc2eIs9q3Wh4B8z0jgqo1YGKyE3oj3FIMgUEi5yAKGtGdoitAyKSATQK1jpSLqlbUT1+l4ChrowmXaHoj3mWIVRcWuz7UqMpuxc14gx5+DxPYMN4wn4236pBXX5JTOV1E71AbbFWW/MHvizQmnKBqEyolJ78gQi7BQ3qvyOQ0NZ2TOCJuwqcBRUmSqwHSqxkdKtS88gBFjfWwhH816kxX+bCxL6q7IGNoYZoL0WB367ncx+2QeiKUAl4yZbMDiqVfOcysmIAkQNoMDvfGpP0osqAvWCRjWnrdOW1app+q+ZNvUha9k0xfmTI5XtQ8Mlxw/h4/nvciK4inqSHEUHZkjvklaLMxhzS9g35rdCUh9FMNVNS9UcTs1zyrnk9Ky6KwaXbBN2CG5d1WwLAlwJMQj2TU6myYpnlQsknzTUjZO9gyVlSDn8XxiVozPF7zG7NwvcAMJJL4qDIppZhL1fDpW781hzc8hzc1Ue6Sr5rg4zDKyApD+IgxCzIn4ajORdA3xpswoEFLFigQtO7FCXCMXr2g5kTVT8ApWYlapjZXRjIza++MF6+EbGYTU3PIpMjYSSKzEKVhFdO1kjMI8YjUyCGd2wIlHCBTNY/XC+bQ4+j9snD2KeJUDqdXoEAy5pqBOETL6LkEcivLmsnHNr6xauIFOR5/M2jlfUqNeB8yqbTGMAI4wFsIUCOI3BUEKTSw5x7qynyJGZRKXEIyUFC+VjlGWLPBTOm2qZCfJ0pXcShZhMRUwkfmUrKS3FbFK5SwX7T0o1KxihoocTWbja+pNUaVq0WjvQYmmlIeZKvIR1N8XKs4Tz8FmvbOEsbOGs9qdA0GPQMKTUcazAqRHMji29UCaZv9LI/XNzGZlPeIfz6vysJNEoyleoGZCdJpdUBlmXcRGK6pFea69JkG0CUUbC6HoqAUt5/JUgS8BDLn+Ej6a8zxrY7MIqkVvEDGCeLZPWpHFkU3Ppl2tXthkJdP3wJU0PwnBecIgaLCwZz5aXCVgT+dzi2kUD1LGRTMj4iVuol3VHJBwi4BMBzxJXZXNIqa3Dgk5CLAy46wpmsmY2S+xzlyl8IflRlWc1vcyCUdq0a/DABpmdsJy0/F9D6y4qg0gc0TnzFfOlrEjgKDZJnF6bAxXk/Ke3Jsh9ViFJxUmSdcxUHUeJEVRNk1PgxtZF+vic/lw1susNuYqFiIsve5MsTxBqhZl02u/c2harSu2I+Mna07efqoKXyVWeNVih82bolrnAgoEIAgo03NTjX0ypKAggmIVbTVXXFXsS4svlaA0uU4KvCV8NPsFFjmzlEMo2WKi93J9i4Bnc2jj09mvzjGEBBwoMCp0vjAn+p4qDSKopaWLVKn6Goajwb1yVAwVMjDE+TUku0Retk5HFuZMHGI5VnQSAmSkyJ5kHsm54vZGxi8cxYycr/EDMSVEFVsiTlMg4dOiek+OaPF/hL1spX+TMLuAD9EfCdiUdSZZO5sqrf6ZQwwRN+ZLbrvlCgXm4JhRTD8Dw4sTic5n3boZxFdMpnrhPDK91RAoImZCsVuVWKgDGfueQrXqLfGN2njRfBYt/oJq+V8RKFpJyMvBtouIilcXb0pBeiuqtjmJYKg2VmY7bKFh7QixCPww+We++vpLIolievU6khZNWtCieTNcYqzPK+CXab9QJTOdjLSqLFmxkvW5a+h+UFfq1KnFlJ+nsXLVaurWq0nPHr2Vh6iAAz6TJ09mw4YNjB07ltatW3PYYYfRtm1bAoEAruvyzTffqM28dKW1pk2bIn/kmNWrVzNt2jTy8vJo3LgxPXv2VDbfcRxmz56tfp+enk7NmjWZOnUq8XicTp060a5duy3OXekbhVLeiqeo07Akvi5FXSTjozC+luJ4IVmhbDLMOlipGLPKWRfkbRE3ggREnY3EU2Osd1cxbuaL5LqzlfBO4opiSmW12fE0+rYaxL5Veiaznb0Kqo1XzlFKGsJN8WWVcikejrCIInJ12ejlEImsJxzOJMtqSNANKmMiYEIWstr4PJOQot+FDrfJ8Vfx0aynWOtNx3RsRV5GbDE6NmlFIY5tdR771uiO5WZpWldqIKjz6HUkHomi9itpM9zRKEmVPx1P1gWLbKXRMHAkth4wiVNMQSyHWLyQqhlVyTDqYrtJr1qAkwJTUsJcNjdhRsK4tk9O0a98MusZ1tmrcAhjebrcueiL0ryaHNvqchpndFAFzxRlrbxwASupksviSew6QNiaMG9rAGELMC/eouyE9nqKYhuIJ6JkhDMJGnUx/bCQ6GqM5P2LcZdnE6CtZBomrE8s4oOZT7POWqD2PluFpyT0mkbIrUHfFgNokn0wViKEpYqIyeajQaqumlF5wkydb5oKE+gwg+e6SLhcMIxnmhR6ORRH1hIOhqlqN8IWcZ3vYJsCDqQipAAKYYMlau9i2B4bvXV8NOsZ1kR/Jy4bqyVj4mMmAgT8DLq2OImONY5TcXxbxHmi2VGFoTTAqqxwkoIGm8KCCgppXZwCs5Jl4bAy9juLVi8ilsinRd0WNMzqQlDAg1TrNSwF3j1XcrNk/5N7DVIcLOLrRaP4LWcsvqUZCWHi4oaF7YTpULU7fVqcie1U18+mBLhxJb5XTKzYX8loUHP8L6BBiDoJX+hQEVQJPesZCWwvDcvcyMyJd1Ldz6Fq1YNwwsX4GWEKVqyndrMmRPM9zFgRheu+x/Wgyv7XU/DrCGV0qzfanzgRfDvMhnWLqdeyIcV5HnZhMe6aHymOmmQfMQorGOCjD9/mjpvvZO7chWRmhHEdj0g0SvXq1flk7Ke0bd+GV157kcsHXUl6QIQvoiiP47guTfdpTKOmTZk4eZLs1ooiu/jyS3n6ySfVRL3kkkt49dVXEa8+HA5TXFyMZVl0796dd999V/29Xr16ahMXQyIbe+rvl112GU8++STXXHMNI0aMIBKJkJaWRmFhIW3atFE/ExDQr18/BT6CwSDZ2dmsW7dOnUOO/fTTT+nWrduObHnF/V4MUdJjECTsmDYRdyNTFo9l/vpvKHKLqRFoRL8DLqKq1TApVtOiU8O1SVgCASSX32eds4Qxc4azzpmDYWrBqBh2oc/CsWr0aXs5LbIOBE/GXZaCLLNKNIDbGSVVwETF14UUsZXISJiwiLmen5Z8xe9rJpHw8kk369DvgMuoEWykPSAVBBNv2ieg6hzIwg6S6y1l3OznWRGfo4BD0HKIqzLTITJj6fRtOZCW2Ycp4aahRLbJngTJXgRaLJbqxbBnxkSXfdWUshgx8X48x8QJuBSxnq/mjGRF/jziiRj1MhpyXIfBZFJbZ2wIgyChCFf6pujeCnErxurIXD6d/jQF9jLipqZobQEBrk2mWZ8j25xF47QDMV1dOVCXm06yOcqYJj29CpwnpdnBrU2TTcDBMCjw85iy+DXmb5hKUTxBjVATTugwmGx5dqW3sRSLKeDOlhoYeESNHDZ4a/hgxsvksVgBCdlEE6ZJwnCo5u3D0a0G0iSrE248QEhkGmYkSWlroKTDNbsOjLa5DJI9LjSLoGMLAsxcL0HcjvDT4m+Yte5rot4Sqvh1OGa/q6id1kaJkC0VekjW73B1Hr9jbiTfX8lnv7/DksQ0FZCwZDMU6QoBwn4mXZucTtuax2DHbQKi25E0c6kyqRjKVIiq8h5b150qAWw8AbgJ4sEN/LJmMhMXjyJhyt7mkOlU56yu95HlV8dU4SXpAOQSUMSqpNqbRO04X84bxcycb1TargBjK1kx1HQCdNznWLo2OJW0WIYO6VjaydD1onRmi/5oRjv12RGzVXEbQMWfyYjHXd80ihXtKPSRovfdMJaxguXfX0m96ERwY8SNNNb6PWlw6EUs/eEFaid+JGwU47kOBe4+hLu9SGT6jWRFf1UZBHEvneWJzgRbnkFw6StkMJ9Mb41CoIVWC9K7foGdUY227dowe8586tSqy9SpPzBx/FecOWCAWlxXXHEFDz74H159ZQSDLr9MZUV06nog1atX44vPxuM6PuH0EL2OPoJfJvzIuvV5VK+fzcrlKxUYyMzMVMzAGWecweuvv07v3r0VYyCfBQsW0KBBA6ZMmUJBQQG2bSOgQH4urMFXX32lQEVqg5dzCGAQBiEajdKhQwfFKpx66qm8//776pzNmjUjKytL/Vw+gwcP5vHHH98Ubqj411f6jLqehNDDrglRay3jZ77OwoIpRIN5eAGTUEFVTm47mKZZHTElf12WvlWsqk+qemlCo8YWMmb6K+SqktiycQrdqA1PWqI2J3e4lHrB9iru6kmBKvGcVfG0SjSA2xs8dR+ikXGw3KCqi5EI5fPVgtH8tnY8XjgGVhSzuDpHtxxEm+pdCErtDKGShfZWyq04XsBnVWIJn80eydr4DE2NKw9COKkQmUWZHNd+IA2r/AtfGVKJSWq6UsWgFcWZoqhl2ARsVyKtvL0xUdoh0VVI6EDGRd6PTZG1lv/9/DhrmIdrR9U7DxSF6d/xLvYJtVRrV7giHXjRMVvxoFZEpzLmt+fJD6zDsywCvq714HkGWWYjTmh3KXWslmrzUFySME4SnlB0dVB7YkJnK43Mrs+T7TIIOsi+Ka0sdaxjRvhw9jMs3vgdsYCLYZrYxWmc1P4amqV3VFVClTZBwKbypAN4doyV8Rl8NP0VCsyVWvjqO7iS7eIFqebW5YT251I/0ElR9aq3nJdQzpZkLsgck9CtBgiVqEFINcFSwkodUpOxFoZg/LwRTNvwFW5QFPgFhIszOKLJxbStc0QyZi9gQs1mBRZkYyz0F/PO9OdY5c3FFN5cgLQwjXikuzU4rPm5tM3uodg103ZwHQeTdB1MsaIKFFmKTUtlVlSC9VOpphIWj2N54hgE8AJR5hd+z0fTXyIRyk1q0RzSo1mcuv+91A030Yk8fkBnKYmg0vYoMPL5Yu4olcItRfuUOFOBjwCBaJh/1T2aQxqdiueGcSxhL5IhKlUUTVnHpPZNlVTdJPhUcOHPHGJwYglfUWGmh+mImt0jIcITK4f131xC1fj3qgujKFMj7n5kdbuAwu9fJmxPV1560LEpMBpjdRtG5Jc7qBn5Rac1mWFWRRpDk0vJXvow6fYqRcM6VpBCvxGZh05U1bcmTvqG3IJ86tVvQPMmjZkx/XeOPa4fkWghlw0axMMPP8KI117lsksHYZtBCoryCYVCRh/NrAAAIABJREFUHHRQF37++WceHfYoV192FZ9/9jl9ju5L7do1FOUvbMAnn3yiNvujjjpKgQDx6AcOHKhm6vz582nSpMkmjYIwDfI7YRVOOOEE3nrrLYYNG8a1116rjv/+++856KCD1Kb/zDPPKPCRm5urwIewEcIgzJkzR/2sR48eCqAMGDCAl19+ebcBBBGdCZtjSqqdJWl5o5m87APMkNDmQpNFCEWr0GOfAXRucBQy000R1pjF6u8SU10amc5HM1+iOJCjaEalwlbdOMOkOZkc3/FiGtidpPMFjso+kRi0LDRdZnZbn5JUb0WbCkP14BCK0FPMgGNa/LJuLF8teAMvXIiFiCodpU/pWvsYejQaoETsrmJbdJa2sBCrYr/w8e/PkmPIJmjLt3DE2HkBsopqcsL+F9M47WBcT0IHvgIHOugrQkCVGCVqNWUgtOZD0sf2DIOgshiUi6X7B8gzyDr+YskIZqz9hISdBHR+FCtahaOaX0qHmv9SqZ4JpdtJxuOtCPOLpjFu+vM4wVzidoC4Sh1zSHNdsvz6HNN+EHWDbQioEIXMI+3Z+SqLRMdidQ79zusxUpqg7eX8qzmmDLfuoChhFsnAUeJE0+CrVaOYuOJdQkEfV1V8tpQQt0fjC+hc61iCviT0SS57spS45bKkaApjpj9HJD0H25X8fh8vaCtqurpTm+PaXkTd9P2T11VyhCRzIrt0queEziSqzBCDyiaQMVabpmz1hrIBc/Im8/GMZ3GzclSMXMCaHYeOtU+ke9OzCMgGb0BCMWgmlmmwPjqLd38bRn5oJa4Zw3YDOnHPtAnHM+nVYgDtqh2B7UgNm5iCP7KKdGMjeX7Rbsjzy78rL5tM0hB1KE0+uplcxFjLyJ/vI89YpkTzHmGduuhkcFSzK2iX3VmNk5KOiHDWMylkGR/PfJrl7lwcy8CQcIMtQneDYFEaneufQI+GZ2DHgyrskBD8mxS2phgbJe3Y1Nl0SyD4pwYIiXhCaXul0EMwIQAhQdSGdD+PvK8uo1r8G4WipdRkntGS7B4XUPDNG1RzZoEdVd5aIQ0xD34ad9p9ZEVngBnBs3xWRxvgNLmOKiseId1eCVYhwUQGEachgaPGCxZVG+kbo0YxdOhQtYmLAZDNXQZVPPqHHnpIhQkGDRqkvHw5Xv7ftWtXfvzxR7XpH3nkkUycOJFDDz2U2rVrK4AgwED0AOLhy6YttL/8SSQS6v/z5s1TAEH+Luc48cQT1d/ffvtt9R35HH/88Sp8IJ9ffvlFaQpefPFFLr30UgUkPv/8c5566inee+89FV5YsWIFM2bM4IgjjmDjxo27HSDozUlqFngQKOSVH4ayNrAAW9KcJO3UNLAdkxbph9C33QUE3Ax8J4AZ8EgYRUzPmcDkOW8rtiFhi/fpYEqMzrcIuVU5pv0lNE5rSyBRRYUbHDEqYoyEUk6JILex+1cmQJBUvYTEC5MAIWZ7jPrpDtYas1WKnVDhEfEWfWhqtOG0A+7Hi0nhI+3lCWuysPBbxs0YSSRUqFM+ReTpRMG2CMZq07fd+bTI6qy8ylRylVZEizhKDLPe/PYWY6AzBVyVTSFhOYwAcW8dz06+GSdjjfby1TvTNUw6VT+G3k1PwXTTSaj5Iulxcaau/ZivlrwFIRkTXSNDFcBxA1RN7MPxHS+iTqCtZm4U3ZqsrVBBYYSSQuKSQuGtTTMNEJTkVHvusuEL3a/i4S5P/nAF0fA6LPf/2bsOOLmq6v29NrN9N8luekIvoYQOiihFpCNNqdKLIE1AQEB6ERAURHoTEBRDAClSRIqCwJ/eOwnpm55NdndmXvv/vvPmhpfHlDezM7Mb4PnDJDNv3rvl3HO/c853zmVFR3Ewi+Gzdusu2HHlI2F6PjKuh4SVFuD79vwX8fjHN8NPLoZFgp/vwyYo1HQ02SPx43FHY2zjOOgkOQrJu3wA1FfQzA1KSHckx8nkcSgyuPO1izCbhEqeLilulQQMP4NR1obYbf2T0Og0wJFwAEMD3Zja8zoeeO8WdCcWwZSaEY7UC6BnoS41GFuvvi/GDd4culsngMGV3aN/Ljk/la5LhsWYWq/b6Ex9iLvfuARufS9Y/VUIuSRduwl8Z8Se2GLkT2Cyz+TFwcM85z088MYfschYCIfp2+SvMb2bqCndiM1G74rNRu+MhMuiV9lwol8fOub8y77nA68DRSeUM0taxmaWK2UnA0sWeQ/SJpMGF2PeMydiSOpZcT9Ttrr0MWj8/jHoeuE2tOE12XDgWljij4K1wd+Rev8stDjPZgk5BuYtWQGp1Y9E06wLMMhl2osLgwWRMArmj56GabbLpvvBBx9I2//73/8KJ4CxfW6wxx577DIAgZsyuQAECHT9v/zyy3jkkUew0047yW9JHlQAQYUYyD8gIZGbNwEDvQmcSBVioNW/7rrrLvUkpNOseuYLACBAIHgg2Hj77beF3HjzzTcLWOH3BA833XQTJk6cKJyJyZMn4/3338f222+PRYsW9QtAoKOP9dA9bQFu/t9ZWNg4VTw9hqRq1UP3e9Guj8I+G1yABrtDFL5t+fi/zgfxzNT7YGkLyWGDw7xhk0wnGw2ZIdhlvWOkfC5zfi0SfJgzQncxrQ4psPRl3L2QIFYeKASlXMgiJzmIFhIB7W3/dwLmm7OCOCE4Kknovo0h9hjsu9FlaLEHwfN64df7eHfOM3jqs9vRXc/ysSYSfgK660namtU7GNutdQRWHPQ9JCXG2Js9956MaHoSvkpwHQgKQbYqjfn5AbGS1nvGnYEbXjkLmeQcUe60uCSLzavD2Prx2H3cL1DvdsDReqHrLp6afAfemPu0cBKoOIV0RkDo+GhxxmCXDU7FoOTKqPOC1DLJEhD3srKey1FJy/4m7DkodmRzMO60pANCLUlsJKmSnc+I8+9fPhJeXRcgqXhpOPQWaC5G6Wvhp+PPQDLdwlpwyOgL8UrnA/jvF/fDTjIvvh5GhhVauW84ksq4y7rHYXjduqhj5pWdhq4zVXRgAAThkbFYnZfC9S+ciZ7GaVkPjgiF9H2QOxo/3fBMtHkjhXOkGxo+WfAUHvjoRqQbaUjQ9iYfyULacNDUMxTbr3YAVh9KcGDKmLJyID1VAbW19pfUOhGAEGQdUVfNdz7DnW+eDyfZLd4DqQCpZeTPFc0NsOf4U2FmWkUuOtPv4f63f4sl9V3IaC7q5PwQFwYNh14Lm47aCxuusBeSJDWjO6gPJORbpkl/2Wcll/mOuR8I+qDc2dFSNgMKRNlB/FbXUsgYLpJaCpOfPgvD8TB0f7HEd7v8cRi8+SmY/8ItaHfflrAEKx3Oc1ZC86aXY/77l6MVT6He9mGlmzErszLslY/E4GmXocnphVfXDUasF9iroXW7R+DaOsaOHSsW/p577ol7771XNnpu4swQIAfh8ssvX+pByAUQHnvsMbmfHoQwQHj66afFkidZcNq0aWLh0xvx61//WgDA559/LmBi0003XQpQDjjgAGnH5ptvjiFDhuDSSy/F2WefLWPLEAPv5b8vvvhiCTHMmzcP+++/vwAEPn/q1KniQVAA4ZBDDsGtt95asxADPQhyFK0UwZmPW176DebXTwk2cLrFGTLgqZd2C/Ze/yIM1VaFYXXisY8n4u0Fz8FOpGDqdLsxC8ITwNjsjcRO44/B0OQ6PLgQhuELSdRnURHGqalcJKUyiGMWu6oDEFKw0SQAQac71FqCW185FguMRXBIwNQMWDY3hRQMuxX7rX8uhlkrwjUW4ulJf8U7c/8Hl7XluQZkrLjJJWFpY7DD6gdj5eZ1s2mcQUw1IJux92T7c+P80qWo0miLjUO1v6d7n21lXJYFflw9hYw7XQCCW98toRApokUeimagLjUEB298Dhr10XC1Tjz2yW34tOs1eEYP6kR2PGRME76jYbg+Crut/Qs0WavBdBmm6s3WV2T9/Wx9hQoT8lT6cCEvjQIIzMphXXzOUoabg+HB9RbjmpePgZfshu41ColVzofwHTTZTdhv/d+gVV9DqkE+9unteGfhf2GavoQgNFaLJeDwdAxxxmKP8cdgiLVSQOaTNNng/IH+qnkh276424OCP/T8kTbg+inc8NKZ6G74TNIPg3OWmG7qItFbj93XPh0rtKwPaIvx0hcT8fzMfyNVl4Gp9aKe4Wbm9yd6UNe9EnZd5zCs1DQehmNJ/YOg+JgHQyc5sdrSnPv5NA2kKBEptTqrdAJz0p/g7jcvgF23SLzeTFtmiIlhj8b0EOy90elos1bCu3OexjOf/x02w6tWr3gYDKSlzksmMwjbrLo3NmjfCqDeYAaQyeJpQXE1TeuV02yZah9No88ln8s1QOh1Ur6ZzRVn5TcWOGK5Wd/pgZb6FNM/uB+tmcnonvcxDHMYOrbaHzNeuhfJ7qnQWleA0bQaWlbdHN3ddWho7Maiz19Aev5nsFMzsURrRMtKP4M++TbU2YuRGbo6rIbNMWiVjeEmx8OxdXHzc6PlhswN/OqrrxZ3Pq/hw4fLRn777beLN4GegO7u7mU8CLTid9hhh694EJRHgd4GkhP32msvnHrqqeKZ4ISRb7DLLrvI59GLk77NNtsI14CggL9h5gM5BfQeELxsvfXWePLJJ7HPPvssAxDee+89ASbMdiBAYEhC1USo+jIiQMimtWnGQtz2f+dhbnISNFeHoZFxHVRNZDrbmkN+gE1H/xD/9+EEfNL7GnrrfDQ5CUn0YhzOzNgYY62OXdY5AS3aWEn/kwOLpNAKCU1k/wf1E7jxBld/EPKoJjKw0SDWHY9fdcwe3PXmSZjlkhQblBBnHBV6j+Tzr9C0GbZe48f4z7sP4/Oe1+Eke2AwFsvURHbIMdBuroQd1z4BQ4yVYUm56RR8NAWVFunOBd2R2UKy2RoK4fmt2ZznESqCQSkXLQCBREMHjjcDN7x2NjKJhfIrMXh91tZngbEENhz6I6wzfBM8+9ZETNPfgatTAdMLQdnxJO4+rnVzbLvqz9BI1r+w82mhcUPmRkFwSqUZWPJ9uZRSJTCIum7zKVwBZ5K74UrlyICNz3GgMzqDa1/5BdLmfMBvlNz4oMIga3sAa3Vsi/Fjt5YDyKb3vIMMY9FSWblXmPm2Y2Bscj3sMu4wtGG4eJhoWWUMS/rKMQpi0P1zqVoDUi6azH0CBKRw2yvnY0Hio8DqFb9fwJUxHWDlps2xxWq74vXJT+KdOa8iXdeLhMTrGX4xoLstaDNHYpd1jkaHNQKmVwdXyKZBDVKL6eE0O7K1X2rdcwYVmSrP8SfvSM7+cSfj7jcuQDoxW8JLDBvR0ydFnWwTo+rGobVpMD6e+wrSySXBuqeRYzqw0z4a3UHYeb0TMKZ+o6C2T7YSJivziDEgRaJoGOjCYYleykCIk11T6/Eq531ayun1efAErQhOvEWFQbYqw3OZDGAmYKTopJ2D1KKpaGgbjM5pH6Ourhdu1ySkZ/8fGvT5cJYsQKPVCjexOlKD14BvjYXVMAxa3Qj4vZ+jpWM49MQYQG+D46cD15xmCcv//PPPF/4BL8b/uRHTmj/ssMNwySWX4L777sNBBx0k6YrMIAhzEEhEpAfhf//7n2ziDFEwnMBNnNwElbXACSMAYciA3AWCDnovbrzxRgkdkNPQ2tqKZ599VgALQxC0/nk/QQv/5NXS0oKzzjpLUigbGxux9957Cwehra1N3stwCQHL3Llzpc18T+02C8bIghryrr4Q9775O0z13hdFR8GWKouog+Y6UmLU9FrhaQvhJOfD9gahgeVH/YzwElYf/ANstfK+aNVYT575wsGhWlyUUh1HCt8IXpbwVGBVV4+lnV+4faleJsQhErU8HRkzgwc/uBiTu9+XEIOcpid8ARYKYhlVFuwZBF9bLMEJzTClvr5B/oaTweiWDbH9qr9AOzoETLL0bFDghzXbydcJisBIQZZQiCGfsqi816T4Ug8iw7QkGWJg3zXY2mzc8fqFWISpkt0g1U81F7aZks2dBDTyNFwjBZuWYbANBHPs6hjfsRW2HrsP6t12iesHpZcZqsjekz2IKSAmFvcm5euFCiuEvQbhewsDhOxpeiKfQRltOX4ZNm5763TM9z+D5jdkGefcXLJliDNNgGkio81jTVapuGnrPJmzF4mMhTXatsDWqxyMBq1RSIwMrZKTx7MduB6CMsaKlFh8fip+hx6sA+pxyjvXgWOm8fDHf8LHXS8HoSSppBqQFTxay24dEs4g9Jrd8E2GfzOSd8GiYZSfkeZ47DrueDRpHdCkGmG2+JhsknTbs+6K2W+hFeEdeLZ4DhhEYnuYpXPnq+eg25gpPAPLDdg2aVZB9U1YrOxJOTV5GGCQdeKTZK35aPCHYbfxp2KUvpJwtoLM3OCMGl+zxMsuY0vvlNSkWpZ3pEIMYd6MaMj+crFUQMi0lJPxEzzymvm/LBFre/Ct4PASWmMaNwbdDgabcWltMXq6FsBJLcLsd+/EMO9p1GuzWDIFaacXqbpNMFkfg9aO3TBkzCaoa2wFNB6Fm4bGYzF1DT2Gj2YnqMjHjZybOwsO0Yvwve99TzZ5btQbbbSRuPJZW+AN8Sr42GnHncSi4G9YAGmzzTaT37GI0QsvvCCpibTueU2aNEkKJXV2dkqRJHoS6JGYPXu2ZBrw3eQqMDxAd5pspFk3+RdffCHeDd4zZcoUARoEDQxj8Dlq0t966y0hRdK7wffyecyuoKdjzJgxwm+o2SU1wIMDSly6Sj+5Ee8ufJ48u6A+uq7DdWxYZgK21wPoJF4lYWiLJbyUNutQl7Kx8Yht8Z0xB8LyW8TSCpjhwWYoLHUpHmdLFYHAhuBhT0Hltv64ApIiLfrgRM+0oeG5L27HG51PwDcZYvAkb5+WQoJFYMwepMk1yNZNIClRNvx0EusO2w7fXWFPNHtDxAoTC1SK5hhSITEo1xpsiFKqWEIMuWlaSmHUDiB+Ofrc8IMDp1jVjWcxcEPrxt/fuxzTe96EYzniVTF95skzX6UJBt3peiqwxuh1Eqa2J7n9P1hxT2w6dGdoXrNsuLIvyoZDTakyJujO5XuzwLEPwqA8B7mUaz6FyzUcHMIVHEYWcBECNj09KhM/vQyf9b4kNV+k/LbGTY8eoSAEw3WTYEVXNyXp2HTH6+lmbDZqe2w6fAfUo10qQzLt1af16HE1BORNelOoP/sCjModLnlrFiDQKyKyyTRe08HLsybg+Rn3w9N7gsqY5OiIfmCFyyWAWycFghIOc/4ZknEllW/ttq2w7cp7o8Frk3NXMvSQCNGXzwiKXdnCdfLF2OiPi+BMAQQ5SdE1kEl0YcI7F2N2+mP0mDqSLv1nKaT1hJyoaWGJlEv3GJIkP4WeUSeJ0XXrY4e1D0ebP1rqJtCLzjAKzxQKUnRZJ4LrQ7RBIP85Nv6vnQchY9tfZh9lO000FYi6JqhUjgAye6F5DdCczzDpP6eio4GYfBT8IWvCbByBhfN70TokgUTvQiya8QqSxmzMWDQYq25zMYzEGHHJ0grT3CQyFhcUbdGA/a0sBSpUpUzJN+DmzO94X6B0NLz00os4/7zzccutt2D0mDHye1UJUSE3cTS6wXnwfI78ks92g42ACl2IOSH2OYWf33u+B9MwMWXqFPEU3HLLrZLCGACHIM1JsCOrrLFt3HSzlRjl/bJYsxuGVDOsTOW4OAsweHvgUifz+OUZf8VLMx8UsGfSpSos3CQcyTzrCTYBtznL8vZh9Q7C5qtuhw2Gsmxqs/STaU4CAKT0dlASKVgYwSlqATOaSjZ4e79cjK/qTEckmdaHrfl4u/NJ/HfqjYGsZQ+hkvi4WFB2kPAhZVe5VTioTzXgO2N2xYYj90LCaxRvAy0UVUte/gx88tnjioPNMyB95QcIyoJQWTTRWHqhtL0+jaVYs8w4YC0CHqdO0inw5KQb8NrCJ6SQSxBaDMpzE0CQbBYcx0zLuB6m24WmdDO2HHcIVm/bWirv0UMVnM8XdqcrYBjEwfsqCGF9UApACEIMCiCoFFPWdWA53F688sUj+M/cv0DzW4U34uoLAlnIhsYsly5pGjAsfKEh2VOHbVbaD+u0bw+T7EUpnx4UFFJFzQPiWnA0WAXKO5Q15YGThICGBd+Cw4gka8nS8cHCJ/DYxzfATbLWDet9NAS8E/abOoBZDWJByxFG0OwkNhyxE74/el/UuyReLpZYfgCyuGYCk+DLEsdBIe9+uaQiYlAMTI5qcpJwrAwe/+xGvNP1r6CwGxe61IOgXAT7TvaUIdiGj7p0Amu0fhdbrXYIGrwOMaR4NgO9BiorRWXncs0U48J87QCCbdsFzD5uqNSJtJjUcdDvYeGzR2GQ9xlc1GMxjwFODMXgDf+IBW9ejrbUW3CTNkx0YUbvphi59c0wkqOCWviaE0wifZvE8I6Dd955R4oOceA//vhjrL766rIZMw1xlVVWEYLh1ClT0NbahrXWWRsPPfgPqW54+x1/BjMO6EEQD0A2hZFZCeQMjBwxAiuMXUGe1dPbiw8/+ABWIoG111oLhmnKPfw9QxuLu7okU2HjTTYRUPLO22+LV+LV117DHrvvjoxj44P334eu6dI+AgamYjKcwD9XW2N1tLa0SviD76EXYeVVVsawjqGyAS0FDFVeRQog0NolCHh/8eN46pNbkRE3O/kBQa0AKXrCxWKk4dGjgBaYTgLbrn4IVh20IZIYJGg8OBEtazEz3iwKqH+8BIWGLlBRaWge049sAUefLnoTj390GVLJ3uAkO5FjKggjIJaZDKekYdLVvqQNW696ANYZ9j3hZ9BCIChikaTgyOjgyreZx/lcAVkFGKoGDNRACWhimh+LN/mwXEsola8tfBD/nnaHbGhBGWF1PgPr15OrEJxRQQu0yRmDH407CCvyXAUy/6VwTACKgpTHyl9RzkG5AEG8CASuviWhNc/oxiedr+Dxab+XOg9BnYrA40B3vHBKCC75d1NDIjMYP5RiQN+VDI3gZMLAczLQLjlLRcB8cGYGjy5nM6mFp2dexcTXL4FTF5QXDjxgnEOGVtijoJQ0MwDq3MHYdMye2HD4tjDJ4ciGEPqTW1ForAlWpDA8vSfkVUhhqwyenzEBL8y6N6hmSLmVTAaWxNahGfQq0atowcgkML5jR2yx8q5BcUAZRQZZgr+FeTSKjKi8goUyFr5WIYbCACEoPCI15kVDujDdt7HouV+hzf2AvGY5KC7tN0Bf/x5k3jgPLXhdrA8e6zzd/i6GbfMnAQjiltMccfHSKqVUdi3qwQ+3/SF+f+WVGLvCCpJBwLRFpgwy1PDQQw9JcaJxa66JGdNn4NprrxXXPcmGVjIhGQqqNgF5Cffccw8uuugitLd3YOoXX0hFQ04k6xYwPEAwcOWVV2KXXXfBZptuJr8n/4C/Jc9hxqyZUidhxLDhuP7664U/cO+Ev+Mvd92Fyy+7XDgH5557LvbYc0/ceccduOyyy4STQL7BW2+/jauvukqKJrGaIkMejzz6KEaOHNlniyquQgr8PgFznYWRZnpvYeLrv0Nv3Xw4aBG3qun1Sl0AJrIy/Y0HizRnBmOHdY7F2Kb1xGIOvhdzQc52YJEd2diYOzzAAIL4MoQ0yJKqddC1buG2zHZn4L7Xz8fi5Aw5NCk43TKoEieuccELSdTbg7HT6gdhTOt3YdomTFZklLhjXSD7Yp71HSAoYFCzcIMcvBTYuQQIJoETgMmZNzDxzYvh1QXhABpLwsDn5m9AiqTx8+HaUGwz7ngMTY6X8znoSpf/59iRk5E9ITKubBa7L6yAw/eWDhCCssYqdiynd7IatN6Lhc5U3PbGr6EleoMsjqUyERxgxdLJdCO3u+3Yec2fY2TD+lIHhLwczUyKB2EgAoTA1xvULRFPENsrZ0ok0IUpuO0/ZyHT3JslFJN0yUPKGF4MwBM32qbMcGy7xr5YvW3T4GRO3Q8KiS2l4habwdp/zxRrzhfJiFzbrIngGhl83vMmHnr7T7DrSJ4OALCQqXVHSJY8H4Ok3C1H7YF1Ru6KpNsEQ85PYEFArnvqCWY+fLnuc3n+vhEhhkIAQdyqniHldGk5UBFb3huY9/wJaM18CIsHuJAlrdXD2+wWdL98OYboLwmhiW67Ge53MHzr38NIjhAELiRInn4lJViZVGxi2x/+UDgHrEjIzIKHHn4Y/3nuOUz+YrJY+ozjn3DCCcID+NEPtxXCIAso3XnXndjsO98RTgBJgiybzLoF5AeceOKJeObfT2PFlVbCFb/7nXATnn7mGUlDPOmXv8R5556Lc849F1tutRXOOOMMkYLx49eVwkfPPvMsfvvb32LChAlSvIlkSWYukKTY2NSIC86/AFdceQU22HBDSWlsamzEdj/aDj/72c/kfIZf/epX2G2P3fHow49ggw03kDBI1a3F7NpUZ7irDT5tpvDAG1dhhv8ieiVmGpCzyClhfNa0k2g31sSu449CizUcFk+gkw2R8x2kRAU1FIJT3sS9PAABgpCVfFrKtP57hbCUMh05VOizxS9k44lUoAyxpMimgNZbjxaMxS4bHoZh1upBqqYbkBADUMDYMjHClyZjHE9BWE1GmcxhElMuV2RlVWwQAmAeO3uga2lRjr3GEtz70vmYZ02SkskBAYvpr2lh4iPTgNEt47D9avujUR8rBYKCPHLyFOqCI5LJdK9ghUiOi1LAcayvwiRFFf4IiiYtDQloNmyjG3e+fQWWpD+Bh27h67A/ot9oUTsJjEisgl3XPAxDsHJ202WVWWEjQpPyyQPPgxYgWMptMOdSD4Rxc+pcvRf3vXs5JmVez9YrCY5FJuFQ0tThoh2rYsc1D8GYunWldDKhIGPuwu6Xw4j6kXxZYFFI7Q09O3dLj1t3Rcb/+eZN+MJ5Cb7BDAaWmE5JyqORrkOTNxbfW2MvrN32HcnOMvw6CaFS/OmBDMJG5BwFGTRhr0Ec8BpHhiu71qv3NK2gByEbUxdyhhzKQkt1rZQnAAAgAElEQVTsMyz8z8Fo9T6UmBbrdKfsNvib3ouut89Eu/dKUHxHT2CusRNGbH4hNJ2M8XphU5tCcAmsPXq9f33a6UIAJLmQBY8YIqDlv9/+++GWW2+VDIWhHTxIRcOSJYux8UYb45RTTsG/nvoXVs8SD5mdsN5668m5Cuecc04QPuhN4dbbbsNZZ54p4IL1ChhGYLhhnXXWxo033Ih/PPQQmpuaxIPA+gjManj44YclvZLggJs9Qw0kHRK4DBs6FAu7FuGBiffj4osuxqGHHyr6Ip3JoKO9HYMGD8Idf75DQgwMQ9DDsMlmm1Zv9iJPVqqLhFAqDCr0WfYHePK9qzHXmU5OImwSlDQfCc/HitZ47Lj20WjWeXATww+ypcj/0woPMhYgRLagljyZwANLQQZsCLoEWSM/OE4YOmGCgwXuZ3jindsw3/0ADgvgyEm0DqyUhRH62thjw2OQdEbCJNdAY20Abhh10lMSmAL+wZf97QtAiCqW6nsSAqIe0/1k06D72WVJXQ2zU2/iH+/+Ad36ErimDlvvlTmuT7ViteYt8INx+6CZaYxeUKY4SGMMjmkO4vXLjks5Aq7kiByhQgC6VA9CsFkGUhH8PRtO4KanO5id+QSPvnILFiamIFPHOi6B0ZKwDYxtXAvbr3kYGt0xsMiB8hzYZnDmBs/uoL6rIC4qZ9jy/0Z4MIGsBiRN/oWcERdd+BT3v3495tvTkEk6ckhRggS/XhMjG1fDNqsdjmHJsUEWD930HD09I6WlCRqlCNEADK0Ec8wwQ3BiJk9p1A0Dad9HSp+Bf77/R0xfNBluHY9z75bT7YdqK2Hb1ffHqIbxMHwaRD1ZIN0gBqycxEruGgEjw8NZAyG66fNH33gPgpyUFdBvhM1JdzP8yZj62HEY2vQRYHQhkXHh26shvcnv0fXeWRje8wk8k3HgesxI7ouRm50Jw+BBQElJn5GUMynPWw/PS2PGjBlyBDOPS+aBSrTEGdd/7/33ceIvT5SiRQcdeBAydgZn/voMSWU86sgj8chj/5QsB6YnslARvRBMiSRAoDXy7389haOOOko4Cqxu+PwLz0t1w7/99W/YeZedccThR+DBfzyIQW0Bf2HS5Mn43uabS3jj3fffw7SpU3HiCSdir5/shV+e+Es8/8ILQmo8/rjjcOvtt2H99dfH/HnzhWNw+aWXSWVHZkz84thfoLmlRcpH3z/xfvz9vgkCTGpxBaltRP1BCIfH0GqWg0XeR/jPB49h+qL3pDiQ4bdg7ZHbYrOxuyDpt4jlLfwrg+mKwcGp3HQFKshikdNNgjMGBhhAkHFlrFlY6EFBKJ7r7lsk0dro9mbhpc//gcmz3wBYXc1uxRojfoTNV9oBCTsBy7Ck1KwqIxwUkwmY+UGyXuUBguhupvm6zNcPyLSVv4IyswE6cILzijUeg64h7fVioTYJz705EZ0ZpoK6sJzh2GDMjthg1BZIevUy3RJokmcEoRlwjKU8MT8rP+dfKVtF8i3U99IBQvhpwQaiLGwxcvwUFumz8PgHEzCt9105gbDZH4rxw7bAJitsB91uhml4cOi3JkhgsSkePMQsIOEt9Fdh4YKjFGSWBKc0BSE0Ie7xM/KNgJQ2B//+6F58uugVOGYKVqYJ67Zvgc1X2QP1/qAgDCPFtQIw4FNnSRG0gLw4MC8l4+RWkFfgSziUU+T4KWTMbnw29zV8MON5OB4wtmNDrD3iu2hFq9SxcHWGHcnFyJ58SU8JQxW6IWdSFPMWfQsQsvXihKyiZ5DRXZhOBuiajq7Zz6N74etoXPAK6nnyyfd/jyWvXoqWHh8Lh4wB6sahY40fwa1bF5ac7MXa/ZTftBChDLdR8rTnzZ0rmzpTBe+7fyK+/70tJLXxoYcfwj8fe0xqJJz9m7Px4AMPyMbPwkannXYa1hi3JlZaaSXMnDlTKi3SC3DkkUcKuCCJ8ZKLLpazGbhxn3D88dhq662lFDK9A5f/7nfYasst8djjjwuvwDQNdPf0YLVVV8N+++4rIYSpU6ZKaOHSSy/DySefJFwC8hPIWTj917/GXnvuKc8iB4G8gwcefBDnn3cehg0bJmGJCy+8EDvtuCN+ecrJtauDIHwRyd0T0g5comAjm6+dQZc7D4bjodFqRkJrEZezKBKfJEa6Gy1RCMFBJE5AWOPfme8vVsXA4yDIZivuUpZWTYqXy2DBJHIN/HqyZOBaPHVwMVKZLtQnm5BAC+CRdCaRdwEEZK/Lb+RI4sA1HbZC1aaeS1GW6llQG6TK2qkOgGQ9flZ+JGeAMXdu+gELn4RVh2zuhIduZx4cN40Gqwk6q0eyRgBT5AQjBfUepL5FNi679CTGPhy8xDGk54DruRg4Kg8gqLkL3Okyd3KqpgaXG71vQU+4WOJ2wnUzaDSHwNQaAjKLxKiDUvz8txRdkjMmCIz6nqFRnY2WZcGZ2khiMeF89vC97IbJjCuWgdZ0FylvHtJ2N+oSbUhorUEKL1M35dTSoHCUKRU2fSkPlvaBJIsNVafhfXyqA81jWJBHLwe8EsowvaFMy7ZpMEiacw8MneFSC46twWDGGv0oPLKcIdQgqCIkTpYg58FexcDBN9KDEHajqIUZKD+JQGcLQzAmHdQkp2XCnFL6Lrt7dXiphWgdMjRrfSREv/K4zKAWp2INqxTKL11iJB4ye4CbLWsb0Iqn8qBlz3aw1gA3ZnoZwm1kFgJPdgy3lWc18NyEDTbYQGoTKMXOugYEAyxoxPsZBuBv2T+CC76fv2Wog8qLz+Zz6IFgW0hE5O/a29vF8jNMA52zOuX59F4QmPB9LLLEWgvMzFDvr747+ct1pkRbKWD1jaSqcimJ21x2wcBSkPPOxVwUb5H6TlIDVa7vUrZO/xX9yOXiW1a7qJTL7GE1soKz1p4cOZslredQSUv1fpENoFQgUMh1HnZdqhTIPmrLr/48OGghq+yW5mIss8sFXQ4xtrNWaMDw/zJ9sZJt43oL9796HgQRguzjVf+DFL3gUrZx+LvIVigDlH8clO6JA3YqOYbRZwWe8HDbGRoKuAnBpfqQDUMs9YR82Te1RkQemBbOelB0LYp7MfsUCTkNFLigeCaCAEPzHJDrg74HcrzMlh9qfnj+FBcmX4ZCdMzjgtdiILgaclEpuczLQSiukJfdLArFavINQJioRSWpFpmqXSBina2TkIv4kYsEFhVkdY96Pjf3r9RNyNZL4Oey+WdrJ0iNA9ddBqyE20gQQa6Bep66l21Vz1DfVUMI8j2TClhdfVHEavzD7+kPYc/Vjv5QUpUGCOGx5N+r40mopeTlf5dax1HOQTF5iquEc8lILXuujABFaqvluwUahDbtsIcqXzvigFc1plUDsLUepND7ljWAydEJatpEx7FQEwd6iCHavnJ05jIAIepBKPZAhbSUpR+tflbs90qw1caqNuewgPMzbnj5AEt4A4zekwu0hIU9LCTRAk1qkw0PsmqnWjhUdmFQoPoTbn8tAYICJmyXeu/XCSCUA0IrqYMqDRDCYJZ/VwCh2KZZyT7V4llqPUS9WnE29eUFIKhwUXSzrsX4VhMg8NnKcFLzFUev16rflXgP962wURpdl/neMdABgmp3XI9Irn5+xYOgEH6pqDHXBh7HCxHeQMMdCbvswhZ5ePLCgqp+G91Ewm1QQCY6scq7EF4AYfAQ/Xt00w2/O9+9lRDk6DOiKFh9H0XDcTacfPdEP4/zrEr3Vc1/2Buk2hFHxirVnkoAhDB4VH+PrrX+GONKjVFUuSqLWvU1Skws1teBBBCishbuk5INRTzNZYlWc2OtpAchbOjk0pm1XHOVlstc+4caO2Xg9sWo4tjkkpNq9SPXelP7WNhbxzYpA6QUQ2spQFALOZyPzIcqAammcEcHL/quQu/O9Z1SKrn6Eh3QfJtstSe0Es+Ptj08FpUQ9lwWXjGFXol+RZ+Rqy+5FHE13h1+ZqUBghrfXKGF/hjnSo9fGAyFnx2ez2L9HEgAIdf4hAGP2hyiOrMWOqaSAEEZPKof4X4Xm69Ky1A1n5drn+Fn4X2j0PvzyWZ/AYSwgc2/RwFCrvksNr5LAUKulCM1AEoZK2RZ7KF9/b6SACEMcqLt+joLu5qraNgn39zkG4vo57Ues0JAR6HiWoHXSgCEqLItBMBrPdZ9Xbe5fl9ozMLV6UqRy7iyWo3+KFCnFHAunRjVObWwuCsJENinfHyYr4NMKrnIJ5tRLkKpstkfACHaxvAZROq7fAC20DoRgKDAQT5BVgJfq3h6XwGCWsT8M1cGwUCYwEopr1yKQT1bhU6UsBRSVHGVbi0URNjyLLZYSw2F9WXcKwkQVLuLecdqmQHTl7GJ/jYcWsj1XDXHil9UqhLO98xK9iHfs5SVWcxVq+Z4eQMIccmytdAF1ZjPOAZFMb0T3mOioL+/9pdoqCQMZnOBhDhjq/kxZ7k/FXExJZpPWcRVrso1E3Mo4oxrVe9RAhjXFcbG5GLoRsFFHKVbqzGKuqELyUC04FAcBVDOBFUKICi5jDuWce8rp0+V/E0Y2IU3z2LvKKSMc/U9Lpgt9t5i30cVfRhwx5WxaNYU3xn3t8XaF/6+Lx4E1U9lCMZ5b3h+w/NRCzAUp33RsQm3K65sKiCo+hedt3yy2Z8AIRfZMp9ejxOmLQoQwp1VAlRthVWOByEs5GFBL2Ux8t64oKJUIa3U/VFwkA/JRlEt/12orG1cpVuLuS8GZnKNZZhpXQslnE8552pbWCGVIl9RRVbtsS9XRsMKVHkOwhZLoeeq3+aTzf4ECOE+qM1Cge1SxiqaOVWKTor7nr4ABL6j1Ph09H0DXTaVMRUXHITHPR+AHUgAgf2KAw6i+3kx+kBRgBAV0FqAhHIBgtos2cZSkOzyIuxq44uDZHPNW1jJxX1GdBFUQxGoZ+bKRY6rINXcx3WPlvJcdW+pHoTw70qxzgpZhtUY/3LGIgpAw9ZWHM9UPiAVB2DEBbN97VeuTaKczV3po1LAYalt7wtAKBUcRAG4mo+BKJt90Znh9RuVS6VvcunZWnsQcvEH48pPsf1c8zzWyyrtyqfsStmUC72xHIBQDgqOKv6wFyKfAJQ2UpW9Ox+pq9SFqYQ9jiKvFkDIJStx4n5xRrRaIKFUgBC+vxwlnE8Rq2eF5aFSay/O+Bba3MtVjup3Udnsbw8C398XBRweq7AMVHq+SgUIql0KvJQ677nWgnpWpfsWt23R9+ba1MP9jvvcMMjgM6P7RBQsl7sGSmlPeL3EIfsWe3bYyxWe27IAgto8qyUQcQCCWrhhYBAetFI2zUJWQTVRf7FJU+NcLC0sbl+VcKtxCm/Ica2yuO+K27fwhlCOdZbrPWG5jNOOuPeUAhDUWIfls5z+5VL8ucBwOc+O2+9iYL7Qu8uVlzCxNvr+uLLal/4p/VJokynl+eFNpRqp4+UAhHLBQRS4RjdIpbdKGZ9K3RsFmvmeW65cFtOZakzjGF/l9rnS4EC1I1rzQmS/HA9CuGPVsNZKAQgcrDDpqxxFWUjxl0ooK3fSC/0ujlCW8t4wQAgv9jjWWrkLq1D74sTOSulfFMCW+tt898cBCFGQGpbPSsmmAh9hi7ScZ/d1XMLgrpKbNp+lOAlxZFL1o1KyGQXQYbBX7piFrcpq6JRSAUJfwEEhgBCWzXLHqhK/q7TODLepGHgNz3W1wFKlvK3RsY7u530GCGFrLTow5U50HIAQVgp9VQy5lGv4s3Ldw+X2P5cwFlKC5fY/ChRytTf67HLfFX12pS208PPD1lpfFWH4uXEAQiXlspgi5vfVAOhx5JZjESeLpi/yks96ryQYydfXsNu20uBLtb+S3slSAEIl3qvep/qi/h3+vJJrL45M5tMppYDMOO/hPQQJ+Z5bbYAQJlxWas8Nz+MyRk1fPQj5rLW+NDwOQKik8BVT/FEQFFeI+nJfvrhnNYQ9vBFFx6JaACFsffZlnIr9Njx3xe4t9n0hOVGWUyXlMgoQ1JpS7wpba9EaJX1Zf/mAoup/viIscQBmsTHO9X0YiBSy5vsCRsLvrZZ1lgsk55LPcgBJIYAQVv6VAAf5gGsu3VFLAKtAK+cvLAvV1JlheQzrgOh8lCP3+dZCOfJR6vuX1mmpFECIAoW+dKIQQCg28aUORBwrTT0zXPik0O/KaYP6jULBpabW9OWd4d9GrbZKAoTwBhe1OCrV/nzPCcfXypXNuECykn2JYxkqxF+pDbJQ+/MdnFYtq17JTJSQWUkwEt5Aw56RSs5jLnCg5jacj14usIsjJ5UCB6UABAWA1LvLXXv55kLNXTQDKjyO1QIIqk1R2ay0B0HtCVHdXG35lHmuBEAINzTsnii3A8UAgprw8MIu912lAAQFgiqx2eRqb9iqDluJ0fHNpWzK7X94DHNt4JUECLXyGuTbPPpq3edSbuqzsExWSi6jshmen3x9rKbFRnDA/ka9FWpdVHLTLrQ+qgFGvk6yGZWTvsp9vrmIfl5o81d1SioNENQaKcRjqjZAUG2olgehGiGFuPtFxQGCUhZRoSwFGRcSolwehL4KXTHLMDyYSgjCFdLU933dGKLFYnKNWaWFPR9AUEJfLkCItr0/FXB4fvqiLKPuxHxAra9yEJW3cPvDVkR4jMPKKU6FtLgKQt2nwEGpm3O++0t9fzFwVAikRAF2LgOkltZZvr73heuUz4PQF3kvNEeFwHIu4MB2hIvylDr/+e7n5lmINJhPLioll7nWalT3lfMu9YxcBZ76ut/FGful663SHoTwy8u1tPMNQDkDHWcwSgUISugcx1ka6yp30tREUMjLJX1VY1z6OgfRzUs9r9xxijOPce9h28rJfCkEEKoxBwqk5QMI+YCEAq9KTssdc44RZdKyrGWGthSQWo1x6atshsdlIADXKIApJxSQCyDEBU1x100+eVOfF5KzagDYcFihkJyVIq/ljEV0XPoKEMLgoNy129d+LJ3TagKEsCIupcFRYS9mAZTy7Fz3lgoQ1ARGOQnltIPvjhIS+1PYc1m/heajWJ/Dlll/C3tUjkq1rqLtr8bmFx3PfJZhofv4nZLNXOGAYnOmNhYFWuP0u1TPQpw2FLsnTrsKPWOggQPV1nI8CX1Zo8XGOa7OLAYQwv0rNxSWy6BSzy1FBqu9dvs6H2pfKGduKvmbqoQYciniMEkl1yaUC51GJ7HY78odmFIBQvQ9FHYl8PkEQ30etazD4EB9N9AAQthCKLQIo30PF3gqd26q+TsFEEpRFuF5rGbbwmMeVoBhwFVozfA+FfeN086w7Kl3DMTzEaLWGfsWd07C+qNWmQpxxj7XPaWChFxjUC19GR7zXDIYB+Qq2cw1n9H9Q70vDA7CukZ5J/KNda08CIWMqzg6JpfnoJpzGEc2qwoQwkonaq0VEoxiEx6nY6Xc01eAwHepcEO0X/n6yXfmShfjs/oTIBQatzjzovobts6KKYFS5qrS97JtpVS2i7sZVaqd5XoQwmsvbuw3rKAqRfqKoxgrMVZxZFO9JxrXrcT7K/0M9ifuvIU30Eq3I9/zcunMOHo0rAvCICEX6AjfG5ZNBe5y6dpc7a0VQMj17lLkkr8faMC1JgAhbAGVE1+rttDHEWzVhkL3sm+2bS9znGsuAYkSa6LPHKgAIc48sO1xyJZxnlXLe5QHaKCBmXIBQnTswryEQpYW+QaFXMX5AGw+mR1IACEMWmspW315V1xPQqkbUV/alGszz/dZ9POwAaGMxnxcruhaVFyYfGu0FBmslVzGGedcnoM4v6vFPVUFCLmEtlSLrSaDoGk5XxMXJSth48avUHGukIoKJ0TJiF8HgBBe+OG84P6wbsqVmbjKuNznl/O7vgIEzosqHFMMJETJiIWARPS7UpRzOePQl9+oMYjK5UADg4XGe6AZVnF1Yy7gkMvyz5UVpsAo3xUGB2GdEl0fucawPz0IceSWfSi2J8R5TjXuqSpAyNXgsOtsoCzQSngQwgtBcRKi/aNlXSwlJ5+FpsZyIAu7stCilcyqIbjVemY486aQVVSt90efG1cRF7P61fe5ZFN5tOKGT0qRwf6w1NQ7lYGSryppreawEu8ZaIZVXLmMs4b4rDBfJkysDYODcnRjvt/0h1yG5SBsVEaBayXkpVLPqClAUBumGpywxVZMwVWqw/lAS9zPi7Uz7DUJW2wqjzyMfgtZDKV819/CzrYuD3HdODKkxlK5P+P8ppr39NWDoNoW3vyjBLFoWKGYPC1PAGF5DCsUWvsDxZNQaYCgZIrhBgUQKgFcBypAUPvAQAYH0sZqpjlGBT2M7NXElUIQq5YirpQHIYqWlSJWgh72KBRSwqV+V0yhV2vcwptPtNxoMSBV7Tb19fnKYuvrc/r6+0oDBNUexZdJJBLyURxXrfrtQAcIYblUAEHpm+VdLtmPclME+yqL4d9XCiDkCq8SJPDzXFk0perGgQoQwmGFSs5LpZ+lua7rV/qhhZ6XCySErbX+WMCVAgi5hD3XWIS9DLm+L3UR1AIgROctqoTzfV9L2arEu8L9KKeYUiXakE8RK4BZinIOz1P4uVGZ+ToAhDAAV6CnP/RJpWUgF7jpb09CKTJYbA7C3q2obuyrXA4kgBCWz+XFoKo5QCi0IYaJfdVYZPmeWS2AEAcoLW8AIWxtDnT3WCVkSIHX6OZTiWfHeUa1PAjlymapCrcW4DXcpq9TSKGYfPRnGKxSAKEYeIiOQanGU6nyWmzM+/K90iHLk94cEAAhPInlVn7ry8RVCiCEN89i7SlH0Ptb2MPWddh1W6yvy/v3YZBQyhxXot/fAoTSRvGbJJdKHwwUnVmKHlWz+k0ACGHPX6n9LU36K3/3gAEIStjVJlRLi60UwS40waVM/vIIEMKLupS+Vl5sa/dEJYf9Za19CxDiz/U3ERwol3ytPDWFNvZS9Og3CSAooyIaSokv2f1354ACCGELWSnkWmxEpQh2pQBCPm9Aoc9r7UEoFNONxgr7T4Rr++ZahxwqBRDiej7ibDS57sn3uzjPq8QMftPAQXTMag1gvw0xFJfa5dlzsBTA1ZqkWHxYvyw1XCuQUCmAoJRwIaUYZ2Mt1bvwrRKOI1WVu6eWIKGSAKHQCMSRS/X7bwFC5WSpkk/qL7ks5g2ohZFXqsFVbZ35dQAHsp8NRIAQVkTVnshCllUpKLnSCz3f80pRzpVq0zfdOguPY3j8ay2bYaUTndtaKeFSvVjVGqNof2vZ/0qtq2o8p1aehFJ0Y63mphQvVrXkMjynSm/WMlxeaZka0ABBKaOw0FdD2CrpQajEBA0ED0JYqJcn1m0lxr/QM9TchGO/4c8q/f5aeRBKaXcpILVSijj6nHwH9pTSj6/bveE1W+36Mt8ChK9KT1gPDNTSyaXK/HIBEMJWSzXQ2LcAIb/YfOs9KLykwm7dQt6oUhdmLrftN9mDoPqu/vwWtMaTy3LlrtjvvgUI+Ufo6ySbAx4gRN271Ujp+RYgLCvs4fGohsemmPJZ3r6vZuz3Ww9Cbtn8Vi7zr5KwEVWtkMO3AGHZ8ec4D7SjmiuhR5c7gKDcOJX0JHwLEAJR+roQayqxMOI+I2zZVsqdHn73twDhqwDhW3AQVzqDNV1tuczl7conw/FbXvqd/clBUDKpQo9fFxldrgBCONQQPU65LxMSFyD05R2linuthD0aP/82pFDqTC17f6Vjv3EBQjXCG/lGohYchHycg77Nzjf31xzPSnpfv/UgfJltF/UcVNJ47W+JXe4AggIJlfQkxAUI/T1ZYYAUDb1Uom1hFFyJ530TnxG22CqhKEoBCP053qUA2jjtjI7dt8A1zqgVvqeS3oRSAELfW963J5QCaOO+KcoHqqXxGLeNlbhvuQQIquOViv1+CxCC45orsaFVQiiX52eEgWslxvObChCibuuvqwKuhaxXg5PwTQcIymOnQgq19ODVQmaWrr84dRCiAqaEI3xudxidhgct2plSYjS5TiyLWrlRVBxW0DwuNIoecyntQson+l0llH6hCS72/L6gYQ86NM+HZqThQoOnGTAdA6bBv/vQfAO2noHla/B8C67uw/Qz8KHDcC34OuBqLny4sHwD/MDn78DPNEDTaym7Jb3L93zoPmCbLn2D8DULBgDD0eDrGg/RheZ7cHT2QYPh8/95HroD2zRgegYczYcB/t6DrRuwXB3QsjdmW6PmLyyHJTU0cnO1AILmsXei1mDrgOV50HwXtsnPOFYOdL+Of4Vt+DB8DxpHxDfAn3Ks+G9H5y0+TC8YCoffaZCxlif55R8WWxWvAZvDboTGmSMRzBv/onOG4egOktJ2AmcDmsZPdfhw5E8+hCNgcnx0QPd06JrXl6mu2W+jXi722NUSMFwfnhH0h/NruBp03YbmmzK3XONcP4ZryFLXuf5FhHzAA3RNF9nwsjJhZOde5KY/LjZEd+D6Brjs2VjHdKDxL64hcuAZvTDtemm0Y6SgwYJGPYk0fHbSSwQ6TrdheBpcTecSgC73LCvjX0cQqzmOU3AFh+NWanMPx635Ge+JWqD8nOeW83P1jChwKDSguTbKaFgh/Hu+g/8pUKDaFUZ2+cDJN8WD4PkaTM+GDw+OacLXDCQ9LhYfrkkQYMDXUqL/fD8ZaFHdlk3B0bggXOjwAkXAfVLnIuNNXH2BwhhoFxe35zuw/AR8N1Be3Lw8yqfuIuFlNznNQ8LWRG9kdA+WZ0Ln2PD3GoGTh4TvQfe4EwI9hoGkq0OT/ue/+rJBhmU3/IZKKCIHHgwBAuwvJ1yD4XGr5+7OTd6BkTFhmwQQLuo47x43DxMefCR8TUTDMQNwabmAZmvI1BEsElgGslBu/yvRx1yzIhtdVrMLRiL7XCEGlxsBQS8/dgUUEUjy366RFhBgeATKXlaQPAEPAZTkAAw06S/cHpkb9t934cCAoZnQHB9pizLvoZ5bqWfD0QmGErA8DZpvQzM8aF5CjAxfD9aXCQOeMPmpQ2hsUIwoKc6NjAgAACAASURBVFnEWOOhka4JaEmj13Cgu/WwfBOemZF9Kemb8H0dGasXSTuJjG7ANRwkqO60AOxx3gmOOEaOFqwXfmaxZ/JljTvVD68rCBDUJu04DizLksWurHrTNGWgwws5CgAIDvjbMHjIBTJy9Tsc4+F7Fi1ahNbWVrmVICBKuIm6dsPKNfydylGNtjvf2FdLUZU7133xIPC39Ag4JkXdgOaZyGAJGv0EUiZE+RluYAo6ugHdoyWtwacXwcrQnIbtWzBdC9ANONxgXe62hngXArAw8C56PRz22NVFCXLxiydFd8H93qb5S5vATYgV7ZkufM8QQEQtYIqV7YjGMb0EdCoXwiydKlL8DEU7XY2Nsi+ySUvf8G3omi2bXUZLgl4FbvyuYcPWLJgERJxfyopG5UhL04fB/ZHgQqOXiTrABlwLukf/SgaazlERV0RZAKEv/So6EcvcQACowXcIejkgxMQZ6ZtHgKwRNOvQdFqTAViEnRRA4WncKLlx0LJMQKfFifpYslBaG6t3t3gSsvDeN3tg+AkkHB++Y8G3HPTqLpJOHXzdlbXhGB4SngNfT8MxGgKwIJ45HZ5OsGDKv6kzBHvJhtpPGymnyyPYc2H73dBSFlyTvgEXCSThWL7ILtduwtGQNgHTpfxyPnsA14TnG7A8G5pVB99PwLU0pEwbSdGLA88YqoakFPUgqJc+99xzeOaZZ3DOOecIKPjrX/+K+fPn44QTTpDNmpv4ggUL0NPTg5kzZ+Kzzz7DBx98gP/+97/Yf//98fOf/1zu43e2bWPUqFEgyAhfYfdsGGykUimsuuqq2GWXXXDjjTfmjJWHvRiXXnqp3PeDH/wAd9xxB04//XT87W9/k3bwu6iyzhVGUACDbWWfwsUvcikw5b1obGysxjwVfGbczYf2v7NoLjr/9U+09PTCNSy077gbtCEtcOkj1ExxEXOheHSl6Wngnbex8OWX4Zk+/EGjMXzX7eF4dbCoKy0bJhWCm4BLN/0AdLGKl9PT4Rou9MWL0PnQ47AwXwDQiG1+DHSMAnw7cK1qCSQIHHxaTS68Tz7AgpdeRMKx0NM2FKN221EsSo6N4XnwCRqy7uZikx53jqLPqdZmqcsc08RKi+eIFiRcG9OeeQx1s6fB8BpQt944NK43Hr7WCN+jezkje6SV8SC+9c6FWPDkE9DRhQWNTRizwx5AUwt0h2GsADSV0+9q9Tk6tgw70To0KOuehykvPIP6Lz4VV3JynfVQv+GmjEEF3gJYsuXRk0R3td41B3OeeBSmnUKPmcSwbXaD2TE4iK8sTxfXhwPMff7fsDs/Q8JxkRi1Elq+vwV6zQQ01Ak45OcuPU1aBuaSxZjz2KMwu3vRVdeAYVvtiLqOFrgM6WoaLI++AyBtBGLCcF2trwD4eNAYMrU9fH7GOTBf+zc1IJK77IeO40+Do1uB18DRYRv0MpqA46H3xSex4MIL0Gh7mLLKWKz12wthtK8EX0sgYwBJOwDMnoqj1bpzNXxfUYDAja+rqwsbb7wxHnjgAYwfPx6vvvoqDjjgALz88stLrfp58+bJJl5fXy+b6dy5c2VD5v1rrrkmtttuO/n8yiuvxBlnnIEXX3wRG2200VcAAt9FQEAvgdqkP//8c3z3u9/FQw89hE022WQZr4VSQlRE7e3t8t3555+Pyy67DFtuuSUee+wxHHPMMbj99ttx6KGH4oYbbviK9yGqkBTY4LMffPBBHHnkkair40KhNf1VaWdb0+k0Nt10Uzz88MNLvSy1msd4SpjOPg2662Deby+Dde9N0LQUujbfHaOv/aNYP7SYHcuF51gwqOg6P8Wsgw/AkBlTMbW1Ax0XXYmWbbaE6yZBGzpjpmESTbu0JAcmQKBPUHc1+PQSZJZg/vXXwb/5aiQNG0vW2hIjbrkLfjIJn1qMsVUJoNvwZk9B51G/QMvnb6LLakbjJX9A6w93Fs9Jr2VD9zUkHQMe3c0x94R487Ss1FRrs6RjXcImLr0pJtI6kNAz6H7yAfScdjZaMkvQNXQUOibcjdSw1ZCklWWkYdDV7GjQMkvQeerJGPzkI8joPhYddgRGnfQbZExa2IF7uVSAUK2+5luHnA96A8Q5oGlI/d+LmHfc0ehYNBdz2tsx7L77gKGj4Gv18A0dJq1rekuQwoJLLkPy7tsl3Nb5kz2w0rlXwSMoiikLtdINcd6jOR6cdz7EtGP2xIglvZhrahj+94dgrLZ24IbXHCQo5l4SGvt+zeWwrr8amlGPedvuihX+cA18M/C9aJoBix4FQDZTepsCTV7ji5wSAjpDB4U7MfdzLDx8P7ROfhdz61pQf8Ef0LDDPsgYHkwt4B9RarWZszH7gD0xbOZHmNPcjrZrb4G+2XfFuyprJBtWFB5OjbvUH6+LFWJ49tlncdxxx+Hee++VzZ6b7OOPP45rrrkGK620kmyaDCV0dnZi8ODB4mk47LDD8M4772DYsGHiXeCmS4/BQQcdJECDIYOoQuC/jzjiCNxzzz1LLXaCikwmGzdKJpeGK6IksKamJkyZMkWARW9vL6699lo88cQT+Pe//y0A5+KLL8bChQtx0003FQUIYf4EfzNnzpylIZZ83gNOHt89duzYr/Sr2hMbe+PxbRgkWi1ZhM6jfooh774CO23CvvRPaN5zPyHneJojZEXf68Hc005Cx8MT0G1a8E84BU3HHAvXT8Kii8734RoeLFqLjD/qEm0ceJcEIn2kNJdRVpipxfjiqP2xwqsvwHbq4J3yG9QddgR8o16sHyqB+vRCLDr/PDT+9V74ZgYLD9sXw06/BI7dApg6MnoKdcLEIoGJVLX4V+y5yj6yepumjbTuIekaAQGVYRTLgekswPwrr0HjXdeJq7jrOz/EkJtuA/wGOHpK3LaGZmHRPbfC/91vUGcvxMLNf4jh19wK1LfTABPvgZYN9Mftb/X6GZmbLEmRn4ohINwapewzWHjbn5D446Ww3Ay+WGcTrHrbo0AiCd90xCKl0dj94H1wzzoNzV4K89ZbC0PvuR9prRmWnogvCAPoTlvi671I/f1uuOf/Gq2ZesxcfSWM+Ps/YdeZMHQdmlMvnJyeF59G1wn7YZDXgzlj18Kovz4MNLTBMQkKDBkfMxRiEJ5HP3hVaMcJoZCeBN1DnZ2G89pzSB99DJp7ezG3vRWD73wQ7tjVYBgkJ7nQNRNfHL4vRr7yPHrpSTz9VNQfeAw0NIu3TdeyHkP/S4LiAJrGqjSlKEDgInr++efFAzBkyBB8+OGHEl449thjMWbMGHzxxRdLeQbKwqYVTav7rbfewvDhw5dyF+iqp0dhww03FJBAUBFWDMpNrz7jn9OnT5dNl56HE088Mefmq5QQgQgvPnfzzTfHySefjP32208UAa370047DT/96U+/EqLIp5zCxZj4XNW/fCEJghlFzKzKbOV5aBwlHLTZhyuuccCY/Clm77UHhvfOxEytER0PPAp9jbXgewmYriOKEn/8LRp0H3N/sAtGXnUdXC0JnVEhn/F4hiOCLAYyuxmxH4gkRXrRPXjoNV3UOSZMR4e34HN8tucPseqiReh0Emi/+17oG35PNklft5G+dwJSl5yKlkwG89f7EYbdcSNcqxGGbcGzSM6kq53ELbITSrck4syXmupqbZwMvzIJgwS0pEOZYEyWpG8feiqFzmMORsubTwsZzTnxfDQdeiQciyTXDJy338b8o/ZBx+JFmD5qVYy+bQLcMStIqIYEWHIT1KjE6Wu1+phruSiSYsC+D+5gqIEeM1fTYKS6MOek49D+7KNIIYmeI36J9mNPRMb0odHl/smHWHDgXuhYMBczh4/A8L/cDQxfFZrWUJI3qZb6odi7OP627yKRTmPueb9By8N3waAO2O9IDD7zYni6AZvkvJmfY9aBu2PU9Ono7FgZHdffDH/8OoBvEW1xR4ZuMlwVWO9C8uwnkqJ4hVyGQVNwNQtJm7wpHwvoPfzjZTD1HnSN/z46brsbGb0JhHaL/3IjcNU5SDgOerc5AG1XXIlMwoQlrhCqPPJMWJmyTvJZvglX0RADN1uGFH72s5+ho6MDTz31lLjdzzrrLKy88sqgd4FK4JRTTsHkyZORTCYxa9YsvPTSS9h5553FazBo0CD86U9/El7CuHHj8MgjjwjgCFvq/Lty7as/6TlgaGHSpEn485//LG58WdDZuteKqLjWWmth7bXpDgvKivL5H3/8sXAP+O/7778fU6dOFVATRxkpvkG5h26ojAr1rjhKsprCtrTPvo+0YUL3bdkse/77byw+bj90uL2YMmwcxj7xLDS9Hs5bT2Ph0QdhUG8Kc8esiY4JD0KvHwyf5FCmNGokJjFgoWUZ4QHZJ4jHD7BLMrCCjAWysI20Cd9w4X/wOubstyeGYglmtI3E8AeegjN0CKw3X8SCY47C4Pmz8cUKK2DM3Y8C7cMlDM20r4CsRsgRpDr15epPuQgsfJLtgoQ9CZWQWkDCKb9ZMA2du22L4QtnYZbWhva7H4a7wdpILp6Lafv9BCM/+Riz6pow5NrrYW2+HdLiR2Ic15O0sjhGY5y12JfxjfPbkEMBnuYG/JsFCzB17x9hxZkzscDX0fDnvyC58ZZAphudB+2Jwe++jiVJA9bvr0Pj1j8WT5LDUBYt0eXsYv9tyWayhWTquxlM2nNzjP1sBpaQb3Hp1Uj8eB8Y6W50HncM2l94GL16AtZvrkdynz1gM9vF0wUwB+RNZgiJlg7Ac7/towQoAQ/C8sQ0ErItaYhTfnUCRj/8D6STGnoOOgLtJ18I5703MG+f7TBUT2HOmHXRPuFhOC3NYvgEHeJCUfNLOLF8pLT2VRyLAgQuYpWJkO9lvIcAgCTFhoYG/O53vxM3Py1+Zj80Nzfj+OOPx6233iokRwIJxvTDxMLws5UngdwBAoM99thDLPPoxfcy1EFwwueGPQkq00Ft8qoELp9RbOPnbxmSuO6663KGQYop9kMOOQQXXnjhUm9Csfv7OonFfq8UsewBGuNyLnQvCcvpwYKrLkDrTTchlbSQ2Wk/tJ15MjoP2htDP/4Q85sGoemGu5Fcf2OkLRMWSV3L2SUbgGo2sxk00pQMJJxu9N5+Dayrr4amZbDk+7th8IXnYvrxB2HYG++jyxqE5j9dj8T3fyCu02pc/S0XefvElEfHQ/rVf2Hh0QejI+NjzvBVMfTBezHnkvPQ9tDDIBtB+9VZaDr0YEmJdYxEUBdAamIEfJdi10AACMu0UYxgLfAmvPYCZhy+O1ZwgOmDh2PkhL9h0R1/hn7XPTDcXvQecjzaTzkDgImUySRAhpz6BhiLjVc1vhcXvKbDYkYaw3GGD2/KJMzdfRsMyviY39SM9tv/gu4n/wXzhptgm4uBPQ9A69mXgYmQruUHqb8D7gpqefQaSSQF2Kck+4ikVG3OJMz4+REY9vk7mNPQhvYzz8OUq6/CKnMm4dO6Foy962FYa5Ccu/zpu0pPQ9EQA1+oXOuCC7PWOzdsVXNAudbpLSAPYJ111kEikZAMBoKDkSNHCsjgRs97/vGPfwiA4DNIalTeA6UweO9RRx2Fu+66C21tbZgxY4bcl+ui9+DAAw8Ub0E4pZJtC6dhhjMkVJ8KAZ6PPvpIMi7YD5WmyWeQI0HgwpBF2APC7whC2AZ6WugpqWTt83ImPqyApaSBq0PXu2XDsxkvdV1YdgqdB+6FYe++grRuomfUqmiePgUZegjOOh/JfX4G20zAYkpTNnWtnLb022+yZCWfW5cUcHFgemQte6hzF2PaUUdg2AvPwdXq4I4aBn/WNElxxElnov7QY+Dr9BNUT1EMRJAgiR8gKc/D3Jt/h/prLpeaD9bKK6N3xnS4ngt3553RcuEfALMZhm3DtQzAMyX1k7yMOFHagQYQhH+saRJr13QfS+69EZnzTkcz0zlXXgP+lEmwbBfzttkRwy7/E5BsgZPwkEEvGtIJeGZQfGe5uoSoGRQIYwqr6ZqCqLsfvgPar05Go5ZEevRoePNnI9nbgwUbro8h1/8NmdbBMO2gSBpIBBxwFzNUXHis7UDgRiKiuP2Y4J2B88ZrsA87FIn0fNgJTfRBOt2AxitugrHj9iwN10f/4IAbkLIaFAsgREGCelPYhU5Fx81/n332wX333SfcA/IA3n33XfznP/+R1MZVVllFNv3dd99dyI3bbLONeAhUrJ8bMTdl8gYYImDWAb0RBBz5lAlTKWmt04ugQgyqfQoUhLkD6p5CyilaIVLd+/TTT2PHHXcULsNFF120tDCT8m6U+p6yZizGj3L1TQAMrT49JZkHHst9SJU8Hca8KZi267YYvbATmptEl6XBO+BQtP7qPPisG+B78CxWVMsN0mI0qd9uYa9JUjKdpBApGUOXXE5JcXKhd83ElH1/grGTPoWme3DcOnT/+MdovfgSuEnmepN0UV0FONBAAgMoGc1Fg5sAUgsx7ZdHYuhLzyPhdyGtD8L8VdfF8JtuhD14rKS0OYYtm4psLpL7HtQXKATA+00gCryY4TP6l6QKGBplI5n9qyPQ9tgTMF1fmPqzVl4Fw278K7SRK4qXJGWw8qgOK5WAm1j+iiUF1dA44wa6DQ2NjgZTuHgZzL7wJDRMfAANNHw0B3NHjcbQ626Fv+JGEqbTffEjSRGlgXhJwS5xPLNOA+XUh+Y6MFkwyXPR+9AdsM44C0k9A9t04O95IhJnXwDHtLM1HwZmv2o51kVDDIUao6xmAgP+/e233xbOAGseMBOBwGD77bcXLsLWW28tYQbyCRheuOqqq2SjZbiBmQ4EBy+88IIADIYpJkyYIPfSXT9x4sScAIEb4eGHHy7PJSExjqKNe0/Ya8AxWLx4MbbYYgsBOfSAEBTwWUynZIYHsyjCgKSWk5jrXblAghvwFGH6pBEFZy9IGqChIXXjVbD+cIk407va6tB496MwVhgvFjTz/aU0r5QkXr4uqj4CBFZL48blMFXP1aDpSWRcIKllkHngDvjnnQ7Ld7CkvhHN108ANtxErCpd4unV8yBwNOPIZE1HnXLBqXZsKSyFudOQ3va7SDgL0eMlkTjvSlj7HQ6XhZQ0DRl6DUjZlISRoLKgqlYY7h9lcqB5DcLjaguosZFkZVGfFRR1mJ0fY+5eW6NtSRpO2oFz5nlo+tmRyBgN0P0MDM1HWqtHkimQJaS81nQ+C75MaHdCOpa5Yl0M1tvWfehL5iGz85Yw586G4/lwDj4KybPOh+eZQaliw5WAklllAF3eWAWBLhpBAaFYy5aAJinVg2l4sF96CqnDD0Oznobr28j89Bg0/+YSyVZhUSVDZPmbffUZIKjh4wa63nrriddg7733FpDw5ptvikeA2Q50zRMYMFVSeQxIXmQogV4C5Z5nBgRBBsMSJBfSi8CMB3IZwpey1pk2yQ1aeRCKAZq40602e7aL7ybB8cknnxTyparoSK/Id77zHQE3TO1saWnp97BCtH9fKuQvFYHJstQ6FZuLJIk3i+Zh7q77YnDnh0LsyRguenbaH20XXw7PsuAgAUnxHoCFkIrNp0tCoeYLi5lpmayAZ/s66nwLmpuBtmQu5h12OAZ98H9C3swYOuZutRtGXHYN7IYWwUTVrLE/4MCB7BJBQX3DzACpXkw/4yy0P3E/DJN16w3MHrMqhtx8D7SxQ6FLDQxaaEHOO0tYSzgrhq99oIEFj33Odr/XyKDB9jH/3FPRcv/dImZc57OHjUHHTXdCW2WcVFn06JoWTo8pxcOWu4slkVk9k4BA0vdYNCwFZOow/+rLUHf7NWh0bFIt0NU4FsmbboKx3pownRbJgHF0lt0egORMFsDyfaRMhhiCjArd0SUd09V7kfjiU8w5/HAMnTEdsLuhmz466xvQevm1SP7wx2BSdDVDi8uLnFQEIHChM32Q2Q5MbWTVxXCaI8MMjNnTK0BvgiInMpTAQkYMJ7DIEZWl4jXw78yW2HfffbHZZpvlJBbyvXwnCyMVAwilKGIFPhQ4uPrqq/Hb3/4W//znP7HBBhssUwiJ9RwIigho6Fmg92MgXWElTAOHqDqts6Qu/8H85iWYfdS+GPzKy+hJAEbzCNQtmIElzI0/7dcYdOhh8NxGOaBEheKXJz8CdTZj4sJO113YZKrTJeqyYmQPZp52AlqeeAiumUBi8BDo86chRTb3z09C89EnwjPrAgJzjg0vLhkvnzyUIpO1k6mg/C49L4mMjwV/uw7mZRcgyTj8mFVgTv0cGS2Dnm12RvulV8GrGwLDdeEYrKFBvobYarGSPwcaQCD+FS+TVEv04U6cgK5zf4kWlpgevRr8aVNheL3o+t5WaL/iBvgtw8UjJamfaIKxHAJoTjbrXdhMcxXuiA7Tc9Hz5GNIn/oLtHqLkRq9IvSZs5BMa5iz3gbouO5m6K2D4RmmHF3F3IABd0lZeRfdZlLI1ZqWhuGwCqoBrbsTc08+Ea3/ewq2VYfEwT/HgrtuR0dmHua0jcSQOybCWGUtKdP85UXgG498O+DGog8N6hNAEGMjW1lwyZIlUlCI3IJwHQSSFHfbbTe88sorspGzKiJrGzAVctq0aUJAZFlkegrCZEiidQIKeiJYgCnsQQi7KkkGZFGmSgKEMJfhL3/5ixAg//CHP0jp5u7ubvmPNR1ItCRAIEi54oorJBX0+uuvl1TPgXQtzWKwDTmNzTZYT5ynt3lYeNNVSF57OXykkf7JYWj96d6Yd/QhGLxgNuY1t6L52ttRt/4PpFCIWOC+iXrbEIvDMV1YriPeCFJ/AvfywLrEqBMriW2m54TFgBg68LH47lvhXHEOGnwbS3bYC0MOPQYzTzgUw6d/innNg9F81e1Ifmdrqb/ODcP0GmQDYXlW09aQTtCtLrX4yup0fwIEntzHipAsasOMFklZRUritKzJr3sZpP/vdXT94idoY1Gc4Stj1K0TMO2k49DxwZtI+waMk89E3WGHSJ16xnUdz4XPIkkEClKZrvDVbwBBDhLKAl5613UeQiVlwmBISWED3gdvYd5BrCzYjZljxmLYTTdjweWXoeG5p6XccM9hp2DwCacDpiWHVHlWQIRb7i6OBUm7chYF13cGxrQZmLv3juhYMA9dg1vRfOtdmH3brRj0yKPw9cVI73UEBp39WwnBaTpBAutjBNmA1AssQ84Sy8yO4FXe6ujbSArMZQEoOxHoJ57U6AZpzguuuQzGXVdDZ5hht4Mw6MxLsOjPf4R59eWod010/mBTDP/DTdCa2uBoGWispEl2isaCS9Rxgefom3D1CSCEFZyK2XPQaPkzdEBOArMQGLtnNcMVV1wR6667rvzHgkmjR4+WegiM65NnEL0IEI4++mgpxkSgEc4KYD0GggxyD8477zwJARRSuOUoYwIeloNmNUW+nyEFegh43gL/JO+A4QZmLbCIFKs3sow0a0SU875qCVygiOlC9KWmPglGZPamn3kCC046HCN6HXSusRqG3vM4tOYkFt97P8yLTkbSSWHOmhuj/ZbbYLQOk8NrbCuoRU+fI91wPItBigpKRcH+UAWFR015fbmeWQuBCox15Z033sScI/fGsN4ezBi7Mkb85W/Q2kci/eCj6LrkJAzu7cG8UWtj6O13QWsfBt8y4fPwFypFHtRDK9kniWnZ455LncP+khPDIVj0JK2PaWA8sdHX0lKX3mM1rM6p6NpvP7TO/gxzGiwMvusxWKuPhfPZJMw78mAMnT0TC5sGo/H3V8D8/s48VReuHGDEXHrxxxcdin4BCHKSZ/CfVO5QZwVkkaSc5DhvJmYe9FOMmPwRFpqD0HzznTA33hTuzM8w77ADMHTqF+hK1sG64jrUb72DrAtPS0PT6vppOyw61AVukBqaQR0H3YLRPR+d+++B9o8+xbw6HY0X/x5NP9od3px56Dz6QHR8+gYWJuuQOO9SNO5yIA/8lhi/lFoPKiFINVbxuSmDoV/UQjbDwjOQNoOTaA0tjczD/0TmjDPQ4M/HojU2Rsft9yDT2IxkJoMvjtobo199FT1IwP3FCWg95ldS+0UKQNGrJucvuAI4pPbDANR3fZGEXL/VbNvuU+QsnOonaFHTJIuBhzjRsh4xYoQUOAq73pWFTqIfvQkECmGAwefw36zYeMEFF+C1114T/oL6nO84++yzJSOCaY7MhFAhCtXJqPIpVRHzfraBdRYIBAhueMAUP8v3bLaX5z8wg2MgXQog0PLxeGIjT1L46GMsOmRntC7uwaykh6H3PwF99LrweeJZxsX8X/8CjU9MlCpkvTvvgPZLrgvOa9DT8HQbrmbCcII5CdZ/EOsfkJdsBqRTEcmY0DonYfoBe2DU9MmYm2jGoNvuhbnxRnIqJRf9kkvPReKOWwRIzd1ye4y66iZ4Vj0c3YFjcEMNyrSx/ywwFDjl4119lct4byl+F13KSZLRNFZTtAUgGL6JpK3D7+3C7F8dg/b//QvdPFDt5AvQsv9R8DwHSKbR+8BEOOeeitZUBrNWGYeht/wd3oiRQuZ0vIyUL9ZjpMTmAwilrtXivf3yDqmkqIvOD4iU4l0KDhXi5WfS6DzzeAx9ZKIc6Zs65Tdo/PlJSJPQauhI/+sB9J56LBq1bixsWxVD7p4AbcTQIGvDD9bDcnWJ1c/MJhO+raHnwrNgPHCzeAXcA4/H4BPOgpNMyKmemddfRM9RR6DNnoWZQ4di6A33Qlt9nASVWCbLZB4xPMkIoPcg4QTHwYcJq7UaG06nozGUmoaerodv2XA/fQ/dR+yLlvnzMW/QELRcew/MdcYFR7drFqxZkzD5J9tj7Nz5mKtZaLvhWljf20FOqeRBdiwz7hgZOfaZKb3xV32tel359/QZIMiiYq559iAj/kn3O93wtKrD2QDhAkVhxj8tc3IP8qXnhTf9qNdCHSkd/W1fFbFqn+qfbIR5UrdY+0C1P/y7yk9XeU9U7WaINMXwwuI05h6xD9rfeg09WgL2ORehZd8D4Xk2LK8OAE1jkAAAIABJREFUPk+wmz0Tc484CG2T3sFirR51516I+r0OhEaCIzRkWHNEQ1CmV8otB0pioF3BfDC+6sOyE/AzvZh9/KHo+N+T6NITSJ50OhoPPkEWe4Yn/HoZmPMWYP7PD0HTR69JbQjtxF+h6eCjkTaTwlS3eH4BT6yTo2yLx9uVzOZi8VdzMyw0F2meXudpsFzG3FkNrw62bsBwetB1zVWou/lK+AkdPZt9H+03TBRip+v7sHQeVOVizlknoeUf9wt5dfEOO6Ht0mvQazZK8WlTTgYtrj6LrfeqyFL2gKaAjxO4xPkf/8eDq7r/ejvsSy5Ai+dg1vgNMerue5BJMEOJ6b46DN3BkvPPQOKvd4pLvmvz7dBx3S3QvAa4dK31i7Vc2kgto6PEAcaj34Elj9wH+ze/xGAvjTmrrI6OCY/BtZqR1jNIZlf44pv/BOsPv4WpAYvGrYf2e+7D4vo6cc1bPO6ba42Dmy29ToJg/4wJPaY8WIsnMNpIzrcx7+f7oeWdl9GT9IFTL8D/t3ceYJJVxR6ve7unZzaxhCUISBIliAqigj5JImEREdNTDBieJAMSVESfERHFgD5AfSbMERQJivCQDCZQEUQURLLAEjbMzkyHe9/3O7M11h5u6jg9s90fS/d035Pq1Kn6VzjnzD/kMJdkGQfDMlLFlRTJ2MU/lLETjpV167Hcu8Gm8oRvfU9ksyfLRDyZm8F111V3U+macU5CRwBCc+zZ3actULEtTZcg7u5oi9WugjgiCbTekMdO+28Z+dqXpRRU5IEXvECeePoPRKK6jA9PWsNzONE6KMn4H6+V0SPeIOutGJN/rTdPNvja90S22V7qspZTLNVKVdgRgVU+maCWrxSK9bhzT7H9DgdhqYZ1U5OlX/mUzD39FIlK8+S+XXaVLb/wbamPDLsM/IaMSCMkPyOSiVtukAff9BrZZMVDMlpeKPO/9ROJd9hZgqAuUcDlRiQ9cjobrsZkd7oPnKdFIaaQkgz8GqfmBROTHpHGXAd+xi/7qYwf81ZZO6rLPzfaUrY87yLngq1Ew1It12SoUZaJcl2Glz0s973uNbLxX3/rdn7Ex58s5Tce4W7/G3JWab6m7DU9ALQk4rm8kXjyZlYORAL0hrWGTPzpd/LIEYfIBmMr5d6NtpXNfvxTiTZcXxrRSinF5BWVxKmclcvlwcMOkfX+eLU04rIsefOxsvExJ0qDgU+PNmxqwaxuxMTOO9C45SZZ+rqDZd3qMrlvZIFsfP5lEq+/mVRHym6NO0AFOOSejrceJot+e4VTmrWXv17Wft9HpT4kMh6WZYQkQA4oIqfDXZM9TQABfV8L3I6sUnmFLHnXcbL2BedKHA7JyoMOlXVOOUnq3BlC2JXTMxuTR9AHlVge/dD7Zd73v85JMbL0+fvJWp8/U8YWzJeRBluky1INht2ZKXpjaVPEn2EPzyqAYI9VbteDMMPmMbO7U0mKkch9Pzlf/n7q+2VhaUzKG20sO5x9vlRLI1JpDLlrfxulqqurGpSlXBqTh876ujzwuU9JY2RY7t9kK1n8w+/IRLiezCUxq1SfPBSHy1pW3VHQb3QDIHAZTzmqyF3XXyx/PuEo2XSsJvHCRfLMn1wiyxbMEcKMI1VuZmRLZ+SynkthVR754bfl7589RebKiNy53lay+NxzJB4eciftNQIAwuS1z2mxSCuIp8OdnjUXzDVCv1GacKfN1cEId94h1x35ZtnwsXskKi2Ubbln4WnPFBkqScRlPg08UADBmrv+d/zG6+XPb3+LLJgYl/uGF8mOZ35V1trxqRI3uIRt9W3JSX3Jy0HoNKhXgOBO1nOH5+AAashwLZLxfz0svzj6cNny/r9KtVSWHU85Q4afu7eMl2J3v4TbE9+oS71CfEKkcdctcsPhr5A5KybkwdIcedrpX5cNdtzZKZuZ9KK30WOPyqWHHSIL7/uHxNG47HDSGe6OiTAMnNfIHaBN3J1DE6MJqT14t9x86GskXL5MHijPke1OPkM22OtZMh6UZQHnTIWxu+qZfJbpCjEwB4S6xjif44GH5bErLpFyrSr1uXNlw933lfo686VMIm0DTyhrmSRNkbGoIXPro/LQhefJUG1UarJA5j17dxnZahNpcNOtAxLIO/IsZv9r1gAE675NEiydFjYziTWcIHZZxQ0pVasuniaNcQlKFXei4PIwkvlsa2SRBFWZKAUyUgskrE8mNMb18cksdw4cGSlLPRySoRr3qOOe1gj8ZPy+317uLCjikTIhIxMcZrMq2bxcdpnbwRAX9AxLgEVdGXchgxghAEBqRBJVVzprIcbadqcvzpfhRk2isCpRPNcJwMmd/+kv5c1+4kvOz+dODqYsjiZvp+MmQ47Ndcn4pcn8hLhEMipZ24GLwXLSIK5WYvilaEhi+KlUnbzgKRx2YYogxP2an+WdBBDUAwg1O71m/73lddLrg/6qsybiSIaqQMPIWb8u5szwg1CqMiKVKJB6UHOKhMt+2NQ4ElUknqhJEFZdqA0lGg8BMvtvDaRxpuNL5q1G5sBKkcao8ySVhua53T4rSyJzSMB0O1JiqYVlqdTZpVKXoM6NrhPuWHKw4ERQkkowIiG0Kk0ChBFOLHUna/ZeKkzyDsnYZWnEVSkPDUuVFMoocCdDVsO629I5udOC8FIgdW66rdREyJ0ol6Uch8LQA04KBShFFbeDKeSQPFcuPxG39yPvbIuzAiD4uQ1JeQCdFjadnYbu1qaCeFKV4/Jzd5RNukNdTsGkA2DycpLJK1rZG83KdomHTgny9yowoOcCuPiiAoR0S7q7o8uvfVJ9Ry4cMKXOnSBHIUwe6+MUktOM+veq8UyNEVMDdIELFamBzzX57H3fczBF/1Vbgm2Pp40vuYrXMcGq7HPXN8bFNHPv86o0Ajd+hUBkpuszLsq86jpfeIiYr7PbCp882WuA4OaYHhuNNXUhj7OUV91BuGrXj9v5zkmaTslN3t/JZ7dC+N4hA0DW5NoodIVlPrt29YnH8eYkRHDgiNySWPD8TK5rTsqclBOMl/UxySurqOjWC6G5SRqGq9JxzCmaGl2YJoAw1eyqHKlJOTC5BXeyz8zm5FPuxEV3AujkrY+Tc7pqKrjHYVVOBfLQ8QCh1VXbOG2OUVcnbxoqn9EAwVpmVggPAMLqnJSWwGlj5NOmqKaB6bvZpE2+derXWJT95EHoJg2K1p0GELS80mvAm0UpWvw5P2HWp/GaTvM83tTTgPsxKb04F+Q/OSsAgm+RDQBCMYBgn1KGz2eZwRNZFID3krbCOjusnzwIfTCNeULY0mxNV1idmq6pHU1eKGQAELJlZhLYXxN4csYBBFX+NqwwAAjZ4iNvC6i12KDvbEfFnRK2SfX4uTADD0I6tYsABAUJype+oO7mXM6Wuq1Xq5lk2TVBAabNcTO8qcaV9WLnJeDOFN6acQABwqaBAytMBrsY/s2CRQECz8Hsa7JgaGfh+m5bv66BB6E5Ky2JfvY01Xbmak0rmyUzB96tx3NDHkCwRpQFr7PNuJoxAMG6bm2mc5IQGYQYsgVxGrrV7xHCA0HcnAqBdv5poAOA0JxnK8s7YNf8IBzWHG9yiFsaCLDeQ1vrmm4kFAEIyq/Km2pczRbvgRtfu0ctN8eqrT+t1pl14yTVluYiX5MZvqgHwQpo6DUQxMX4VXMO8nhs4EFo3YPgGwUD3kznzbSQgvJfkgIb8GZ7vGm913lyoJhU6Y+n+h4gQOykY5jTJmEAEPLdZXkeBGtVcF/GbELEnV52fkJilnAYCOH2hbAVxH7st9NzO1PrU4CA3LSgYMCbxWc0z4Nga0rKM7IAdiaHHfoWINhkxKKI1wqPQQ7Cv1m4qAchDQgAEmYykxcXC8We1HBXUlx3IISL0dB6q9KEbZHvuQdFX2sykLVAwILWVgHCbLKCi3NkusxM49ek75V2syHk0LcAAcJb121RhT/wIHTWg2Dja60stNlappmtjNYj49NjTRbErVpploaDUNjqHOWDgyTrNmlNDrxbnfFu2VoUIMxk46qvAIJm0WvCl803aAYgFF0As1V5+eNq1YNgGdsXxDOZ6Zudd58PVQgnJXIOPAjFqFs0zJXlHVAeVKNA5yMvT6lYD/v7KQXudh2meQ58QFVUPg7Aa+ugwRoFMzlfJqhWueeyP17qutWs26xeDXIQis9ZqwAhTZAQcliTXjamq8myWfyXRpuBlda6wE0DFFZBaihsTeFNSxPAQSu7aAberWRuade7pXxJPfClNSZmEvCaVoDgx8eUyTW226w1xlQPQgyPZ/hOAQRrtViQYOdxtglnCw78Oz+KWmIDIdwdIex7F3R7bpoMmI282QmZqXKziKdhttEwbTydAAjUraANnpyJ+TLTDhB0Ingv4jnIErYDgFBMEDfr3rW12pyE2ZKpmyX0NNzlJyQOPAjtq4p2hbCudytDNBQ2k926RSjLOJGXSWGFZjxYA/BaTGbyVCty04a7bCisyBz3wzPTChCUAIqC7STkuWH6PcRg+5eVS9ELJui0B0HnCSE8W8MNNtyVJBhmGkBIyhmxbs804ddN/uwEQPC9CPp3Em8quO3mmHpVtxpUOqYieRfNemTzZHC3xmpzSabLO9kp3vTrYTwzKRTWVwAhiZjNouF+CDFYpi6ycLu10NKEZytI2EfQFg1PlyDpNt2oX8/gKMqb/S6EbWxU46NZ1lE3adwpIez334Yautn/6azbGlVFDatmeHM61zRrzh75ngRuu037TvKm7asChG73v1P1TytAsIjeIuIst1feb/0AEHzPyHS7ljrpQWBsFgX3AwDq1GLIAlRFD0RqRggrLTvd/7z6NGyi62+6vECdFMJalwUHzNlsCzX43kg7l3n8NBN40yZbargoj5+78XuneNPOl7/tcTpBWFGaTTtAsB2FmMrwSrw09NivIQbtr3/6ozL7dNxx0EmAkDaOmcDshReFuQrXWtw2RybtFL9+EcJp60aBuCoTHyT00lrrhBC286NhhaLenqL8MJ3P+S72NJq1ct+Cb9n64+z1mlYQnqRU0/qW5g1td846wZvq2fHDCjPJqOopQLCLOWkC9XfLKFlAIK2OJCHXbWbX+hUBJzGYKtdu98WnS6sAwaej7b+/pco+2+vxtSsM0jwHSXRs5Va8LK9Xt2ll58W6pZPmttcnZnZKCCvYKeIt6Da9O8WLeWu427zZSzr5XpAkMNDrW2Y7wZsKvvP63ktaN8ufPQcIeVc1K+pKO6kuS9iqoJgugKCMnqdE1A3a7GS1+ny7AEEZ2Gd0W69vybXa1+kqp96rvMWqz6VZLv3iQfDp6Mes0ywy5c1uWWa+x7CoIsyjdxFwkCc7pov3soylovMA3yXdWZPnJUijSd466BStrNc4q05rnPTCy9UJgEA/9V9RevWK7kX701OAkHeQh8/MaZ4ERWZpC6uXAMEqRns0tLVK7aQr49lYaVEhUHRS84RuWnuWrvaZPASc1F4zArvVcXWiHHOTtVXM94zo8woCrbswiy8VvKYp5k6NJWluk8JdCsST+mOFsY6pGzzarhDWfhalnY6l34Sw8obvevbBaJF+ZwHYfgGvdk1lgRrtr+UTPXTI599Og4ZO8KbyZ97asfOugCKvTFGeb/e5rgIEO2nKuGmCMm0gSYuknwCCMqoFB0Unt1eeBL8/RQFCKwjYZ3Zf+LXLsN0oX+QApKR2k87t6BchrP3N8xyk0dPfCVCUp5uZn1aFsO/RKto3+5zWUUTpNjOmTjxrjY6kPhdpI8kD20+8ybjyvMRp4+zFNsFO8GaReUoCOv3Ek10HCL6l1SxASHOdpRExDYF1muhJnoNmlaH2qdux36IAIYlZm73uOUmgTUdiZpHFaUGrPt8Mn6iQs231kxD2k76K0MSnA6e/FVXAzdSf5sHIAq9av80GT6snqS8zASCkGVXNyk2rgIuAIZ9vm1kHrcx70topWo/1cBUt0+xzrQKEVkJ0/cyXwcTERNfuYkg7GbEVZvQRZzsAoRPM3yoCtha2Cjf60ylUXISxswS+emeKhhWKgA8Fbc0KuWYXddHnsyyXVnjTT/5L60cS39nvOsGXtN2q1yCp374yLkrjPAXdKkDw+dKnWR5v+/1SZdPOuDpZ1veYpoHPorzSKm9mydd2xtsJ3lQZ1S5QaJZX8sBrMzI8TU4rQOwXmdk1gJAmhFsRiFrG7hCwBFSGsdaP/107yknbt5PaCUb3F39RpVxkgRZR3JZGKph00aVt48trO8kq13a67SnJ6xtj8+fNLkjfek6qz+cFLc8YAcS+teYDQr+NooI+SbH5StaOr12r3++XnTsdcx69037P4k3llaRnioCVNMCg9SXRxfJ8XoJxq2NO4yXLH7RteagdXrF8qjyfxWtJctnnZe1Ps7yl/NIJmenzXlouVxEezeMVf31lAQR7z0KzPJK1HpLOTmiW/s32ZzU9Oj4+3pYHwVfE/J0X/2pHKKYxWR7wsIAizXrJIqS/4KxCbWfCLCNbRFyEwdOUhh1fnjD262jFRWbryFpEOgc2gTEJyLXK0HnzVy6XV7vxLo0Pm+VPfV4Trvy5s4I2Ccx2arxpa69T9fu30rVbb5oVlaSIfEHZbNtZfEldFpw3O//N9iXp+aRkPb8frfaLcvB+lrxIqrvV9mw7nQQHaSDLys1WZHtSvZZf0j5ruW7KTOXN6Ur6DtoFCL5yyAMHPN+OYKastmETA9PQrm2vVYbXcgpO/KS2TgEEpaUK4lZAgi9ciwphK4CLtpsndP16dBdLM664Tghf6tCLbbL4JIk383gmCSBraA2a6pjT+D4P2BYdv3ow2uHFPIDF763OXR5wtILdf1YVQFFa+DIpS2n4bfUqcdj2UXkzT1a1wysKHpUWSXVlAdtWaK9t5W2/bLVuW856EorKL7/dLCCQ9FuSwVN0LFmGm5XhKl9oq9cnnjojuB2AYCdCBZRPoDQU3KzlaOvRsv72NEtMnYA8AZ8nFLUe3zrTerslkH2F3Q4yTgMJdv5sMmInxmbnN8lt26qiaWYBWmDnu247ZTElCVUrjLW/7YDitDH747MKptN8afvf7VCYpWmnLKc8MGtp3GlPSRbPYtn7srDTvOLL6SQAZvuoz7cjO7W+dhJl89a6L6eydt40CxryDCv6przZCXnpy3fbvva92zLTB9YO2I2NjbUVYqBSjZ3lCTKfCX2B1gpDFvFY5CHzpH5bgGFzH/KYtt3f7eK0qLEZwJOFhH1GVBTcCu0t0k0CMDqWNOHMAusWKlah64cV8gCs5RX/c5G51XYd+l71LwskKN2L0N9XJApE1EvRaVCQNV67H70oXXwBlFZOx9EJIGIBftY692WR5c1m1l4RWuhaSbOs8wBCEV7J6ofypfJNVntF2kqiD9/1wnOQtJ59gFd0/orwSifkpZWVRYCrBTdWJ7Qin4rwp82FaRog+MT23WNJA7ZMlvS5WXTnC9ysrHT7rE5ukjJLYjQVwHY3Rqt9LTIxOuGWxrRXNMblI1lfQem4lQ78rkK4XeWSBUrSeIJ5YzErSCi6kIvSUsFB3kJK48mi7WQ9l5X01gw4sHysdNK1p/PY7hw2M17Ll82uiTRBbAGQFcTtjCuLL3054I9DLbYiSrII7ez4hoaGpjwHfrtJ7aXJ0CLtJsk237JPa7PZLcrUowqmnXlrZVxaxoI7XybmASf93e+7Ba3N0iQPCPt8mEU3Xevd8CZYfTdFt2Y9CFpQreoil4T4StpX8M0KmCRhyXdJwrgVQKJlGJs/vm4zvRUiSQyfxeA+HZOEo9bfKddt0oLyFUDS/Op3luFb3Tnh04Q6EcD25StjS5skRd0ppaCLX8FaJ9qirumwzpJ4rxUvUNIa0hCQAoNO8oLtdxo4SRobz5Kd3qm1osoT3lT+t2Ddl4tJf3eSL6nL8lEneDPPm9yO4s8ra+UMny3AKyq3ff6wRouCYl+h5/Ur6Xcr/3wZmmQo+bJcx9cJ3tS+wAsYVdZz17QHgcEoYymjW8ZKmghdBGmE7ATT6+JLIq72OUn5ZqG7tHMcWmGIdsqoEvVdrmnAytIgCSTkzUezfU1bfEltJylznmMx61ahVgCjBa4a100TuEkAtZu8aUFCFq8X+U1Rfi+34+XxQ5I7PmtdpSnjXvGlFfBFeFe9XL4CKqp0rAKwwDVvvvN+z5uXor/bRNpW1oH2U8FGs3Qp2s9WniuaT+L3WcdkgX0n9JQPBpLGlLa2VcdZfVatVldL+m+G9naMNhRr9WSwcuXKpnIQqBQm95VnEvHsd2nETUKtrTCCJbwO0LcS9fusiVYBrIzRTl86UTYNFWfVrQyWpGgVBTfDSHnjSLPK8gBC0qKs1Wqpu1zyhBfjVgGctuB1cdm6sni3k0Iha+En9SsJTKVt882bo27+roo975yLND6xgK2T9M5aw1l9SQLYFsA2S0tfZuq6bEUmFpGpzfavE/PSyzytouNTWiXtTLGyMU9OdRq45gHUZniTvqnMbMYAtjSsVCqrJcq2BRCoDGbIcgEmKf1eCOGkSfdBgk52moK0ORVFGbHXzyXF7S2qTBKMOm6LGtvpt4+wLdNnoeQiwAtUbF1nRcAMz4yMjDwun8EHAnlAtlvKyvbDBwppAsjSuB8FsKWVzhHCyn/56zJpTSbV1Q5/Kj+m8Y7/fZpQtnMAT+LlKgpi9DmsM/W2Jo0zTen77aTJ1SLrI4uWOj9ZNMgacz96Dqw85LM/b5YnfdllAWLRuW6FV9NkYRGDy7bH877MzOsP40KmoM+VVkly23kQfGIlVU4n1A2hCCOt3HQABNsXHbw/8VZJ2kWl+9V9Ri9Cl7yJaPf3JFRIv5JcZ3ahJ1nQnUqusQxlmTlN6PrMnNQ3K9AZBwtaQw5ZApBnmbckRk+ifVLMLg00dFo46Pw0CxBsMmKnAF67fOkDL52/pJyEIgChW+NK89oUAQh+nyjD+BDGRQGNeluTlL0PlHxBnQcQukGzJKWVFee2Hq12gUoneTKprqydN7bv+rlTCdxp48oDCFnAxdcLzIMFCVm6y4ID5WkLilajRb1ej7ViPxalnVCkYSvxEVoecyuR0pitm8rYJ2YSeuSZLNd8t5m3aP3ad96Vga0gSVqk3RAkWf3Ni4/72/J8BaJ/Y40mXRZkaaDWmc9/fv+SQKsV8knlu8GTeQvXX2P9ap1lzb8C2F7zXaYlFASuy2lKLM1q88epAhXeROFYmaH16xyrtzUPaNrfLZ8myS0rd/PWfVGZUuQ5fwwzCRjY8aWdldCNtV6ErvpMHv9l/a58wjs8qQDWfm/XBjKzaJ5WEEVRrKgYIvmL2ndDpC2wNLTrWxppiyVvETVD7KRnk8ANzzG+pGNI222vV+WTLDZ/rFYRdhrlJ9XXDrP7C0ZBgr+A+RsBzNwV4R3L20XBQ5F6253nJCtS61S+7PSctdvnvPI6V34oLGuseXW28nuzvJnHtypkNcRqvVy2f9QzPDw8dYpmHihMAqd2zSbxYTd506ebD2D8nQozhT91HnyZmWVUtcJ3Rcqk8WYWLfktS//qb4wPuWk9xjqH1qDK66ejFwCBB6lsYmJiavuNKk913RapzDJ10vNZrqpuMrxVOqoo1GOg+4H9vs8UpqffaYK4FzSlfZ9WRQRtFrP7IAFB7CfiNAsO+k0I+wpF16DScyZ6DpLWvG4TtDwxXXzp82oegFALTMeloUg7Tt+tizwBHGhbVt749LHegiTaadkkgOED3l7IK+2HtT6n2/LO00v2d9tXPhfd4dBMG0Wf9cGyysM0sJL2u2/Qa3mVmVbuEe4qagxP1dtoNGJrccLwVE5l9jAPf7EkMXvewk+y4vLKFCV4s8/ZpK+ZxORpDO+7zpQxOik4rEBT1yr1s9B0/6wystJU+ca+q/C0PEX/7XHIfpiCNgCwlFHXrY4xb5uW9ltDMjbJVssqb+rfir51HPaddrUOvrd99XlJ67FrTMtbevI7z1qvgbaRply1jKV5mqKx8+QLFcsrlg62LnWn++NVpanjRnZYr4720Z6YqXX4BoPPI0XXtI7HzqsFA/wObyUpeMuDvtC2Z6Ak8a+2qzKTZ+bMmbNat32l5POHlX92XpQ2SisrO6dDXmk/+uX8jaK8kfUcY0rb4eCDyU60l1SH5bkso8nKgCTda8sqf1ij3xpUvizKAqdTHgQliBIs6QyALGVuhV0aUvaVWy/BgV1U/k6F6VhwnWC4JGHTSVRs64eprCJ84IEHZNGiRW4YKnytEvXzOfjtX//6lwOd66+/vitncxH0LggV8goW7MJIOnExTzlaBK38pvXQxg033CA77LDDVALuzTffLFtssYXbEaFrwhfi9BFFqNuDeE6BAL/ZZCirDJWGvsJXDxBldZvmfffd5+irIB0Pym9+8xvZZZddHreVk75YwEZ/7r33Xpk3b56svfbaqx3K49Nd+ZB+jo+Py8qVK2Xdddd9nFdIAYIFY4z5sccek3XWWWeKVkoL+5yCE53jBx980PWX8flgJUmJ5wl5pacPxlasWCHLli2TTTbZZKoKBSwWMNg+8Pmvf/2rPPWpT33cYUY6JgsqqY+5AiTAN76M83mD/gB0dQ0oXdXtzRwwb75spL/Msz7vC3mraDohW/w6qF91Qrfb6kb/0+pMMqx62X4SKEiibxZAsP21gNc3YqxBYeViYYCgD/oVWSGSRrwkJJzUCYuE/cXUbcZTS8JXXr1kiG605dNeLWVVcK20aZU9Au3nP/+5E5x///vf5c4775SxsTG55JJLZMGCBXLWWWc5JfvsZz97SlGoR0AZFuHyohe9SHbbbTd573vf+zjFoHzB++9//3u5//77V7vLwKLijTbayClK5a+iHgSlE31TxYswZlwbbrih/POf/5Tdd99drrnmGtlss82myMbzjFfpyd+4kRk3tOClwIDPW221lRx++OFOmH/5y1+WK664Qr7+9a+7Ns9aIQzfAAAgAElEQVQ991w5++yzpxQwiuJ//ud/nPC3R0N/4AMfEBTcZz/7WVc/9P/IRz4iV1999RQwYTwKdqy3AZoff/zxcvfdd8v3v//9qbZ8Otn1xm8f/vCH5Tvf+Y5ceeWVAo39F0qQ/t9+++1yyy23yF133eWUxjnnnOOACGW32WYbxwdWWasQVKv4kEMOkc0331w+8YlPTFn1Ch7S5EMWD1MGHn344YenPFmM55e//KVrA/prsqvKNsYHvQFe/FNaoKDp/2mnnSb77LOP41P6BhjUvAK/Lz/+8Y8d7QCXPmhXhQ5PPfGJT3TzCH2ZF+Vf5cvrr79e3ve+97l+W0PtxBNPdGWPOuooR/s3vvGNbky9MmwUHDQL3lqRO70qY0Gh9SL4gLUX/fH1XhZoKKojizzng1BfHzv+0hyEIoTIq9BvIAsgWOZWoVBkUEX6mfaMeg78tttRpO30p92yvoCwSl0PrWm3DcojND/zmc/Ik570JDniiCOcdaqZsAjNZz7zmU5oveMd75gSWiy6d7/73U7J8SwCFmW57777OotOhY0qkve///2y6aabOkX7hS98Qf70pz9Nuaqt5YYwf/rTny5ve9vbHpeEY9Gz5SWfb1EWKKnvfe97zoq99dZb5QlPeIIb2z/+8Q857LDDnEWoFv9+++0nCOmbbrrJCWgAAGDnF7/4hbzmNa9xSvHVr361+/u6665z9f761792oAJPBL8BRL70pS/Jf//3fztlxnivvfZa9069Sg+ULhb26OioU8b/+Z//Kc94xjNk//33d/NA26q0eP/mN78py5cvd4Bpgw02mDo6Fzrx/cKFC6c8NYyb72677bbV7vdgXQBaGOMxxxwj5513nlNg1vugaxlFiHX9rne9yym7rbfeekrRAv4Y63ve857VMvyPO+441656haj7P/7jP5zS0xfjZ3yf/OQn3TiyZE0STwNYAFXwo4ZpqIM61e3PfGqY6n//93/d+C688EI3FnhbPT+6Zx6eVcv+yCOPdGOjDmh1xx13TAFYvjv//PPlwAMPXI3/n/vc58rznvc855XZaaed5PWvf72b2z/84Q/yoQ99yIGWPfbYQ+gLYIS+wXsABQVT8Nvzn/98ufHGG2W99dZzAH3vvfd2wJR2Abesj6c85SlN00zpaNeNT1tfZvYKlHRCbjVbh851s+VaeT4JFPh6SIGCT/M0Pel/nzdXefq8YwDBb8j+nfbZR895g2llEmyZ2ZL0lWdJKZN0ktlVeSHQUKgIe3V38hvWNooRIasv5hOhzQvLGYsM4XjKKac4QeaDmSc/+clTbv28I661vG2L75LCGkn0euSRR2TLLbd0fUE5YG2j3I4++mh5znOe44Qubnbq5DOKcPvtt3egAYsfl/Jaa60le+65p7z5zW92437Zy17mLL8//vGPzrNw+eWXT+2ZZzyEZABGBx10kFMkKIKrrrrKgao///nPU1tWUViXXnqpfPvb33Z1q/WKUkcxAZxQynhuFARSN/1DadmtdZYXtA+AK9zc6nlAgX7xi1+UM888U37605868PXpT39avvGNbzigBl2oxx6DjQKmPQARY6JuQCNloRc8YkEd46MOyuEReeihh+RjH/uYmxr1dvE79EXRaZJfkTWv8oX26Adgi35DBz+MwFgZp80zueCCCwQPAKDlnnvukTe96U3OM8YLeuCxgR5Wji1evFi22247N49+aElpfsYZZ8jTnvY0Oemkk5z3CHD80pe+1K0TlP6rXvUqVydeAUDgscce60CqAgQFKwBQ1ttFF13k5oyy8B0AAY/JXnvt5YALQLNZUJUnS9JOJS0yLzP1mbSzEjqtn5RP0oCCBW9JwCGNvs0Y2Un84n/XtgchrZEijStK7gYz+YIjzw3djT5Md51qaSqdm2Ee7Tt0Q2B+8IMfdIIV6wbLCGvnc5/7nHNjf+pTn3LWsC1D2wrKUBDPetaznLLBalN3PP1B0VEP3yPAUYSa5JbkarOgQK1XBQe8q8BOor3yBMAFr8B3v/tdOeCAA9w7YQ+EOe5fAA/Klvq/9a1vOesQYEDduKax8unvC1/4QjdGYvAo9le84hVOyfAcSh7FAL0QOghwQMPJJ5/s2kCJklOAJ+IlL3mJ6y7Ka+7cuc57gNXIc5RFgaCkUMr0++Mf/7hTongJcIfjqcAqRSmiYJTuKtRQ7igSABHhG+aPsoAZLGMs3B/+8IdTHhz6f9lllzllSegIbw1KCECDlwHFYXM3qHfp0qWOhtA2bR4YL8oVj4jSkznWHAw8L0V3TVk+oA4Fsb/61a/cPMJTOt9KB8YNrdQzRB0/+9nPHBCAJ+Hl3/72t/KCF7zAlSXMBZjBQ8QcQFvawTsEjeERVaKaIwDvwsfwNWEU5ow6aRcPGWEYQAJzzbjxCrz2ta+Vd77znS7M9Za3vMXRlhegAuCA140+MmcABPrHM/AInjvonsX3rcihmbrFtpWx+mUUeHcScPltKE8mAQUrp7MARJI8b0bGF9HRbQGENAImWXgQyFqN+ncnJjSJ+Hyn7jF1oSnxOo0GuzGGduu0c6NAwdZZhAY2jgwtUYIoCiwX/kY4Yjmj+FEivNSK189YOngHEHJYnDYbHssXVzNKC4udHAAses0PQEgh8HHD+uPBZQ8wUUsfr4B6OOwi8XmO3yjHGHinHkIMavWiEFGWKEJcwsT9UdRYmV/72tectY+ljAVMeYATSmDnnXd24AYlyncAJhQIr1133dXVwfhJZEMRKICCPliIKHqsUrX0+Uw4Yf78+a4cbZKrQNiGFzSC5oRFoGnSgVJpIAm6/u1vf3PgiL6itFDw1IMFTlvMI0oODwcAAEuavvEPD8l//dd/ObrhieE7+oICZP7UW0CfdA0Sn8c1DlDBWkfZ0Q/djsU4mRPCAUnzl7Ue6LeCItoBHFjjQ4Em77jzrYcKxUsoB3CC8sXVD3DiBb8Djr/61a+uxn/QBl6lLCEkxsK8kO9A/wHPeBeYP154TegX4Af6AjwUhLzyla904TsLEAB7eAwAb4Rn+IwXSwECYQv4BwD64he/2M1bszTLUlgWoBeRE+3Kqn4qb+WF9SY0o3ibGU+SEZSl+IuChyJ9SNLfPtAM2OZYpLK0Z/JQiAULvrDWOrWOdiYhqR82FtlO3e3QZzrL2sVtE3EUnFll7vfTCliew/2L8mQnwqGHHuoUFG5U3KJYxrh1KaMJd5qQB6BA+OGy3nHHHVez6liAKFGsIRS9WoHqESAWjuWGIrJJgz7f8DwKFsEKUCDurmP0QRF/273AKCaUGooOZY3iRKBTH6AAtzCggPHQX+LmWJoACyw4fkPwk2uBQkWIY3ECeqAZlj5eB5LKKIdLmZAEQh6eRPDjpv/Rj3405cYnD4JwBwpKY9OEFk499VSXEIiSQzkBat7whje4nIG3vvWtU+f9o7RoW93ueoaEuvNRVpqboMoVugBUADAoan3pnGjsHjqQg4CnAA8KdKNf8AZ8QE4ECvArX/nK1HyigHGVA0hI1qO8fVEn4RlACvTSfvo7M9IAj659QAsgLcsQ4Nltt93WgT2eAwwCAuBPPEOAUcYKXVD29PujH/2o41v6o3U/+uijjueZJwAHoA9vAx4gy58K3ghL8RlvFR6E008/3dUFP+FFwlNgPQjQAJ7CewV4ASQwp6973evcd/AI3gd/Xds+FpXZSj/KFik/nTKtl237hpXVU93QJ0neBB2vBRK+96GTNPH1aE8Agl0wviWYJMjbGbAScsDokx4bXupBscJEv8uitZZHoWJFIqRQwigQrGbAAElrCH2UApYybmSEHpY0rlNc1SgT4twoNftasmSJ2zVAncT0NQykc8h3uHOxpnHdI4x/8IMfTHkYlHfo5+9+9zsX50fY6tz7zK4LC4ELKEChI2ipE2BAngTKE4WLwkaIo6D/8pe/uDYR0BtvvLHLQdBkOBXkxJvVY0D7qlBRGIAoAALA4P/+7/9cIh7v1EPoBfphfasVDDCAVlj3uLXpC4oL0PHyl7/ceTcACeQz4MHBpa3zjEUOvRgD80C/UIB4cVTxqhJmXlHkKCJe1MM8M6fQiufpF/FyzYWgbfINmGfawCX+9re/3dGOuSLPBDDHO/TFc4KVTB8YJ3yBcrYv3O+EHFC6gBsbEsuzYDVcxZgIXaCAmSP6yHjUW8A7dGGecctDS/iM0A18iLLFpa98SB+Yc3gdhQyosC+AHUmR8B39B+BCb6Ux4I3QAv0HtDB/0IpkQzwVJMl+/vOfd7wHzUkOBUhqiEEtOX4nzEV5niPsA0iE13Q925BdFujPWusDcPB46qj80HydJCO0VV2V5TlIAwo+8O0GSOkpQNDGbKPWheH/3u6AFeXnJbm1OqkzrVySZ4bvilyCZJErCgtXJ8IQIUiMnEWDdwAXJ1YsLxQJwAHBqZngCB6EKZYYFpIqdb7HsuUdly4xfbVWKUvYAmsbkKHJZghRrHwEpN6OpwoEgYkFTPs2Bm/njGf5h0LE2kORIchJrMOTQPIefaBtFDQK9OCDD3YeDKUlz1988cVOQONpQIHwG54VgAA8TBY+Lnm+x7uA4Gf3AhnouJOhF+2hOLDCcU9bMEaeAUoX65zcBZITARIoYACQJrLh0masKsBom75BN0AXf6PYUNLUpa5/pTu0oU4UKWOFLswTip9neQ4lT9vMEwl9KDDyKug3gBEAQXskFwK6eOEpwEPClj1e1MN8AWpOOOEEp4ytTKAtDbWopwb6Uj9tkztgPVp2TvVQN/oPQMDrQ33wpm6npS28C3goqJffUN7QDv6CpgAvznRgXIAmwARWPcAFOvsvngMYMM+8M8fUbRMsmWPaJhwBH+FhoX+AJUAq4wKUQCc/B0HDBoRjeJa8E2gN3+ouBgUjvNOu8oGuI/rMvFnAZUG1VURpBpVvSOT9PdNkZJH+KlhW+aFgvEjZ1Z9RZ/3kvSBJ9UzNiQTi/lt1h4h9dsZ4ENIQlX5vF7UOypZJAhDNE32yBHXZfeTW8sizQlptc6aWY15UmOgYsmiE4EQBomxIyCOpDcFIXgGWEIAB4YtlBEMTf8eFrYCNRDC2+GEJ2/mnXix0rDmepyyWN9n7WN7E//FM4BngHxY38WW2/JHlb+vC3Q/Q4Jm8EIMKUPgFIQ5AQLkTLkBRsE2PcwxQrCgWrE5yIUgswyOCm5f8BJQufQCY0D5hABXK9B+hC0AghICSRHmzJRTlBAgBbNEGFq8KIc2jwN0NXVAguMFx4aP0obHG/YlRYwEzXpQd3hDmBHCBtwXAg6KjDTwIgBn6DsDSLH9ryfA8cXOUkLVWGJNukYQPqBNeICwA6MGTgdKFD5hT+oHHhzkjFKNKBYAA/RiTnTsACsoPvmJO4E2UIrQHPKEck66RtkKWcoSwNFSDZwWa6XygnBkXfQPIMgf0FyX9k5/8xNGH+dI8BP5mfvycBfoNzVH0gCnGAoBgHcCreCBUmGteCECQ5EzAGGCPBFYAFOAPnoE/mA8+qwdBD7+CDnhFAEt8R13wDh4SwJTyHuE+trrSP3iBd9YCXj5AKd4vxkwb8DZzAghmLeiOCpWj/MYcUD/l2dnDP74n74akWhJ4aYP+Ep5RQDNbZG3SOJLkZqoO4PyMUiQSDUspCiQOGxJJWUrSkJLUpR6EEkhDhvDyhpHE8RwJ4lAapborF0hNytGIhHEJnCBRGKLlQAwiceTe2jWok/ru6/S2Qgx5AMEiLquI/M9p9TSjgNVq7AbRmulHPz/rgzS18rNopnOjz2DpI1ixqhGUWFIoFVysuIdR6rjGVelRDmFKYhtCjkWGMEc4IWxQDngmeA4BjRAn7EB5LHGsfKwz/Ucb7CHHDa7JWpRF8AFSEPjqXfDnQvlRgQv9QIERAsH1jcAGBKD8UDBYhig+PCKAD6xckuxQyIwJBU6fGQOJbCT0MT7oyo4GEhd5oRyI0+Nexl0MyMLaRsjTHu0gcPFIkDDIWBgjbUNPLHIsXZQzFj1tAKR4YdVTD9YyoI0xILRZD/SLJFDoQ58pj+IDsNFvFBz0RjlBE/oNmMBCVcBCHXg8cMur94+yeAywhFFQhGJIugO44GGBR+gDoQRVmJQB3KEk9ZAglAqgCT4geQ9AQV9pBzDD2KlPzwxIW1s8zxjwIAAQ6Af91v4qz2HhY61Db4AK/QMcMAfwIAqUOYUnyMWgT9CRuWFHAnkegCv6S14FQAlvCnNLWXIWKMtLcxjgecZE/cwFtFKQBL9CR34HBEEX2qJuDR/AL4BhAKru9qBd6KKAGp6gDO92jbNOAXDwIWWhKTk6tMmLnBjqYKwWEOr64BnCa3hR9ORHeJjnaYsX60a3wur6ajXM0c+yU8GT7nDI6msssTTCmpSikgzV50gcTEijvFKieK5UGmWJwgmpDsVSqQ9JHIhUy7GE8bCMRFUHBKJgSMpRXWIpSVwifFiWoXpF4lLNAQughfogOq3vHgcQuO653YnJAwpK3CSPQTvgQMvapDO1iNqpt1169HN5X+FbVJzGbHbeUIRY+P52NDsXav1ofVjDKDGsbHWLEvdFaOJC1qx+rQNrBwvc7niwoBLliDD2w1V5/Vc+5F29CGSCY0HRHhY0Co3+AwZQdLjDdTyqNFEagArGoNYx9KBf/Eb/SVTEMlQXLxYwwh4aoKThWcpSN1YrygjvBW5+ymg2vMbk6S/K2L50yyiKhnFQHkvc0oXfAAH6QgHxom1c35YfVDHY8vQb8Acd9EVZAB8gCnop3a1r286XtoH1jpLCGtW2UFiAEsCePT+B54i3o7zx7qS9bP/J6wAg6lHF9hwE5TuAKSBPz/NgrvRQKvI1UJ54DpgDvkeJYrUDXvAa8R1zBJ3tCzqTQ6EJjvQLngKsKL3pAyAFLwueJFWo0I92aIP2raLne4AdSl7nhfb5p2AAPvBzN5TX0+ZGQwrKn3bt+DyhYSx9RkEcz6m3wpcr/SwD2+2bgrd0nkR9lyWUCafIYwkklrpEQUVqYUnKcUPm1PEIiEwM1SQKJgFAGDakNhTJUCOQoXpJoiCQ8TmjEksocyfY3TMm1XIoYVw2EKHd0SSXn5rPdgFCliL244ZZAEGZvehw9Xn1HBQtN3hudQqo0rNKIYlGFgCosPWFkBUgqgB4V2XouyGtcHoccg2C1QRokvJS5WwVV5Kg8uum/yr06IPdIqhCO0shKQi1z1gLTD/b8amHRGmnfbfPKiCyz/gCXvne0oN+qDK0Y/XLqgK3a83/zl+HVolZJaJjs8/zexKo07GqUrJ8oImpyktKU83+T/MGJc2PzcdQpcy79snG2S2f0D9f0Vn6ajmVZzoeOxe0ozSxY7LzrHXyrK43pa+dPysntS5tO0mG+m0kGUlaXpMR1cpPk7sKAnwe98GD/k59SufZLmOhgR+iXW3MLmpQknqpJnEYSNgoSSgNZt0pezwA/L8elqRWqrkwQ6VeFjwPcTgh9aFIytGQlOtzpTokUg9jGW6IlKK61EolCSfTE7r6mprnWq3WtgchS5jahW+FbxawyBPOlil1AaVZj12l4gyv3AoHdZ0lKdgiw7T0t0DBCmr/c5F6u/GML2SThG5R/rQ01M+qUAY82f7sQVMFTEV5M+k5VZr+nPi82n6P26uhWd4sQhPlSwWpA75sb460tO9JmJIZATkCdSk1hqQalqVWERlujMpwfUwkniO1YFjqYU2CeI7EJTyJ41KJlkqpPixxeS1ZXg6kEkcy0mhIHA9JoywSU19UcSBDAlR2tyHC5CiDarXaNYCghLRM344wVrCBALaegzQU3Bk2mL21+HTTcEMRoeNbFvq3ta77Tfj6M2lBQB6PFuUCPRio6POD54pRQOPvzSi3IqC1mfqK9bT1p6xHzBpT1sjyDa6iramXpJ/GW7Tv/ficeoOQmborbGpugkCCKJRKhFtpXJY+eIPEd/1c6vdeKyPrbifR5i+W+Vs+VyRaS+LHbpWxf10hy+/6lVTqwzL8lMVS2WxXqcx5ksSlhoRSlSCuSD0MJA5C50UgfEHYohevvgEIRZW8ZXQr4AeM3xq7+JZykSQcvyVfEGd5EFrrZXdK5YGCZr0I6r5NA0/dGcXsqzWN7gpgs9a6BbfW9Z4EVi2Y7TcqpnkSVAkV5U1nBa5KAM4LK/QbDaa/P4/flvjvPq2y4vFw+V4ucosCkfnxcllxy/dkuHaLlMskM49KZWhYwhIHq60n4UZPlvJDl0llJJaJeJ4EUUOGKzUZrdZkZIujpbrOzlKqrJSRsRFplGOph1UpRUOTXegNPuidByHLc1CU2ZME8PQz0ezpgYK0vCScNIAwk4VwmjfBH2sakB3wZm/WgfJmES9XkVBXvxoWaR4E//s8qg/4Mo9Cyb9HLs7PToRQgrgkjTB2GxTZmRCENamHDanUQ4nDSBrxiNRL4xJXKxJJXSpRQ+qlCRmJV8ijV7xP5txztozWNpb19jtW/nnFl2VR7W8Sr7WjDG+1vQxd/x0ZlSEZf/oRMrJiVEb++S2Xu1Da53wJN9rf7X4Iwkgq9Xlu90MYjUgcNFy+Qi9eXfcgtIqEfe/AIH7WfXawyo/P1puQJUjTPAhqvdj37o8ivwUfkFqhmwRkk2pUWqkVOlu3duVTs/dPFNl54/PcTASvabIzz6CyvGkTM3s/UzO3xUhKbv9ByNEDcSBRyG6DQMI4lDggf0Ck0uAkg2FpkDUYLpegwQkHY0AEd2TB3OqoLP3VkbLOIxfIRH2uVPY+QZZc/l1ZFP9dxoafJZUnbyPl339LpDQi49sdKmF1uQzf8UMZH44l3ufHMnfRS6UexDJWacjciSFplAAIFYkDzUPoPn2DiYmJnkCRJHeujbmp68wOWcsQ19XTEfMWR/dJtma0wNzYnIQiACFNCPc7xdKssjxrzYJWn5f7fcwzvX/Wk5DGm0n5MHbc/eo9sLIwK9ySNYcaip3p8zxt/eeAAs4hcIcTNdxGRQ4oapRiCaMhqcdlKZVWuh0ItTiUUlyWcjThnh+VedKQCZkTjcrSy4+ShfeeI9VgfZm77ztk2aXflrXH/y4PzX2uVLbfWcI/fFnmxlWJt32D1GsrZOjuc2VJPCQL9vmuzF20WCSYIxOBTLYzNCpBg+2OJDf0RG1LMD4+3rWW/AXob9VJAgXKEIqC/WRE/b2fF/e0MXUHGvY9N9aTkCWIfcHrexX6EdhpH5M8CFm8qdbp4EjvDjBcC1XY+fK3Uvt8aL1iSYChn/jSrpksz2sR3hx4DlpgLFMkEA4i49CiQKIgkrAxLOUokIkyOxIaEobLJareI/HSOyRY8CQJhzd15xk04vkSlRoyPHqfVFfcKmH1fgmW3iyP3n6brLPLvnLnVT+XzTd7stS3ebEMzd1cGvdfI+N3nCeNoW1lKFouwyvvkHD7l4tscIDUyyNSCctSZYtj3JB6eVwkmithEK52EmnaSJWfkrawFzVougoQ/I4nuW/92K+fWKSu2wEgaI/hWy0N3TXUYPduq5K07/p5Js5VHm9aoazW2UwcZ6t80K/l8kJhWXkI/Tom26+0kFdSmIxyusNrJoytn/sYxlWJZMjtFmiUau4sg1JDJK7EMrTkell+15US3f0HGX/kBqmstYVUn7SrrLfVvlKSLaX60GUyetclUr/3RinJsISbPlvmbbmnhIt2kOqcTSSoz5XLLrlU7n7gftl///1kk43WliVLH5Hrr/ut7PSc58slP79YXrj/flIvr5BfXXSJvP41b3a5ENXGmFz369/IbbfdPnXgGoencaIpfM5uCg7n4uRVPnPaK4docTQ9/MKFcXqRGQeccWAZB6FleofHxsa65kFIYoA0xvYtV/9Qk4Ew7v1ystYXn23yYpG8g973uP0W8yy3wRkH7dO40zXoOQm+pTTTwYHSSdehek7s35aWg0PjOshZMfcjVKQcBy4hMQ6rUo5iCUpVue+CI2XB2M0ytN6TZHjHV8v4Hy+TxoN/kmBkfZFt95HlN35J5s1/olS22VuiiVGp3HqFPLpiQtbb8z0SP/Gl8tJXvFQuOv982eXZz5KbbvmbfPmrX5RFizaVA/bdWxauu1CWLHlEFq2/iAOb5eEHH5adn7WrXHXF1XLMMe+Ur339Sw4ccCQ4t8ICBriSnhNBuVOG01s5HnunnXZyp3pyUinH4XOfB6eVcj8HJ35yAJmevprlRQtWrlzZU4CQho61kwMB3EEm70JV9tAaK4BnG4BLyj9QF/VsG2sX2GRaqlQAm5YLU9StOi2dL9io73HVYoOQQkECFnyMg4nwIIzUQqmXIqmXq1KqD8mQVGXlhYtl/iPXykRQksr+35NlFx0tC+UBqc97plS3f7WUfvMxCesNqT5jsYyurMr6/zhfxoL5Mrz/GVJb/2Vy9TVXy8qxURldPiZvOfwIefdxJ8ie++whe++5l5x++ufdsduf/cxpcuWlV8rHP/0JufzKS+Weu++R639/oyxd/qgMD1XcXS/cDXLyySc7IMDFZlxLzt0gXMXOcfhcPqfXxnNPC5e4cesnwICLvbhBNO+ek2kFCEnHstpscBtuKDivg8d6QAEfJCQJ5B50o6tN+NYaY7RH6GrjA7DQ1WloqnKdM3sk8mzhzTTPKwRS3myKWIOHMykQROwUIP8gFIlLIsG41MNhGamulPHzFsv8FddJg7DDi74rKy5+h8xrLJGVC3aS4OmvlfCaD0ul0ZDaMxbL8hVVWXT7BTIerCvll5wh0QYHyYEHvkL+ctOf5MUHHSTfPOsbcuJ73ye77f482W+/xXLhhRfI8mXL5dA3vEFuuekWOff8n8m73nWcPPDgA3L00cfIRT//hbzq1a9yF42h8AEIeBK42Ix7cg499FB3tTyXf3HvB5ehHXHEEe5GWG4d5R4YLgzj3hFuduU7e9CTT5RgdHR02jwIvgstTQgPeHn6KaACylpheqb+bFWS1quVBA6mf1YGPfApoKEw3mfr1lO7Fm3i5RW23qsAAAlnSURBVIAbOkiBmMuUIrelMIiGpRxUZUWpIXPiSGq/PlXk9u9INL5M5h90piy5+P2yoLRCws1eLrLFrtL49aeltnyJyLZ7y8rRqqx1z1UyPv9psvCAT8o9jyyU7Z+6g7zoRS+Sgw8+2Fn6hAgOO+wwWbz4ADn/gvNl+bJl7vZUQgbcNsqV53f+8055xo7PcKGD4447zl2xzkV33JBK6ABe5zIxbqLdfvvtXejhK1/5ilxzzTXukjhuo+V3LgPjanBuPuWSOm7kJTyR9gpWrFgx7QCBzg0ywjvI3F2oyuYjaPX+xUNdaHbaq1TXbdL4p71zgw48jgI2hyQpe3s2kEzBzwAcdG82IwlF2L0Qc6fCsARxLNXhcalFscyPxyRurJDlD/5BFq67rax44E8Sjd8nE3ffJmH1EWmsvbUs3Hh7ieeMSC1aR+bPXVeiBVtLHAUSVkZkv/0OkL/eeou7/ptbQLn+/aijjnLXqn/jG99wN3Uef/zxwu2kJCB+9KMfdVfAc4U6Cn/HHXeU+fPnu9ACV8x/8IMflD322MPd2nrzzTfLL3/5S1cfZbkV9uijj3Z/Ayq4XfSUU05x17O/5CUvcWUzAcLy5cv7AiD4MbTZEC/sHvtOT83+nPgx3+npVXdbVSE88CB0l86drF2Bayfr7Me6bL5WVqJZP/a97/s0eU/z5OVI3L0Yl93nRhhJndyDGKt7Qoaq47LihtOlNPyYlMoNieKKSNiQqBqKzN9Z5m3zamnUAhmrVCSIIxmuxlKuhLJk6aMOGKCc9SZRrhJ/8MEH3ZXiKHKUO+5/PLV85jmSDjfYYAMZHx93oSX+cdW81sPzl156qey3337u+nCuAQdMsCYAFPAMeQgrV6509eUZ5kE/AITZnOzW9wuhxQ7aGH2LVcyIYtZKm62hlBkxESmd9Hfa8JhNMJ3Nnp9B0mz3ODeI3BGK0ghDt5sglrIM1YelJFWpliekTAiiPleGolvlkZ/sLustXyIrN9lTou0PlfiaE6Qyvkyipx4hlV3fJ1E0LNXyXGnU63L/vbfLvPlz5I7b7pXtttveeQYICVx33XUuZKBJhmxB3HfffZ1Cv/zyy51y32uvvWRsbEyuvfZa531YsmSJAwqAis0339xtYeRZdikQtsCTsNtuu8mCBQvkqquucuGFjTbayD0D7+y5556ZWxyhbl8BBNehVaioe1M/qLkdCvhZ1LPdchmA13a4pbdlbXghiS9nG1gY8Gb3+KsUiURhQ2pBSUps8eb0wmiODEd1aZRWSKNUlbi+nsyt3yajP95d5q9cJvUNnyLj2x4qQ9d9QkqNMZl42mES7vIRGarNk4l6Q4JyJDfedKOc/aNz5MILLpCTPnaSO6uAswzwGFx55ZVy4oknyjnnnCO777678xyQS/Da177WnWXwpje9yYEGcgdQ+AALyh5++OFy0kknyQc+8AGXt0CyImXZpUCYAQ8DQIPdDcccc4wLYxx44IEu5ACwyDJ8BgChezw2K2seAIRZOa2zYlBZAMEm9s2Kwa4ypnQsszUhc7rmKmyUpVauuoOS5tRK7jKmamnInabId6U4kFKtJOXgFnn4xy+UBY0VEsx/itR3PFhKV39W6nFVGtsdIcPP/ojE8YhUGxMyVKpJEM6XLTbfWp6/2y4ucZAdBj/4wQ9cLgA8ijcA9z85AuxEOPPMM+Xcc891yYTHHnus+/y2t73NPYMn4Mgjj5TNNttMFi9e7A49Ovvss91nvAaAg3vuuccBjPe+971SLpdliy22cB6IL3zhC3Laaae5MxWyXn0BEKznwEczsw31TxfDt9Iuc5GU6JVnqbXSVr+WGVhp/Tozq/dLwwqaJ5Pm2Zot8sTKyYHXtQs8ytULAVAgcBczcccCUQUubnLfxsNSlsekHEciD90k991+joQrlsjam2wrK+65SaLN95INt95DxkubSi2sSCx1CaNYRkpz5JWvOkSOf9c73TZFrPkbbrjBbVUkBAAI+PCHP+wSFb///e+7HAISEAktEDL44he/6JIXX/ayl8myZcscWKAcCv+8885z3gfOOCAp8TOf+YxLdtx6663lhBNOcKDh1FNPdVshOWHxrLPOcrseZgxAoKMDJNwFZm+jSl+grskeBAWySs60M87bIPegaA4FshR8EeC6pgAEfyvkbA8F9nLhkLvo7mcIqiL1ORJKIOHwoyS/SK2xllTKkQTVpRLEc6Uezpe6AxUTEseAhLIMDQ/LxMS4c/2TVGi39yNTNPlUf+PUQ154CPT6bn7DI8A7ZUg25Df9TNKi1k9ZntU69LM9GTeNfn3lQbCeBP1sE456yQSDtiaTvfyzKawQhkazXfD4B+1Yy222j70f14DyZFLctAhAsGOayWAhzYOQ50HpxzmdiX1qoJSDyuQmh6AuYakmUTSZzFgKRiSWmkhcliCoOGDQkFEJy6E03JEDoYScvxSLU+i6Q0rn1H5HLgEK3RojOsfq4YWPARE8qy++S6qXuhRo+AZP0jwEy5Yt6+g2x1YEaJa7TAc5AAq9WUZWAKvr0tK+VQ9CUuioNyNqvZUsvrS0ybpRsPXWByWzKOB7Gn0ebQa86Tw3U2a6ZycLIFglYU+VtN8PduS0N4NRGEncGHFXLwfBhEg0LCU+SyyhjEgtnLwiOmo0pBQ2pBHVRQJCFUMSc5V01OCgxtQX86MnDasiTzvXQ4FCGtCgfKtngnQcILRK9qRYr42t8Rl3ykxG/a3SppflrNfAF5w+SJvtirEIQFAvij00qpfztSa1pbxp927bG0ab9SDMdNrlyUzLmzN9rP3V/1hKEeGCuRKFE+4ip0Y0R8KySFji87BEQUNCTO84cocs4S0QKUkUh3wlQfBva7+/xrZ6bzoKEHwE3gxKzWN2RUl0X10pzdTfz5PQT31TUGYPBkoTvM0AhHZ4Yzrpk8SXiujtb4zPuvims8+zrW3lHY2/qiyw7616EGYqXyoPJvGi5Uu1HptZq7ONfzo9Hqfr0fLCHQ11CULyEeZMJjSSlxCVpOFiDy5bYdJj4P6FErtbIjljIb1XSZ6s6dJ1HQUI7UxEEYBgXS0DYdwOtdPLEqOyYEytEH23zLsmCJ2iAEEpCl/OJFd1d7ioc7Vaj5YPWpmbJPC6poQj82SmBQ+s1YHM7CBfOg0fC26Ccok0xYrEHK4U1yYbicruoKWI0xcJNkSBABuE3IQokigokbzQuQ51qab/B6Vux2CosjEjAAAAAElFTkSuQmCC;strokeColor=#FFFFFF;shadow=1;fillColor=#FFFFFF;" vertex="1" parent="1">
          <mxGeometry x="207.15" y="760" width="559.69" height="282" as="geometry" />
        </mxCell>
        <mxCell id="T5g8Ms6Cscu1RrhLAaRR-2" value="Public Cloud" style="aspect=fixed;html=1;points=[];align=center;image;fontSize=12;image=img/lib/mscae/Front_Doors.svg;fillColor=#66B2FF;" vertex="1" parent="1">
          <mxGeometry x="210" y="830" width="99" height="87.12" as="geometry" />
        </mxCell>
        <mxCell id="T5g8Ms6Cscu1RrhLAaRR-3" value="Private Cloud" style="aspect=fixed;html=1;points=[];align=center;image;fontSize=12;image=img/lib/mscae/Azure_Firewall.svg;fillColor=#66B2FF;" vertex="1" parent="1">
          <mxGeometry x="220" y="957.5" width="84.5" height="84.5" as="geometry" />
        </mxCell>
      </root>
    </mxGraphModel>
  </diagram>
</mxfile>
